STARTFONT 2.1
COMMENT
COMMENT Converted from OpenType font "JF-Dot-Kappa20.ttf" by "otf2bdf 3.0".
COMMENT
FONT -FreeType-JF Dot Kappa 20-Medium-R-Normal--21-150-100-100-P-196-ISO10646-1
SIZE 15 100 100
FONTBOUNDINGBOX 21 21 0 -3
STARTPROPERTIES 19
FOUNDRY "FreeType"
FAMILY_NAME "JF Dot Kappa 20"
WEIGHT_NAME "Medium"
SLANT "R"
SETWIDTH_NAME "Normal"
ADD_STYLE_NAME ""
PIXEL_SIZE 21
POINT_SIZE 150
RESOLUTION_X 100
RESOLUTION_Y 100
SPACING "P"
AVERAGE_WIDTH 196
CHARSET_REGISTRY "ISO10646"
CHARSET_ENCODING "1"
FONT_ASCENT 18
FONT_DESCENT 2
COPYRIGHT "-FreeType-JF Dot Kappa 20-Medium-R-Normal--21-150-100-100-P-196-ISO10646-1"
_OTF_FONTFILE "JF-Dot-Kappa20.ttf"
_OTF_PSNAME "JF-Dot-Kappa-20-Regular"
ENDPROPERTIES
CHARS 7116
STARTCHAR 0020
ENCODING 32
SWIDTH 528 0
DWIDTH 11 0
BBX 0 0 0 0
BITMAP
ENDCHAR
STARTCHAR 0021
ENCODING 33
SWIDTH 528 0
DWIDTH 11 0
BBX 3 16 3 0
BITMAP
40
E0
E0
E0
40
40
40
40
40
40
40
00
00
40
E0
40
ENDCHAR
STARTCHAR 0022
ENCODING 34
SWIDTH 528 0
DWIDTH 11 0
BBX 6 5 1 11
BITMAP
6C
6C
24
48
90
ENDCHAR
STARTCHAR 0023
ENCODING 35
SWIDTH 528 0
DWIDTH 11 0
BBX 9 17 0 -1
BITMAP
1100
1100
1100
1100
1100
7F80
2200
2200
2200
2200
2200
FF00
4400
4400
4400
4400
4400
ENDCHAR
STARTCHAR 0024
ENCODING 36
SWIDTH 528 0
DWIDTH 11 0
BBX 9 18 0 -1
BITMAP
0800
0800
3E00
4900
8880
8980
8800
6800
1C00
0B00
0B80
0880
C880
8880
4900
3E00
0800
0800
ENDCHAR
STARTCHAR 0025
ENCODING 37
SWIDTH 528 0
DWIDTH 11 0
BBX 8 17 1 -1
BITMAP
61
91
92
92
94
94
68
08
10
16
16
29
29
49
49
89
86
ENDCHAR
STARTCHAR 0026
ENCODING 38
SWIDTH 528 0
DWIDTH 11 0
BBX 11 15 0 0
BITMAP
3C00
4200
4200
4400
2400
2800
11E0
2880
4880
4880
8500
8500
8200
4660
3980
ENDCHAR
STARTCHAR 0027
ENCODING 39
SWIDTH 528 0
DWIDTH 11 0
BBX 3 6 2 10
BITMAP
60
60
20
20
40
80
ENDCHAR
STARTCHAR 0028
ENCODING 40
SWIDTH 528 0
DWIDTH 11 0
BBX 5 19 3 -2
BITMAP
08
10
20
20
40
40
C0
80
80
80
80
80
C0
40
40
20
20
10
08
ENDCHAR
STARTCHAR 0029
ENCODING 41
SWIDTH 528 0
DWIDTH 11 0
BBX 5 19 1 -2
BITMAP
80
40
20
20
10
10
18
08
08
08
08
08
18
10
10
20
20
40
80
ENDCHAR
STARTCHAR 002A
ENCODING 42
SWIDTH 528 0
DWIDTH 11 0
BBX 7 10 1 3
BITMAP
10
92
D6
38
10
38
F6
D6
92
10
ENDCHAR
STARTCHAR 002B
ENCODING 43
SWIDTH 528 0
DWIDTH 11 0
BBX 9 10 0 3
BITMAP
0800
0800
0800
0800
FF80
0800
0800
0800
0800
0800
ENDCHAR
STARTCHAR 002C
ENCODING 44
SWIDTH 528 0
DWIDTH 11 0
BBX 3 6 2 -3
BITMAP
60
60
20
20
40
80
ENDCHAR
STARTCHAR 002D
ENCODING 45
SWIDTH 528 0
DWIDTH 11 0
BBX 8 1 1 8
BITMAP
FF
ENDCHAR
STARTCHAR 002E
ENCODING 46
SWIDTH 528 0
DWIDTH 11 0
BBX 3 3 2 0
BITMAP
40
E0
40
ENDCHAR
STARTCHAR 002F
ENCODING 47
SWIDTH 528 0
DWIDTH 11 0
BBX 9 20 0 -3
BITMAP
0080
0080
0100
0100
0200
0200
0400
0400
0800
0800
0800
0800
1000
1000
2000
2000
4000
4000
8000
8000
ENDCHAR
STARTCHAR 0030
ENCODING 48
SWIDTH 528 0
DWIDTH 11 0
BBX 8 15 1 0
BITMAP
18
24
42
42
81
81
81
81
81
81
81
42
42
24
18
ENDCHAR
STARTCHAR 0031
ENCODING 49
SWIDTH 528 0
DWIDTH 11 0
BBX 6 15 2 0
BITMAP
10
30
D0
10
10
10
10
10
10
10
10
10
10
10
7C
ENDCHAR
STARTCHAR 0032
ENCODING 50
SWIDTH 528 0
DWIDTH 11 0
BBX 8 15 1 0
BITMAP
3C
42
81
81
01
02
02
04
08
08
10
21
41
82
FE
ENDCHAR
STARTCHAR 0033
ENCODING 51
SWIDTH 528 0
DWIDTH 11 0
BBX 8 15 1 0
BITMAP
3C
42
81
81
01
02
1C
02
03
01
01
81
81
42
3C
ENDCHAR
STARTCHAR 0034
ENCODING 52
SWIDTH 528 0
DWIDTH 11 0
BBX 8 15 1 0
BITMAP
0C
0C
14
14
24
24
44
44
C4
84
FF
04
04
04
1F
ENDCHAR
STARTCHAR 0035
ENCODING 53
SWIDTH 528 0
DWIDTH 11 0
BBX 8 15 1 0
BITMAP
7F
40
40
40
40
5C
62
01
01
01
01
81
81
42
3C
ENDCHAR
STARTCHAR 0036
ENCODING 54
SWIDTH 528 0
DWIDTH 11 0
BBX 8 15 1 0
BITMAP
3C
42
81
80
80
9C
A2
C1
81
81
81
81
81
42
3C
ENDCHAR
STARTCHAR 0037
ENCODING 55
SWIDTH 528 0
DWIDTH 11 0
BBX 8 15 1 0
BITMAP
7F
41
82
84
04
08
08
08
08
08
10
10
10
10
10
ENDCHAR
STARTCHAR 0038
ENCODING 56
SWIDTH 528 0
DWIDTH 11 0
BBX 8 15 1 0
BITMAP
3C
42
81
81
81
42
3C
42
83
81
81
81
81
42
3C
ENDCHAR
STARTCHAR 0039
ENCODING 57
SWIDTH 528 0
DWIDTH 11 0
BBX 8 15 1 0
BITMAP
3C
42
81
81
81
81
81
43
7F
3D
01
01
81
42
3C
ENDCHAR
STARTCHAR 003A
ENCODING 58
SWIDTH 528 0
DWIDTH 11 0
BBX 3 12 3 0
BITMAP
40
E0
40
00
00
00
00
00
00
40
E0
40
ENDCHAR
STARTCHAR 003B
ENCODING 59
SWIDTH 528 0
DWIDTH 11 0
BBX 3 15 3 -3
BITMAP
40
E0
40
00
00
00
00
00
00
60
60
20
20
40
80
ENDCHAR
STARTCHAR 003C
ENCODING 60
SWIDTH 528 0
DWIDTH 11 0
BBX 7 14 1 0
BITMAP
02
04
08
10
20
40
80
C0
40
20
10
08
04
02
ENDCHAR
STARTCHAR 003D
ENCODING 61
SWIDTH 528 0
DWIDTH 11 0
BBX 8 6 1 4
BITMAP
FF
00
00
00
00
FF
ENDCHAR
STARTCHAR 003E
ENCODING 62
SWIDTH 528 0
DWIDTH 11 0
BBX 7 14 1 0
BITMAP
80
40
20
10
08
04
02
04
04
08
10
20
40
80
ENDCHAR
STARTCHAR 003F
ENCODING 63
SWIDTH 528 0
DWIDTH 11 0
BBX 9 15 0 0
BITMAP
3E00
4100
8080
8080
4080
0100
0200
0C00
0800
0800
0800
0000
0800
1C00
0800
ENDCHAR
STARTCHAR 0040
ENCODING 64
SWIDTH 528 0
DWIDTH 11 0
BBX 9 17 0 -1
BITMAP
1E00
2100
4100
4080
8C80
9480
A480
A480
A480
A480
A480
A480
9B00
8000
4080
2100
1E00
ENDCHAR
STARTCHAR 0041
ENCODING 65
SWIDTH 528 0
DWIDTH 11 0
BBX 11 15 0 0
BITMAP
0C00
0C00
1400
1600
1200
1200
2300
2100
2100
2100
3F00
4180
4080
4080
E3E0
ENDCHAR
STARTCHAR 0042
ENCODING 66
SWIDTH 528 0
DWIDTH 11 0
BBX 9 15 0 0
BITMAP
FE00
4100
4080
4080
4080
4100
7E00
4100
4180
4080
4080
4080
4080
4100
FE00
ENDCHAR
STARTCHAR 0043
ENCODING 67
SWIDTH 528 0
DWIDTH 11 0
BBX 9 15 0 0
BITMAP
1C80
2280
4180
4080
8080
8000
8000
8000
8000
8000
8000
4000
4080
2100
1E00
ENDCHAR
STARTCHAR 0044
ENCODING 68
SWIDTH 528 0
DWIDTH 11 0
BBX 9 15 0 0
BITMAP
FC00
4200
4100
4100
4080
4080
4080
4080
4080
4080
4080
4100
4100
4200
FC00
ENDCHAR
STARTCHAR 0045
ENCODING 69
SWIDTH 528 0
DWIDTH 11 0
BBX 9 15 0 0
BITMAP
FF80
4080
4080
4080
4200
4200
7E00
4200
4200
4200
4000
4080
4080
4080
FF80
ENDCHAR
STARTCHAR 0046
ENCODING 70
SWIDTH 528 0
DWIDTH 11 0
BBX 9 15 0 0
BITMAP
FF80
4080
4080
4080
4400
4400
7C00
4400
4400
4400
4000
4000
4000
4000
F000
ENDCHAR
STARTCHAR 0047
ENCODING 71
SWIDTH 528 0
DWIDTH 11 0
BBX 9 15 0 0
BITMAP
1C80
2280
4180
4080
8080
8000
8000
8780
8780
8080
8080
4080
4180
2280
1C80
ENDCHAR
STARTCHAR 0048
ENCODING 72
SWIDTH 528 0
DWIDTH 11 0
BBX 11 15 0 0
BITMAP
F3E0
4080
4080
4080
4080
4080
7F80
4080
4080
4080
4080
4080
4080
4080
F3E0
ENDCHAR
STARTCHAR 0049
ENCODING 73
SWIDTH 528 0
DWIDTH 11 0
BBX 5 15 2 0
BITMAP
F8
20
20
20
20
20
20
20
20
20
20
20
20
20
F8
ENDCHAR
STARTCHAR 004A
ENCODING 74
SWIDTH 528 0
DWIDTH 11 0
BBX 11 15 0 0
BITMAP
07E0
0100
0100
0100
0100
0100
0100
0100
0100
0100
C100
8100
8100
4200
3C00
ENDCHAR
STARTCHAR 004B
ENCODING 75
SWIDTH 528 0
DWIDTH 11 0
BBX 11 15 0 0
BITMAP
F3E0
4100
4200
4400
4800
5000
7000
5000
5800
4800
4400
4200
4100
4080
F3E0
ENDCHAR
STARTCHAR 004C
ENCODING 76
SWIDTH 528 0
DWIDTH 11 0
BBX 9 15 0 0
BITMAP
F800
2000
2000
2000
2000
2000
2000
2000
2000
2000
2000
2080
2080
2080
7F80
ENDCHAR
STARTCHAR 004D
ENCODING 77
SWIDTH 528 0
DWIDTH 11 0
BBX 11 15 0 0
BITMAP
C0E0
4080
4180
6180
6280
6280
5480
5480
5480
5480
4880
4880
4880
4080
E3E0
ENDCHAR
STARTCHAR 004E
ENCODING 78
SWIDTH 528 0
DWIDTH 11 0
BBX 11 15 0 0
BITMAP
C1E0
6080
6080
5080
5080
4880
4880
4480
4480
4480
4280
4280
4180
4180
E080
ENDCHAR
STARTCHAR 004F
ENCODING 79
SWIDTH 528 0
DWIDTH 11 0
BBX 9 15 0 0
BITMAP
3E00
4100
4100
8080
8080
8080
8080
8080
8080
8080
8080
8080
4100
4100
3E00
ENDCHAR
STARTCHAR 0050
ENCODING 80
SWIDTH 528 0
DWIDTH 11 0
BBX 9 15 0 0
BITMAP
FE00
4100
4080
4080
4080
4080
4100
7E00
4000
4000
4000
4000
4000
4000
F000
ENDCHAR
STARTCHAR 0051
ENCODING 81
SWIDTH 528 0
DWIDTH 11 0
BBX 11 17 0 -2
BITMAP
3E00
4100
4100
8080
8080
8080
8080
8080
8080
8080
8080
9880
6500
4300
3E00
0260
0180
ENDCHAR
STARTCHAR 0052
ENCODING 82
SWIDTH 528 0
DWIDTH 11 0
BBX 11 15 0 0
BITMAP
FE00
4100
4080
4080
4080
4100
7E00
4800
4C00
4400
4200
4200
4100
4080
F3E0
ENDCHAR
STARTCHAR 0053
ENCODING 83
SWIDTH 528 0
DWIDTH 11 0
BBX 8 15 1 0
BITMAP
3A
46
81
81
80
60
18
06
07
01
81
81
C1
A2
9C
ENDCHAR
STARTCHAR 0054
ENCODING 84
SWIDTH 528 0
DWIDTH 11 0
BBX 9 15 0 0
BITMAP
FF80
8880
8880
8880
0800
0800
0800
0800
0800
0800
0800
0800
0800
0800
3E00
ENDCHAR
STARTCHAR 0055
ENCODING 85
SWIDTH 528 0
DWIDTH 11 0
BBX 11 15 0 0
BITMAP
F1E0
4080
4080
4080
4080
4080
4080
4080
4080
4080
4080
4080
4080
2100
1E00
ENDCHAR
STARTCHAR 0056
ENCODING 86
SWIDTH 528 0
DWIDTH 11 0
BBX 11 15 0 0
BITMAP
F1E0
4080
4080
6100
2100
2100
3100
1200
1A00
1A00
0A00
0C00
0C00
0400
0400
ENDCHAR
STARTCHAR 0057
ENCODING 87
SWIDTH 528 0
DWIDTH 11 0
BBX 9 15 0 0
BITMAP
E380
4100
4900
4900
4900
4900
5D00
5500
5500
5500
7700
2200
2200
2200
2200
ENDCHAR
STARTCHAR 0058
ENCODING 88
SWIDTH 528 0
DWIDTH 11 0
BBX 11 15 0 0
BITMAP
F3E0
4080
2100
2200
1200
1C00
0800
0C00
1400
1400
1200
2100
2100
4080
F3E0
ENDCHAR
STARTCHAR 0059
ENCODING 89
SWIDTH 528 0
DWIDTH 11 0
BBX 9 15 0 0
BITMAP
F380
4100
4100
2200
2200
1400
1400
0800
0800
0800
0800
0800
0800
0800
3E00
ENDCHAR
STARTCHAR 005A
ENCODING 90
SWIDTH 528 0
DWIDTH 11 0
BBX 9 15 0 0
BITMAP
7F80
4100
4200
4200
0400
0400
0800
0800
1000
1000
1000
2080
2080
4080
FF80
ENDCHAR
STARTCHAR 005B
ENCODING 91
SWIDTH 528 0
DWIDTH 11 0
BBX 5 17 3 -1
BITMAP
F8
80
80
80
80
80
80
80
80
80
80
80
80
80
80
80
F8
ENDCHAR
STARTCHAR 005C
ENCODING 92
SWIDTH 528 0
DWIDTH 11 0
BBX 9 20 0 -3
BITMAP
8000
8000
4000
4000
2000
2000
1000
1000
0800
0800
0800
0800
0400
0400
0200
0200
0100
0100
0080
0080
ENDCHAR
STARTCHAR 005D
ENCODING 93
SWIDTH 528 0
DWIDTH 11 0
BBX 5 17 2 -1
BITMAP
F8
08
08
08
08
08
08
08
08
08
08
08
08
08
08
08
F8
ENDCHAR
STARTCHAR 005E
ENCODING 94
SWIDTH 528 0
DWIDTH 11 0
BBX 7 4 1 12
BITMAP
10
28
44
82
ENDCHAR
STARTCHAR 005F
ENCODING 95
SWIDTH 528 0
DWIDTH 11 0
BBX 9 1 0 -1
BITMAP
FF80
ENDCHAR
STARTCHAR 0060
ENCODING 96
SWIDTH 528 0
DWIDTH 11 0
BBX 4 3 3 13
BITMAP
C0
60
10
ENDCHAR
STARTCHAR 0061
ENCODING 97
SWIDTH 528 0
DWIDTH 11 0
BBX 10 11 1 0
BITMAP
3E00
4100
C100
0100
0100
1F00
6100
8100
8100
8300
7DC0
ENDCHAR
STARTCHAR 0062
ENCODING 98
SWIDTH 528 0
DWIDTH 11 0
BBX 9 15 0 0
BITMAP
E000
2000
2000
2000
2E00
3100
2080
2080
2080
2080
2080
2080
2080
3100
2E00
ENDCHAR
STARTCHAR 0063
ENCODING 99
SWIDTH 528 0
DWIDTH 11 0
BBX 8 11 1 0
BITMAP
3C
42
83
80
80
80
80
80
81
42
3C
ENDCHAR
STARTCHAR 0064
ENCODING 100
SWIDTH 528 0
DWIDTH 11 0
BBX 8 15 1 0
BITMAP
0E
02
02
02
3A
46
82
82
82
82
82
82
82
46
3B
ENDCHAR
STARTCHAR 0065
ENCODING 101
SWIDTH 528 0
DWIDTH 11 0
BBX 8 11 1 0
BITMAP
3C
42
81
81
81
FF
80
80
81
42
3C
ENDCHAR
STARTCHAR 0066
ENCODING 102
SWIDTH 528 0
DWIDTH 11 0
BBX 8 15 1 0
BITMAP
1E
21
23
20
FC
20
20
20
20
20
20
20
20
20
F8
ENDCHAR
STARTCHAR 0067
ENCODING 103
SWIDTH 528 0
DWIDTH 11 0
BBX 9 15 0 -3
BITMAP
0080
3D80
4200
4200
4200
4200
4200
3C00
4000
2000
5F00
8080
8080
8080
7F00
ENDCHAR
STARTCHAR 0068
ENCODING 104
SWIDTH 528 0
DWIDTH 11 0
BBX 11 15 0 0
BITMAP
E000
2000
2000
2000
2F00
3080
2080
2080
2080
2080
2080
2080
2080
2080
F3E0
ENDCHAR
STARTCHAR 0069
ENCODING 105
SWIDTH 528 0
DWIDTH 11 0
BBX 8 15 1 0
BITMAP
18
18
00
00
78
08
08
08
08
08
08
08
08
08
FF
ENDCHAR
STARTCHAR 006A
ENCODING 106
SWIDTH 528 0
DWIDTH 11 0
BBX 8 18 1 -3
BITMAP
03
03
00
00
1F
01
01
01
01
01
01
01
01
01
01
C1
82
7C
ENDCHAR
STARTCHAR 006B
ENCODING 107
SWIDTH 528 0
DWIDTH 11 0
BBX 9 15 0 0
BITMAP
E000
2000
2000
2000
2780
2200
2400
2800
3800
3000
2800
2400
2200
2100
F780
ENDCHAR
STARTCHAR 006C
ENCODING 108
SWIDTH 528 0
DWIDTH 11 0
BBX 8 15 1 0
BITMAP
78
08
08
08
08
08
08
08
08
08
08
08
08
08
FF
ENDCHAR
STARTCHAR 006D
ENCODING 109
SWIDTH 528 0
DWIDTH 11 0
BBX 11 11 0 0
BITMAP
DB00
2480
2480
2480
2480
2480
2480
2480
2480
2480
64E0
ENDCHAR
STARTCHAR 006E
ENCODING 110
SWIDTH 528 0
DWIDTH 11 0
BBX 11 11 0 0
BITMAP
EF00
3080
2080
2080
2080
2080
2080
2080
2080
2080
71E0
ENDCHAR
STARTCHAR 006F
ENCODING 111
SWIDTH 528 0
DWIDTH 11 0
BBX 8 11 1 0
BITMAP
3C
42
81
81
81
81
81
81
81
42
3C
ENDCHAR
STARTCHAR 0070
ENCODING 112
SWIDTH 528 0
DWIDTH 11 0
BBX 9 14 0 -3
BITMAP
EE00
3100
2080
2080
2080
2080
2080
2080
3100
2E00
2000
2000
2000
7000
ENDCHAR
STARTCHAR 0071
ENCODING 113
SWIDTH 528 0
DWIDTH 11 0
BBX 8 14 1 -3
BITMAP
3A
46
82
82
82
82
82
82
46
3A
02
02
02
07
ENDCHAR
STARTCHAR 0072
ENCODING 114
SWIDTH 528 0
DWIDTH 11 0
BBX 8 11 1 0
BITMAP
EE
31
23
20
20
20
20
20
20
20
F8
ENDCHAR
STARTCHAR 0073
ENCODING 115
SWIDTH 528 0
DWIDTH 11 0
BBX 8 11 1 0
BITMAP
7D
83
81
C0
F8
38
06
81
81
C1
BE
ENDCHAR
STARTCHAR 0074
ENCODING 116
SWIDTH 528 0
DWIDTH 11 0
BBX 8 15 1 0
BITMAP
10
10
10
10
FE
10
10
10
10
10
10
10
11
11
0E
ENDCHAR
STARTCHAR 0075
ENCODING 117
SWIDTH 528 0
DWIDTH 11 0
BBX 11 11 0 0
BITMAP
E380
2080
2080
2080
2080
2080
2080
2080
2080
2180
1EE0
ENDCHAR
STARTCHAR 0076
ENCODING 118
SWIDTH 528 0
DWIDTH 11 0
BBX 11 11 0 0
BITMAP
F3E0
2080
2080
1100
1100
1100
1100
0A00
0E00
0400
0400
ENDCHAR
STARTCHAR 0077
ENCODING 119
SWIDTH 528 0
DWIDTH 11 0
BBX 9 11 0 0
BITMAP
E780
4100
4900
4900
4900
4900
5D00
5500
5500
2200
2200
ENDCHAR
STARTCHAR 0078
ENCODING 120
SWIDTH 528 0
DWIDTH 11 0
BBX 9 11 0 0
BITMAP
F780
2200
2200
1400
1C00
0800
0800
1400
2200
2200
F780
ENDCHAR
STARTCHAR 0079
ENCODING 121
SWIDTH 528 0
DWIDTH 11 0
BBX 11 14 0 -3
BITMAP
F1E0
2080
2080
2100
3100
1100
1200
0A00
0A00
0400
0400
C800
8800
7000
ENDCHAR
STARTCHAR 007A
ENCODING 122
SWIDTH 528 0
DWIDTH 11 0
BBX 8 11 1 0
BITMAP
FF
82
84
04
08
08
10
10
21
41
FF
ENDCHAR
STARTCHAR 007B
ENCODING 123
SWIDTH 528 0
DWIDTH 11 0
BBX 5 20 2 -2
BITMAP
08
10
10
20
20
20
20
20
20
C0
20
20
20
20
20
20
20
10
10
08
ENDCHAR
STARTCHAR 007C
ENCODING 124
SWIDTH 528 0
DWIDTH 11 0
BBX 1 21 4 -3
BITMAP
80
80
80
80
80
80
80
80
80
80
80
80
80
80
80
80
80
80
80
80
80
ENDCHAR
STARTCHAR 007D
ENCODING 125
SWIDTH 528 0
DWIDTH 11 0
BBX 5 20 3 -2
BITMAP
80
40
40
20
20
20
20
20
20
18
20
20
20
20
20
20
20
40
40
80
ENDCHAR
STARTCHAR 007E
ENCODING 126
SWIDTH 528 0
DWIDTH 11 0
BBX 8 3 1 14
BITMAP
60
99
06
ENDCHAR
STARTCHAR 00A0
ENCODING 160
SWIDTH 528 0
DWIDTH 11 0
BBX 8 15 1 0
BITMAP
18
18
00
00
78
08
08
08
08
08
08
08
08
08
FF
ENDCHAR
STARTCHAR 00A1
ENCODING 161
SWIDTH 528 0
DWIDTH 11 0
BBX 7 11 2 0
BITMAP
FE
10
10
10
10
10
10
10
10
10
FE
ENDCHAR
STARTCHAR 00A2
ENCODING 162
SWIDTH 528 0
DWIDTH 11 0
BBX 8 11 1 0
BITMAP
3C
42
81
81
81
FF
80
80
81
42
3C
ENDCHAR
STARTCHAR 00A3
ENCODING 163
SWIDTH 528 0
DWIDTH 11 0
BBX 8 11 1 0
BITMAP
3C
42
81
40
7C
3C
40
80
81
42
3C
ENDCHAR
STARTCHAR 00A4
ENCODING 164
SWIDTH 528 0
DWIDTH 11 0
BBX 11 11 0 0
BITMAP
7B80
8C60
8860
0860
0860
1FE0
6800
8800
8800
8C60
7380
ENDCHAR
STARTCHAR 00A5
ENCODING 165
SWIDTH 528 0
DWIDTH 11 0
BBX 10 11 1 0
BITMAP
3E00
4100
C100
0100
0100
1F00
6100
8100
8100
8300
7DC0
ENDCHAR
STARTCHAR 00A6
ENCODING 166
SWIDTH 528 0
DWIDTH 11 0
BBX 8 15 1 0
BITMAP
18
18
00
00
78
08
08
08
0F
FF
08
08
08
08
FF
ENDCHAR
STARTCHAR 00A7
ENCODING 167
SWIDTH 1008 0
DWIDTH 21 0
BBX 11 19 5 -2
BITMAP
3F00
40C0
8020
C060
6000
3C00
2F80
40C0
8060
C020
E040
6040
3E80
0780
00C0
C020
8060
6040
1F80
ENDCHAR
STARTCHAR 00A8
ENCODING 168
SWIDTH 1008 0
DWIDTH 21 0
BBX 11 3 5 15
BITMAP
4040
E0E0
4040
ENDCHAR
STARTCHAR 00A9
ENCODING 169
SWIDTH 528 0
DWIDTH 11 0
BBX 11 11 0 0
BITMAP
C900
4900
4900
4900
4900
4900
4900
4900
4900
4900
36E0
ENDCHAR
STARTCHAR 00AA
ENCODING 170
SWIDTH 528 0
DWIDTH 11 0
BBX 11 11 0 0
BITMAP
6080
B160
3100
1A00
1A00
1A00
0C00
0C00
1200
1200
0C00
ENDCHAR
STARTCHAR 00AB
ENCODING 171
SWIDTH 528 0
DWIDTH 11 0
BBX 11 11 0 0
BITMAP
0400
0400
0A00
0A00
1300
1100
1100
1100
2080
2080
F3E0
ENDCHAR
STARTCHAR 00AC
ENCODING 172
SWIDTH 528 0
DWIDTH 11 0
BBX 10 11 1 0
BITMAP
3D00
4300
4100
8100
8100
8100
8100
8100
8300
4500
39C0
ENDCHAR
STARTCHAR 00AD
ENCODING 173
SWIDTH 528 0
DWIDTH 11 0
BBX 11 14 0 -3
BITMAP
F1E0
2080
2080
2100
3100
1100
1200
0A00
0A00
0400
0400
C800
8800
7000
ENDCHAR
STARTCHAR 00AE
ENCODING 174
SWIDTH 528 0
DWIDTH 11 0
BBX 10 11 1 0
BITMAP
F3C0
2100
2100
3200
3200
1200
1C00
0800
0800
0800
3E00
ENDCHAR
STARTCHAR 00AF
ENCODING 175
SWIDTH 528 0
DWIDTH 11 0
BBX 8 15 1 -2
BITMAP
02
02
3C
46
85
89
89
89
91
91
A1
62
3C
40
40
ENDCHAR
STARTCHAR 00B0
ENCODING 176
SWIDTH 1008 0
DWIDTH 21 0
BBX 4 4 2 12
BITMAP
60
90
90
60
ENDCHAR
STARTCHAR 00B1
ENCODING 177
SWIDTH 1008 0
DWIDTH 21 0
BBX 13 15 4 0
BITMAP
0600
0600
0600
0600
0600
FFF8
0600
0600
0600
0600
0600
0600
0000
0000
FFF8
ENDCHAR
STARTCHAR 00B2
ENCODING 178
SWIDTH 528 0
DWIDTH 11 0
BBX 11 11 0 0
BITMAP
E380
2080
2080
2080
20E0
FFE0
2080
2080
2080
2180
1EE0
ENDCHAR
STARTCHAR 00B3
ENCODING 179
SWIDTH 528 0
DWIDTH 11 0
BBX 8 11 1 0
BITMAP
3C
42
81
81
81
FF
81
81
81
42
3C
ENDCHAR
STARTCHAR 00B4
ENCODING 180
SWIDTH 1008 0
DWIDTH 21 0
BBX 7 4 7 14
BITMAP
1E
38
40
80
ENDCHAR
STARTCHAR 00B5
ENCODING 181
SWIDTH 528 0
DWIDTH 11 0
BBX 11 11 0 0
BITMAP
F3E0
1200
1200
2100
6180
4080
8060
8060
8060
6180
1E00
ENDCHAR
STARTCHAR 00B6
ENCODING 182
SWIDTH 1008 0
DWIDTH 21 0
BBX 11 20 4 -3
BITMAP
1FE0
7E20
7E20
FE20
FE20
7E20
7E20
1E20
0620
0620
0620
0620
0620
0620
0620
0620
0620
0620
0620
0620
ENDCHAR
STARTCHAR 00B7
ENCODING 183
SWIDTH 528 0
DWIDTH 11 0
BBX 8 11 1 0
BITMAP
3C
42
81
01
01
01
01
01
81
42
3C
ENDCHAR
STARTCHAR 00B8
ENCODING 184
SWIDTH 528 0
DWIDTH 11 0
BBX 10 11 1 0
BITMAP
CE00
5100
60C0
40C0
40C0
40C0
40C0
40C0
4100
6100
5E00
ENDCHAR
STARTCHAR 00BA
ENCODING 186
SWIDTH 528 0
DWIDTH 11 0
BBX 11 11 0 0
BITMAP
3800
4400
8280
0380
0280
0E80
3280
C260
8260
4400
3800
ENDCHAR
STARTCHAR 00BB
ENCODING 187
SWIDTH 528 0
DWIDTH 11 0
BBX 8 15 1 0
BITMAP
32
4C
00
00
3C
42
81
40
7C
3C
40
80
81
42
3C
ENDCHAR
STARTCHAR 00BC
ENCODING 188
SWIDTH 528 0
DWIDTH 11 0
BBX 10 15 1 0
BITMAP
3200
4C00
0000
0000
3D00
4300
4100
8100
8100
8100
8100
8100
8300
4500
39C0
ENDCHAR
STARTCHAR 00BD
ENCODING 189
SWIDTH 528 0
DWIDTH 11 0
BBX 11 15 0 0
BITMAP
1900
2600
0000
0000
7300
8C80
8860
8860
8860
8FE0
8800
8800
8800
8C60
7380
ENDCHAR
STARTCHAR 00BE
ENCODING 190
SWIDTH 528 0
DWIDTH 11 0
BBX 8 15 1 0
BITMAP
32
4C
00
00
3C
42
81
01
01
01
01
01
81
42
3C
ENDCHAR
STARTCHAR 00C0
ENCODING 192
SWIDTH 528 0
DWIDTH 11 0
BBX 9 14 0 -3
BITMAP
EE00
3100
2080
2080
2080
2080
2080
2080
3100
2E00
2000
2000
2000
7000
ENDCHAR
STARTCHAR 00C1
ENCODING 193
SWIDTH 528 0
DWIDTH 11 0
BBX 9 15 0 0
BITMAP
E000
2000
2000
2000
2E00
3100
2080
2080
2080
2080
2080
2080
2080
3100
2E00
ENDCHAR
STARTCHAR 00C2
ENCODING 194
SWIDTH 528 0
DWIDTH 11 0
BBX 8 15 1 0
BITMAP
10
10
10
10
FE
10
10
10
10
10
10
10
11
11
0E
ENDCHAR
STARTCHAR 00C3
ENCODING 195
SWIDTH 528 0
DWIDTH 11 0
BBX 8 15 1 0
BITMAP
0E
02
02
02
3A
46
82
82
82
82
82
82
82
46
3B
ENDCHAR
STARTCHAR 00C4
ENCODING 196
SWIDTH 528 0
DWIDTH 11 0
BBX 9 15 0 0
BITMAP
E000
2000
2000
2000
2780
2200
2400
2800
3800
3000
2800
2400
2200
2100
F780
ENDCHAR
STARTCHAR 00C5
ENCODING 197
SWIDTH 528 0
DWIDTH 11 0
BBX 8 14 1 -3
BITMAP
3B
46
82
82
82
82
82
46
3A
02
C2
82
44
38
ENDCHAR
STARTCHAR 00C6
ENCODING 198
SWIDTH 528 0
DWIDTH 11 0
BBX 8 15 1 0
BITMAP
1E
21
23
20
FC
20
20
20
20
20
20
20
20
20
F8
ENDCHAR
STARTCHAR 00C7
ENCODING 199
SWIDTH 528 0
DWIDTH 11 0
BBX 11 11 0 0
BITMAP
F3E0
2080
2080
1100
1100
1100
1100
0A00
0E00
0400
0400
ENDCHAR
STARTCHAR 00C8
ENCODING 200
SWIDTH 528 0
DWIDTH 11 0
BBX 7 15 2 0
BITMAP
38
44
82
82
82
82
FE
82
82
82
82
82
82
44
38
ENDCHAR
STARTCHAR 00C9
ENCODING 201
SWIDTH 528 0
DWIDTH 11 0
BBX 8 16 1 0
BITMAP
C4
28
10
28
C4
02
3E
43
81
81
81
81
81
81
42
3C
ENDCHAR
STARTCHAR 00CA
ENCODING 202
SWIDTH 528 0
DWIDTH 11 0
BBX 8 11 1 0
BITMAP
7D
83
81
C0
F8
38
06
81
81
C1
BE
ENDCHAR
STARTCHAR 00CB
ENCODING 203
SWIDTH 528 0
DWIDTH 11 0
BBX 8 11 1 0
BITMAP
FF
82
84
04
08
08
10
10
21
41
FF
ENDCHAR
STARTCHAR 00CC
ENCODING 204
SWIDTH 528 0
DWIDTH 11 0
BBX 7 19 2 -3
BITMAP
06
0A
08
08
10
10
10
10
10
10
10
10
10
10
10
20
20
A0
C0
ENDCHAR
STARTCHAR 00CD
ENCODING 205
SWIDTH 528 0
DWIDTH 11 0
BBX 8 14 1 -3
BITMAP
FF
82
84
08
10
10
2C
42
01
01
C1
81
82
7C
ENDCHAR
STARTCHAR 00CE
ENCODING 206
SWIDTH 528 0
DWIDTH 11 0
BBX 8 14 1 -3
BITMAP
3C
42
83
80
80
80
80
81
42
3C
10
0C
02
1C
ENDCHAR
STARTCHAR 00CF
ENCODING 207
SWIDTH 528 0
DWIDTH 11 0
BBX 9 11 0 0
BITMAP
F780
2200
2200
1400
1C00
0800
0800
1400
2200
2200
F780
ENDCHAR
STARTCHAR 00D0
ENCODING 208
SWIDTH 528 0
DWIDTH 11 0
BBX 11 11 0 0
BITMAP
F3E0
4100
4200
4200
4600
4400
7F00
4080
4080
4080
FF00
ENDCHAR
STARTCHAR 00D1
ENCODING 209
SWIDTH 528 0
DWIDTH 11 0
BBX 11 15 0 0
BITMAP
E000
2000
2000
2000
2F00
3080
2080
2080
2080
2080
2080
2080
2080
2080
F3E0
ENDCHAR
STARTCHAR 00D2
ENCODING 210
SWIDTH 528 0
DWIDTH 11 0
BBX 11 11 0 0
BITMAP
DB00
2480
2480
2480
2480
2480
2480
2480
2480
2480
64E0
ENDCHAR
STARTCHAR 00D3
ENCODING 211
SWIDTH 528 0
DWIDTH 11 0
BBX 11 11 0 0
BITMAP
EF00
3080
2080
2080
2080
2080
2080
2080
2080
2080
71E0
ENDCHAR
STARTCHAR 00D4
ENCODING 212
SWIDTH 528 0
DWIDTH 11 0
BBX 11 14 0 -3
BITMAP
EF00
3080
2080
2080
2080
2080
2080
2080
2080
2080
21E0
2000
A000
C000
ENDCHAR
STARTCHAR 00D5
ENCODING 213
SWIDTH 528 0
DWIDTH 11 0
BBX 9 14 0 -3
BITMAP
EE00
3100
2080
2080
2080
2080
2080
2080
2080
7080
0080
3100
2100
1E00
ENDCHAR
STARTCHAR 00D6
ENCODING 214
SWIDTH 528 0
DWIDTH 11 0
BBX 8 11 1 0
BITMAP
EE
31
23
20
20
20
20
20
20
20
F8
ENDCHAR
STARTCHAR 00D7
ENCODING 215
SWIDTH 1008 0
DWIDTH 21 0
BBX 11 11 5 2
BITMAP
8020
4040
2080
1100
0E00
0E00
1100
1100
2080
4040
8020
ENDCHAR
STARTCHAR 00D8
ENCODING 216
SWIDTH 528 0
DWIDTH 11 0
BBX 8 11 1 0
BITMAP
1F
04
04
04
04
04
04
04
C4
8C
77
ENDCHAR
STARTCHAR 00D9
ENCODING 217
SWIDTH 528 0
DWIDTH 11 0
BBX 8 18 1 -3
BITMAP
03
03
00
00
1F
01
01
01
01
01
01
01
01
01
01
C1
82
7C
ENDCHAR
STARTCHAR 00DA
ENCODING 218
SWIDTH 528 0
DWIDTH 11 0
BBX 8 15 1 0
BITMAP
78
08
08
08
08
08
08
08
08
08
08
08
08
08
FF
ENDCHAR
STARTCHAR 00DB
ENCODING 219
SWIDTH 528 0
DWIDTH 11 0
BBX 11 14 0 0
BITMAP
0380
0460
04E0
0800
0800
1400
1400
1600
1200
2200
2100
4100
4100
E3E0
ENDCHAR
STARTCHAR 00DC
ENCODING 220
SWIDTH 528 0
DWIDTH 11 0
BBX 9 11 0 0
BITMAP
F800
2000
2000
2000
2000
2000
2000
2080
2080
2080
FF80
ENDCHAR
STARTCHAR 00DD
ENCODING 221
SWIDTH 528 0
DWIDTH 11 0
BBX 11 14 0 -3
BITMAP
F3E0
4100
4100
4100
4100
4100
4100
4100
4300
3D00
0100
0100
0100
01E0
ENDCHAR
STARTCHAR 00DE
ENCODING 222
SWIDTH 528 0
DWIDTH 11 0
BBX 9 11 0 0
BITMAP
E780
4100
4900
4900
4900
4900
5D00
5500
5500
2200
2200
ENDCHAR
STARTCHAR 00DF
ENCODING 223
SWIDTH 528 0
DWIDTH 11 0
BBX 9 11 0 0
BITMAP
2200
2200
5500
5500
5500
5D00
4900
4900
4900
4100
F380
ENDCHAR
STARTCHAR 00F0
ENCODING 240
SWIDTH 528 0
DWIDTH 11 0
BBX 1 4 5 10
BITMAP
80
80
80
80
ENDCHAR
STARTCHAR 00F1
ENCODING 241
SWIDTH 528 0
DWIDTH 11 0
BBX 1 4 5 -3
BITMAP
80
80
80
80
ENDCHAR
STARTCHAR 00F2
ENCODING 242
SWIDTH 528 0
DWIDTH 11 0
BBX 5 13 2 -1
BITMAP
F8
70
20
20
00
00
00
00
00
20
20
70
F8
ENDCHAR
STARTCHAR 00F7
ENCODING 247
SWIDTH 1008 0
DWIDTH 21 0
BBX 14 12 4 2
BITMAP
0700
0700
0000
0000
0000
FFFC
0000
0000
0000
0000
0700
0700
ENDCHAR
STARTCHAR 0391
ENCODING 913
SWIDTH 1008 0
DWIDTH 21 0
BBX 16 17 2 -1
BITMAP
0180
0180
03C0
02C0
02C0
04E0
0420
0430
0810
0810
0810
1FF8
1008
100C
2004
2004
F81F
ENDCHAR
STARTCHAR 0392
ENCODING 914
SWIDTH 1008 0
DWIDTH 21 0
BBX 13 17 4 -1
BITMAP
FFC0
2020
2010
2010
2010
2020
2040
3FC0
2020
2030
2010
2008
2008
2008
2008
2010
FFE0
ENDCHAR
STARTCHAR 0393
ENCODING 915
SWIDTH 1008 0
DWIDTH 21 0
BBX 13 17 5 -1
BITMAP
FFF8
2008
2008
2008
2000
2000
2000
2000
2000
2000
2000
2000
2000
2000
2000
2000
FC00
ENDCHAR
STARTCHAR 0394
ENCODING 916
SWIDTH 1008 0
DWIDTH 21 0
BBX 16 17 2 -1
BITMAP
0180
0180
03C0
02C0
04E0
0420
0430
0810
0818
1018
1008
100C
2004
2006
4002
4003
FFFF
ENDCHAR
STARTCHAR 0395
ENCODING 917
SWIDTH 1008 0
DWIDTH 21 0
BBX 13 17 4 -1
BITMAP
FFF8
2008
2008
2008
2080
2080
2080
3F80
2080
2080
2080
2080
2000
2008
2008
2008
FFF8
ENDCHAR
STARTCHAR 0396
ENCODING 918
SWIDTH 1008 0
DWIDTH 21 0
BBX 14 17 3 -1
BITMAP
7FFC
4018
4030
4020
0060
01C0
0180
0380
0700
0400
0400
0C00
1800
1004
3004
6004
FFFC
ENDCHAR
STARTCHAR 0397
ENCODING 919
SWIDTH 1008 0
DWIDTH 21 0
BBX 15 17 3 -1
BITMAP
F83E
2008
2008
2008
2008
2008
2008
3FF8
2008
2008
2008
2008
2008
2008
2008
2008
F83E
ENDCHAR
STARTCHAR 0398
ENCODING 920
SWIDTH 1008 0
DWIDTH 21 0
BBX 15 17 3 -1
BITMAP
07C0
1830
2008
4004
4004
8822
8822
8FE2
8822
8822
8822
8822
4004
4004
2008
1830
07C0
ENDCHAR
STARTCHAR 0399
ENCODING 921
SWIDTH 1008 0
DWIDTH 21 0
BBX 8 17 7 -1
BITMAP
FF
18
18
18
18
18
18
18
18
18
18
18
18
18
18
18
FF
ENDCHAR
STARTCHAR 039A
ENCODING 922
SWIDTH 1008 0
DWIDTH 21 0
BBX 15 17 4 -1
BITMAP
F8FC
2010
2020
2040
2080
2300
2600
3800
2E00
2F00
2700
2380
20C0
2060
2030
2018
F87E
ENDCHAR
STARTCHAR 039B
ENCODING 923
SWIDTH 1008 0
DWIDTH 21 0
BBX 16 17 2 -1
BITMAP
0180
0180
03C0
02C0
02E0
0420
0420
0430
0810
0818
0818
1808
1008
100C
2004
2004
F81F
ENDCHAR
STARTCHAR 039C
ENCODING 924
SWIDTH 1008 0
DWIDTH 21 0
BBX 19 17 1 -1
BITMAP
E001E0
200180
300280
300280
380480
280480
2C0880
240880
261080
261080
221080
236080
216080
21C080
20C080
20C080
F803E0
ENDCHAR
STARTCHAR 039D
ENCODING 925
SWIDTH 1008 0
DWIDTH 21 0
BBX 16 17 2 -1
BITMAP
701F
3804
2804
2C04
2604
2204
2384
21C4
20C4
20E4
20E4
2034
2014
201C
200C
2004
F804
ENDCHAR
STARTCHAR 039E
ENCODING 926
SWIDTH 1008 0
DWIDTH 21 0
BBX 14 17 4 -1
BITMAP
FFFC
8004
8004
8004
0000
1020
1020
1FE0
1020
1020
1020
0000
8004
8004
8004
8004
FFFC
ENDCHAR
STARTCHAR 039F
ENCODING 927
SWIDTH 1008 0
DWIDTH 21 0
BBX 15 17 3 -1
BITMAP
07C0
1830
2008
4004
4004
C002
8002
8002
8002
8002
8002
8006
4004
4004
2008
1830
07C0
ENDCHAR
STARTCHAR 03A0
ENCODING 928
SWIDTH 1008 0
DWIDTH 21 0
BBX 14 17 4 -1
BITMAP
FFFC
2010
2010
2010
2010
2010
2010
2010
2010
2010
2010
2010
2010
2010
2010
2010
F87C
ENDCHAR
STARTCHAR 03A1
ENCODING 929
SWIDTH 1008 0
DWIDTH 21 0
BBX 13 17 5 -1
BITMAP
FFE0
2010
2008
2008
2008
2008
2010
3FE0
2000
2000
2000
2000
2000
2000
2000
2000
FC00
ENDCHAR
STARTCHAR 03A3
ENCODING 931
SWIDTH 1008 0
DWIDTH 21 0
BBX 14 17 3 -1
BITMAP
FFFC
6004
3004
1804
0C00
0700
0380
01C0
0300
0400
0400
0800
1004
2004
4004
8004
FFFC
ENDCHAR
STARTCHAR 03A4
ENCODING 932
SWIDTH 1008 0
DWIDTH 21 0
BBX 16 17 3 -1
BITMAP
FFFF
8181
8181
8181
0180
0180
0180
0180
0180
0180
0180
0180
0180
0180
0180
0180
07E0
ENDCHAR
STARTCHAR 03A5
ENCODING 933
SWIDTH 1008 0
DWIDTH 21 0
BBX 18 17 2 -1
BITMAP
0E1C00
31A300
40C080
40C080
80C040
80C040
00C000
00C000
00C000
00C000
00C000
00C000
00C000
00C000
00C000
00C000
07F800
ENDCHAR
STARTCHAR 03A6
ENCODING 934
SWIDTH 1008 0
DWIDTH 21 0
BBX 16 17 3 -1
BITMAP
07E0
0180
0180
0FF0
318C
4182
8181
8181
8181
8181
8181
4182
318C
0FF0
0180
0180
07E0
ENDCHAR
STARTCHAR 03A7
ENCODING 935
SWIDTH 1008 0
DWIDTH 21 0
BBX 16 17 3 -1
BITMAP
F83E
2008
3008
1810
0820
0C40
0740
0380
03C0
07C0
0440
0860
0830
1010
2018
200C
F83F
ENDCHAR
STARTCHAR 03A8
ENCODING 936
SWIDTH 1008 0
DWIDTH 21 0
BBX 18 17 2 -1
BITMAP
03F000
70C380
88C440
08C400
08C400
08C400
08C400
08C400
04C800
04C800
04C800
03F000
00C000
00C000
00C000
00C000
03F000
ENDCHAR
STARTCHAR 03A9
ENCODING 937
SWIDTH 1008 0
DWIDTH 21 0
BBX 15 17 3 -1
BITMAP
0FE0
3018
4004
4004
8002
8002
8002
4004
4004
6008
2008
1010
8822
8442
8442
8442
FC7E
ENDCHAR
STARTCHAR 03B1
ENCODING 945
SWIDTH 1008 0
DWIDTH 21 0
BBX 13 11 4 0
BITMAP
0F18
1090
2090
40A0
40A0
40A0
80C0
8080
8348
4650
3820
ENDCHAR
STARTCHAR 03B2
ENCODING 946
SWIDTH 1008 0
DWIDTH 21 0
BBX 14 20 3 -3
BITMAP
0078
0184
0304
0304
0404
0408
09D0
0820
1010
1008
2008
2008
2008
2008
4010
4810
C7E0
8000
8000
8000
ENDCHAR
STARTCHAR 03B3
ENCODING 947
SWIDTH 1008 0
DWIDTH 21 0
BBX 14 13 3 -3
BITMAP
3C0C
4318
8310
8330
0320
0340
0380
0300
0400
0400
0C00
0800
0800
ENDCHAR
STARTCHAR 03B4
ENCODING 948
SWIDTH 1008 0
DWIDTH 21 0
BBX 13 17 4 0
BITMAP
0F80
1060
1010
0818
0608
0300
0780
1840
2040
4020
8020
8020
8020
8040
8040
4380
3E00
ENDCHAR
STARTCHAR 03B5
ENCODING 949
SWIDTH 1008 0
DWIDTH 21 0
BBX 11 11 5 0
BITMAP
1FC0
2020
4000
2000
3F80
1F80
6000
8000
8000
6060
1F80
ENDCHAR
STARTCHAR 03B6
ENCODING 950
SWIDTH 1008 0
DWIDTH 21 0
BBX 11 20 5 -3
BITMAP
2000
4020
8060
8080
7F00
0600
0C00
1000
2000
4000
8000
8000
8000
6000
1C00
0700
0080
0080
0080
0F00
ENDCHAR
STARTCHAR 03B7
ENCODING 951
SWIDTH 1008 0
DWIDTH 21 0
BBX 13 14 4 -3
BITMAP
70E0
8B10
0E08
1808
1018
1010
2010
2020
4020
4040
C040
0080
0080
0380
ENDCHAR
STARTCHAR 03B8
ENCODING 952
SWIDTH 1008 0
DWIDTH 21 0
BBX 12 17 5 0
BITMAP
01C0
0E20
1010
1010
2010
4010
4010
7FF0
8020
8020
8020
8020
8040
8080
8080
4700
3C00
ENDCHAR
STARTCHAR 03B9
ENCODING 953
SWIDTH 1008 0
DWIDTH 21 0
BBX 11 11 5 0
BITMAP
1000
1000
2000
2000
4000
4000
4020
8040
8080
4700
3C00
ENDCHAR
STARTCHAR 03BA
ENCODING 954
SWIDTH 1008 0
DWIDTH 21 0
BBX 12 11 4 0
BITMAP
1060
1090
2310
2600
2600
3E00
4600
4600
4610
8320
80C0
ENDCHAR
STARTCHAR 03BB
ENCODING 955
SWIDTH 1008 0
DWIDTH 21 0
BBX 13 17 4 0
BITMAP
0700
0080
0080
0080
0080
0080
0380
06C0
0640
0840
1040
1040
1020
2020
2030
4010
C018
ENDCHAR
STARTCHAR 03BC
ENCODING 956
SWIDTH 1008 0
DWIDTH 21 0
BBX 15 14 3 -3
BITMAP
1810
1010
1010
1020
2020
2020
2020
2040
6042
51A4
4F18
4000
8000
8000
ENDCHAR
STARTCHAR 03BD
ENCODING 957
SWIDTH 1008 0
DWIDTH 21 0
BBX 13 11 4 0
BITMAP
6008
2008
1010
1010
2020
2020
2040
4080
4700
D800
6000
ENDCHAR
STARTCHAR 03BE
ENCODING 958
SWIDTH 1008 0
DWIDTH 21 0
BBX 12 20 4 -3
BITMAP
00F0
0300
0600
0300
0FF0
1000
2000
1000
0FF0
7000
8000
8000
8000
4000
3E00
03C0
0020
0020
00C0
3F00
ENDCHAR
STARTCHAR 03BF
ENCODING 959
SWIDTH 1008 0
DWIDTH 21 0
BBX 11 11 5 0
BITMAP
0F80
3040
4020
4020
8020
8020
8020
8040
8040
4180
3E00
ENDCHAR
STARTCHAR 03C0
ENCODING 960
SWIDTH 1008 0
DWIDTH 21 0
BBX 13 12 4 0
BITMAP
0008
7FF0
8840
1040
1080
2080
2080
2300
2300
4308
4310
C0E0
ENDCHAR
STARTCHAR 03C1
ENCODING 961
SWIDTH 1008 0
DWIDTH 21 0
BBX 13 14 4 -3
BITMAP
03E0
0610
0808
1008
1008
1008
2008
2010
2010
6860
4780
4000
4000
C000
ENDCHAR
STARTCHAR 03C3
ENCODING 963
SWIDTH 1008 0
DWIDTH 21 0
BBX 13 13 5 0
BITMAP
0010
0018
0FF0
3080
4040
4020
8020
8020
8040
8040
8080
4100
3E00
ENDCHAR
STARTCHAR 03C4
ENCODING 964
SWIDTH 1008 0
DWIDTH 21 0
BBX 13 12 4 0
BITMAP
0008
7FF0
8600
0800
0800
1000
1000
1000
2020
2040
1380
0E00
ENDCHAR
STARTCHAR 03C5
ENCODING 965
SWIDTH 1008 0
DWIDTH 21 0
BBX 11 11 5 0
BITMAP
C040
2020
2020
4020
8020
8020
8040
8040
8080
4700
3C00
ENDCHAR
STARTCHAR 03C6
ENCODING 966
SWIDTH 1008 0
DWIDTH 21 0
BBX 13 20 4 -3
BITMAP
0060
0040
0040
0080
0080
0080
1FE0
6310
4308
8308
8208
8608
8610
4630
3FC0
0800
0800
1000
1000
3000
ENDCHAR
STARTCHAR 03C7
ENCODING 967
SWIDTH 1008 0
DWIDTH 21 0
BBX 14 14 3 -3
BITMAP
1C0C
2318
0310
0320
0340
0340
0380
0300
0700
0B00
1300
2300
4188
8070
ENDCHAR
STARTCHAR 03C8
ENCODING 968
SWIDTH 1008 0
DWIDTH 21 0
BBX 13 20 4 -3
BITMAP
0030
0020
0020
0040
0040
0040
6088
9088
1088
1308
3318
2310
4310
4620
2640
1F80
0800
0800
0800
1800
ENDCHAR
STARTCHAR 03C9
ENCODING 969
SWIDTH 1008 0
DWIDTH 21 0
BBX 16 11 3 0
BITMAP
1804
2182
4182
4181
8381
8301
8302
8302
8704
4988
3070
ENDCHAR
STARTCHAR 0401
ENCODING 1025
SWIDTH 1008 0
DWIDTH 21 0
BBX 14 19 4 -1
BITMAP
3060
3060
0000
FFF8
2008
2004
2004
2080
2080
2080
3E80
2280
2380
2080
2080
2004
2004
2008
FFF8
ENDCHAR
STARTCHAR 0410
ENCODING 1040
SWIDTH 1008 0
DWIDTH 21 0
BBX 16 17 2 -1
BITMAP
0180
0180
03C0
02C0
02C0
04E0
0420
0430
0810
0810
0810
1FF8
1008
100C
2004
2004
F81F
ENDCHAR
STARTCHAR 0411
ENCODING 1041
SWIDTH 1008 0
DWIDTH 21 0
BBX 13 17 4 -1
BITMAP
FFF0
2010
2010
2010
2000
2000
2000
3FE0
2010
2018
2008
2008
2008
2008
2008
2010
FFE0
ENDCHAR
STARTCHAR 0412
ENCODING 1042
SWIDTH 1008 0
DWIDTH 21 0
BBX 13 17 4 -1
BITMAP
FFC0
2020
2010
2010
2010
2020
2040
3FC0
2020
2030
2010
2008
2008
2008
2008
2010
FFE0
ENDCHAR
STARTCHAR 0413
ENCODING 1043
SWIDTH 1008 0
DWIDTH 21 0
BBX 13 17 5 -1
BITMAP
FFF0
2010
2008
2008
2000
2000
2000
2000
2000
2000
2000
2000
2000
2000
2000
2000
FC00
ENDCHAR
STARTCHAR 0414
ENCODING 1044
SWIDTH 1008 0
DWIDTH 21 0
BBX 16 19 2 -3
BITMAP
0FFF
0204
0204
0204
0204
0204
0404
0404
0404
0804
0804
0804
0804
1004
1004
2004
FFFF
8001
8001
ENDCHAR
STARTCHAR 0415
ENCODING 1045
SWIDTH 1008 0
DWIDTH 21 0
BBX 14 17 4 -1
BITMAP
FFF8
2008
2004
2004
2080
2080
2080
3F80
2080
2080
2080
2080
2004
2004
2004
2008
FFF8
ENDCHAR
STARTCHAR 0416
ENCODING 1046
SWIDTH 1008 0
DWIDTH 21 0
BBX 18 17 2 -1
BITMAP
63F180
90C240
D0C2C0
08C400
08C400
08C400
04C800
03F000
02D000
06D800
04C800
04C800
08C400
08C400
10C200
20C100
F9E7C0
ENDCHAR
STARTCHAR 0417
ENCODING 1047
SWIDTH 1008 0
DWIDTH 21 0
BBX 13 17 4 -1
BITMAP
3FC0
4020
8010
8018
0018
0010
0020
0FC0
0020
0030
0010
0018
0008
8018
8010
4020
3FC0
ENDCHAR
STARTCHAR 0418
ENCODING 1048
SWIDTH 1008 0
DWIDTH 21 0
BBX 16 17 3 -1
BITMAP
F01F
200C
2014
2024
2024
2044
2184
2184
2304
2304
2304
2404
2804
2804
3004
2004
F81F
ENDCHAR
STARTCHAR 0419
ENCODING 1049
SWIDTH 1008 0
DWIDTH 21 0
BBX 16 19 3 -1
BITMAP
0C60
0820
07C0
F01F
2004
200C
2014
2024
2044
2044
2184
2104
2304
2304
2404
2804
3004
2004
F81F
ENDCHAR
STARTCHAR 041A
ENCODING 1050
SWIDTH 1008 0
DWIDTH 21 0
BBX 15 17 4 -1
BITMAP
F818
2024
204C
2080
2080
2300
2600
3800
2600
2700
2300
2080
2040
2020
2010
2018
F83E
ENDCHAR
STARTCHAR 041B
ENCODING 1051
SWIDTH 1008 0
DWIDTH 21 0
BBX 16 17 2 -1
BITMAP
0FFF
0204
0204
0204
0204
0204
0204
0204
0404
0404
0404
0404
0404
0804
C804
9004
601F
ENDCHAR
STARTCHAR 041C
ENCODING 1052
SWIDTH 1008 0
DWIDTH 21 0
BBX 20 17 1 -1
BITMAP
7801E0
180180
1C0180
140280
140280
160480
120480
130880
1108C0
31D0C0
21D040
20D040
20E040
206040
206040
200040
F801F0
ENDCHAR
STARTCHAR 041D
ENCODING 1053
SWIDTH 1008 0
DWIDTH 21 0
BBX 16 17 3 -1
BITMAP
F81F
2004
2004
2004
2004
2004
2004
3FFC
2004
2004
2004
2004
2004
2004
2004
2004
F81F
ENDCHAR
STARTCHAR 041E
ENCODING 1054
SWIDTH 1008 0
DWIDTH 21 0
BBX 15 17 3 -1
BITMAP
07C0
1830
2008
4004
4004
C002
8002
8002
8002
8002
8002
8006
4004
4004
2008
1830
07C0
ENDCHAR
STARTCHAR 041F
ENCODING 1055
SWIDTH 1008 0
DWIDTH 21 0
BBX 15 17 3 -1
BITMAP
FFFE
2008
2008
2008
2008
2008
2008
2008
2008
2008
2008
2008
2008
2008
2008
2008
F83E
ENDCHAR
STARTCHAR 0420
ENCODING 1056
SWIDTH 1008 0
DWIDTH 21 0
BBX 13 17 4 -1
BITMAP
FFE0
2010
2008
2008
2008
2008
2010
3FE0
2000
2000
2000
2000
2000
2000
2000
2000
F800
ENDCHAR
STARTCHAR 0421
ENCODING 1057
SWIDTH 1008 0
DWIDTH 21 0
BBX 15 17 3 -1
BITMAP
0FF0
100C
2004
4004
4002
8000
8000
8000
8000
8000
8000
8000
4000
4002
2004
1018
0FE0
ENDCHAR
STARTCHAR 0422
ENCODING 1058
SWIDTH 1008 0
DWIDTH 21 0
BBX 16 17 3 -1
BITMAP
FFFF
8181
8181
8181
0180
0180
0180
0180
0180
0180
0180
0180
0180
0180
0180
0180
07E0
ENDCHAR
STARTCHAR 0423
ENCODING 1059
SWIDTH 1008 0
DWIDTH 21 0
BBX 16 17 3 -1
BITMAP
FC1F
2004
3004
1008
1808
0810
0C10
0420
0720
0740
0340
01C0
0180
C180
C300
8400
7800
ENDCHAR
STARTCHAR 0424
ENCODING 1060
SWIDTH 1008 0
DWIDTH 21 0
BBX 16 17 3 -1
BITMAP
07E0
0180
0180
0FF0
318C
4182
8181
8181
8181
8181
8181
4182
318C
0FF0
0180
0180
07E0
ENDCHAR
STARTCHAR 0425
ENCODING 1061
SWIDTH 1008 0
DWIDTH 21 0
BBX 15 17 4 -1
BITMAP
F83E
2008
3010
1020
1820
0E40
0680
0700
0380
07C0
06C0
0840
0860
1030
2010
2018
F83E
ENDCHAR
STARTCHAR 0426
ENCODING 1062
SWIDTH 1008 0
DWIDTH 21 0
BBX 15 19 3 -3
BITMAP
F83E
2008
2008
2008
2008
2008
2008
2008
2008
2008
2008
2008
2008
2008
2008
2008
FFFE
0002
0002
ENDCHAR
STARTCHAR 0427
ENCODING 1063
SWIDTH 1008 0
DWIDTH 21 0
BBX 15 17 4 -1
BITMAP
F83E
2008
2008
2008
2008
2008
2008
2008
2038
3078
1048
0F88
0008
0008
0008
0008
003E
ENDCHAR
STARTCHAR 0428
ENCODING 1064
SWIDTH 1008 0
DWIDTH 21 0
BBX 20 17 1 -1
BITMAP
F9F9F0
206040
206040
206040
206040
206040
206040
206040
206040
206040
206040
206040
206040
206040
206040
206040
FFFFF0
ENDCHAR
STARTCHAR 0429
ENCODING 1065
SWIDTH 1008 0
DWIDTH 21 0
BBX 20 19 1 -3
BITMAP
F9F9F0
206040
206040
206040
206040
206040
206040
206040
206040
206040
206040
206040
206040
206040
206040
206040
FFFFF0
000010
000010
ENDCHAR
STARTCHAR 042A
ENCODING 1066
SWIDTH 1008 0
DWIDTH 21 0
BBX 16 17 2 -1
BITMAP
FF80
8400
8400
8400
0400
0400
0400
07FC
0402
0403
0401
0401
0401
0401
0401
0402
1FFC
ENDCHAR
STARTCHAR 042B
ENCODING 1067
SWIDTH 1008 0
DWIDTH 21 0
BBX 18 17 2 -1
BITMAP
F807C0
200100
200100
200100
200100
200100
200100
3FC100
202100
203100
201100
201100
201100
201100
202100
202100
FFC7C0
ENDCHAR
STARTCHAR 042C
ENCODING 1068
SWIDTH 1008 0
DWIDTH 21 0
BBX 13 17 4 -1
BITMAP
F800
2000
2000
2000
2000
2000
2000
3FE0
2010
2018
2008
2008
2008
2008
2008
2030
FFC0
ENDCHAR
STARTCHAR 042D
ENCODING 1069
SWIDTH 1008 0
DWIDTH 21 0
BBX 14 17 4 -1
BITMAP
1FC0
6030
8008
0008
0004
0004
1E04
231C
00E4
00E4
0004
0004
0004
0008
8008
6030
1FC0
ENDCHAR
STARTCHAR 042E
ENCODING 1070
SWIDTH 1008 0
DWIDTH 21 0
BBX 18 17 2 -1
BITMAP
F81E00
202100
20C080
20C080
218040
218040
218040
3F8040
218040
218040
218040
218040
218040
20C080
20C080
202100
F81E00
ENDCHAR
STARTCHAR 042F
ENCODING 1071
SWIDTH 1008 0
DWIDTH 21 0
BBX 16 17 3 -1
BITMAP
0FFF
1004
2004
2004
2004
2004
1004
0FFC
0304
0304
0304
0404
0404
0804
1004
2004
C01F
ENDCHAR
STARTCHAR 0430
ENCODING 1072
SWIDTH 1008 0
DWIDTH 21 0
BBX 12 12 5 -1
BITMAP
1F00
6080
4040
C040
C040
07C0
3C40
4040
8040
8040
41D0
3E60
ENDCHAR
STARTCHAR 0431
ENCODING 1073
SWIDTH 1008 0
DWIDTH 21 0
BBX 11 18 5 -1
BITMAP
0020
00C0
0F00
3000
4000
4000
9F80
E040
8040
8020
8020
8020
8020
8020
8020
4040
6080
1F00
ENDCHAR
STARTCHAR 0432
ENCODING 1074
SWIDTH 1008 0
DWIDTH 21 0
BBX 10 12 6 -1
BITMAP
FF00
2080
2040
2040
20C0
2080
3F80
2040
2040
2040
2040
FF80
ENDCHAR
STARTCHAR 0433
ENCODING 1075
SWIDTH 1008 0
DWIDTH 21 0
BBX 10 12 6 -1
BITMAP
FFC0
2040
2040
2040
2040
2000
2000
2000
2000
2000
2000
FC00
ENDCHAR
STARTCHAR 0434
ENCODING 1076
SWIDTH 1008 0
DWIDTH 21 0
BBX 13 14 4 -3
BITMAP
3FF8
0820
0820
0820
0820
0820
1020
1020
1020
2020
2020
FFF8
8008
8008
ENDCHAR
STARTCHAR 0435
ENCODING 1077
SWIDTH 1008 0
DWIDTH 21 0
BBX 10 12 6 -1
BITMAP
3F00
4080
8040
8040
8040
FFC0
8000
8000
8000
8040
4080
3F00
ENDCHAR
STARTCHAR 0436
ENCODING 1078
SWIDTH 1008 0
DWIDTH 21 0
BBX 18 12 2 -1
BITMAP
33F300
48C480
64C980
04C800
06D800
02D000
03F000
04C800
08C400
10C200
20C100
FBF7C0
ENDCHAR
STARTCHAR 0437
ENCODING 1079
SWIDTH 1008 0
DWIDTH 21 0
BBX 10 12 6 -1
BITMAP
3F00
4080
8040
0040
00C0
0080
0F00
0080
0040
8040
4080
3F00
ENDCHAR
STARTCHAR 0438
ENCODING 1080
SWIDTH 1008 0
DWIDTH 21 0
BBX 13 12 5 -1
BITMAP
FCF8
2060
20A0
2120
2120
2120
2620
2C20
2C20
3020
2020
FCF8
ENDCHAR
STARTCHAR 0439
ENCODING 1081
SWIDTH 1008 0
DWIDTH 21 0
BBX 13 16 5 -1
BITMAP
3CE0
2020
1FC0
0000
FCF8
2060
20A0
2120
2120
2120
2620
2C20
2C20
3020
2020
F0F8
ENDCHAR
STARTCHAR 043A
ENCODING 1082
SWIDTH 1008 0
DWIDTH 21 0
BBX 12 12 5 -1
BITMAP
FC60
20B0
2120
2100
2200
2600
3C00
2600
2100
2080
2040
F1F0
ENDCHAR
STARTCHAR 043B
ENCODING 1083
SWIDTH 1008 0
DWIDTH 21 0
BBX 13 12 4 -1
BITMAP
1FF8
0620
0620
0620
0620
0620
0620
0820
0820
4820
D020
60F8
ENDCHAR
STARTCHAR 043C
ENCODING 1084
SWIDTH 1008 0
DWIDTH 21 0
BBX 17 12 2 -1
BITMAP
3E3F00
080C00
081C00
141400
143400
142400
122400
12C600
21C200
218200
218200
F80F80
ENDCHAR
STARTCHAR 043D
ENCODING 1085
SWIDTH 1008 0
DWIDTH 21 0
BBX 13 12 4 -1
BITMAP
F8F8
2020
2020
2020
2020
2020
3FE0
2020
2020
2020
2020
F8F8
ENDCHAR
STARTCHAR 043E
ENCODING 1086
SWIDTH 1008 0
DWIDTH 21 0
BBX 10 12 6 -1
BITMAP
3F00
4080
8040
8040
8040
8040
8040
8040
8040
8040
4080
3F00
ENDCHAR
STARTCHAR 043F
ENCODING 1087
SWIDTH 1008 0
DWIDTH 21 0
BBX 13 12 4 -1
BITMAP
FFF8
2020
2020
2020
2020
2020
2020
2020
2020
2020
2020
F8F8
ENDCHAR
STARTCHAR 0440
ENCODING 1088
SWIDTH 1008 0
DWIDTH 21 0
BBX 12 14 5 -3
BITMAP
EF80
3060
2020
2010
2010
2010
2010
2010
2020
3060
2F80
2000
2000
FC00
ENDCHAR
STARTCHAR 0441
ENCODING 1089
SWIDTH 1008 0
DWIDTH 21 0
BBX 10 12 6 -1
BITMAP
3F00
4080
8040
80C0
80C0
8000
8000
8000
8000
8040
4080
3F00
ENDCHAR
STARTCHAR 0442
ENCODING 1090
SWIDTH 1008 0
DWIDTH 21 0
BBX 12 12 5 -1
BITMAP
FFF0
8610
8610
8610
8610
0600
0600
0600
0600
0600
0600
1F80
ENDCHAR
STARTCHAR 0443
ENCODING 1091
SWIDTH 1008 0
DWIDTH 21 0
BBX 13 14 4 -3
BITMAP
7878
2020
2020
1040
1040
1040
0880
0880
0700
0700
0600
C600
8800
7000
ENDCHAR
STARTCHAR 0444
ENCODING 1092
SWIDTH 1008 0
DWIDTH 21 0
BBX 14 20 4 -3
BITMAP
0300
0F00
0300
0300
0300
0300
3B70
4788
8304
8304
8304
8304
8304
8304
4788
3B70
0300
0300
0300
0FC0
ENDCHAR
STARTCHAR 0445
ENCODING 1093
SWIDTH 1008 0
DWIDTH 21 0
BBX 13 12 4 -1
BITMAP
F8F8
2020
3040
1880
1F80
0F00
0700
0780
08C0
1060
2020
F8F8
ENDCHAR
STARTCHAR 0446
ENCODING 1094
SWIDTH 1008 0
DWIDTH 21 0
BBX 13 14 5 -3
BITMAP
FCF8
2020
2020
2020
2020
2020
2020
2020
2020
2020
2020
FFF8
0008
0008
ENDCHAR
STARTCHAR 0447
ENCODING 1095
SWIDTH 1008 0
DWIDTH 21 0
BBX 13 12 4 -1
BITMAP
F8F8
2020
2020
2020
2020
2020
2020
20E0
1F20
0020
0020
00F8
ENDCHAR
STARTCHAR 0448
ENCODING 1096
SWIDTH 1008 0
DWIDTH 21 0
BBX 18 12 2 -1
BITMAP
FBF7C0
20C100
20C100
20C100
20C100
20C100
20C100
20C100
20C100
20C100
20C100
FFFFC0
ENDCHAR
STARTCHAR 0449
ENCODING 1097
SWIDTH 1008 0
DWIDTH 21 0
BBX 18 14 2 -3
BITMAP
FBF7C0
20C100
20C100
20C100
20C100
20C100
20C100
20C100
20C100
20C100
20C100
FFFFC0
000040
000040
ENDCHAR
STARTCHAR 044A
ENCODING 1098
SWIDTH 1008 0
DWIDTH 21 0
BBX 14 12 4 -1
BITMAP
FF80
8600
8600
8600
8600
0600
07F0
0608
0604
0604
0608
1FF0
ENDCHAR
STARTCHAR 044B
ENCODING 1099
SWIDTH 1008 0
DWIDTH 21 0
BBX 16 12 3 -1
BITMAP
F81F
2004
2004
2004
2004
2004
3F04
2184
2044
2044
2184
FF1F
ENDCHAR
STARTCHAR 044C
ENCODING 1100
SWIDTH 1008 0
DWIDTH 21 0
BBX 11 12 5 -1
BITMAP
FC00
2000
2000
2000
2000
2000
3F80
2040
2020
2020
2040
FF80
ENDCHAR
STARTCHAR 044D
ENCODING 1101
SWIDTH 1008 0
DWIDTH 21 0
BBX 11 12 5 -1
BITMAP
7F00
8080
0040
0020
1C20
1CE0
2720
0020
0020
0040
8080
7F00
ENDCHAR
STARTCHAR 044E
ENCODING 1102
SWIDTH 1008 0
DWIDTH 21 0
BBX 14 12 4 -1
BITMAP
F8F0
2308
2308
2604
2604
2604
3E04
2604
2604
2308
2308
F8F0
ENDCHAR
STARTCHAR 044F
ENCODING 1103
SWIDTH 1008 0
DWIDTH 21 0
BBX 13 12 4 -1
BITMAP
1FF8
2020
4020
4020
6020
2020
1FE0
0620
0820
1020
2020
C0F8
ENDCHAR
STARTCHAR 0451
ENCODING 1105
SWIDTH 1008 0
DWIDTH 21 0
BBX 10 16 6 -1
BITMAP
6180
6180
0000
0000
3F00
4080
8040
8040
8040
FFC0
8000
8000
8000
8040
4080
3F00
ENDCHAR
STARTCHAR 2000
ENCODING 8192
SWIDTH 1008 0
DWIDTH 21 0
BBX 0 0 0 0
BITMAP
ENDCHAR
STARTCHAR 2001
ENCODING 8193
SWIDTH 1008 0
DWIDTH 21 0
BBX 0 0 0 0
BITMAP
ENDCHAR
STARTCHAR 2002
ENCODING 8194
SWIDTH 1008 0
DWIDTH 21 0
BBX 0 0 0 0
BITMAP
ENDCHAR
STARTCHAR 2003
ENCODING 8195
SWIDTH 1008 0
DWIDTH 21 0
BBX 0 0 0 0
BITMAP
ENDCHAR
STARTCHAR 2004
ENCODING 8196
SWIDTH 1008 0
DWIDTH 21 0
BBX 0 0 0 0
BITMAP
ENDCHAR
STARTCHAR 2005
ENCODING 8197
SWIDTH 1008 0
DWIDTH 21 0
BBX 0 0 0 0
BITMAP
ENDCHAR
STARTCHAR 2006
ENCODING 8198
SWIDTH 1008 0
DWIDTH 21 0
BBX 0 0 0 0
BITMAP
ENDCHAR
STARTCHAR 2007
ENCODING 8199
SWIDTH 1008 0
DWIDTH 21 0
BBX 0 0 0 0
BITMAP
ENDCHAR
STARTCHAR 2008
ENCODING 8200
SWIDTH 1008 0
DWIDTH 21 0
BBX 0 0 0 0
BITMAP
ENDCHAR
STARTCHAR 2009
ENCODING 8201
SWIDTH 1008 0
DWIDTH 21 0
BBX 0 0 0 0
BITMAP
ENDCHAR
STARTCHAR 200A
ENCODING 8202
SWIDTH 1008 0
DWIDTH 21 0
BBX 0 0 0 0
BITMAP
ENDCHAR
STARTCHAR 200B
ENCODING 8203
SWIDTH 528 0
DWIDTH 11 0
BBX 0 0 0 0
BITMAP
ENDCHAR
STARTCHAR 200C
ENCODING 8204
SWIDTH 528 0
DWIDTH 11 0
BBX 0 0 0 0
BITMAP
ENDCHAR
STARTCHAR 200D
ENCODING 8205
SWIDTH 528 0
DWIDTH 11 0
BBX 0 0 0 0
BITMAP
ENDCHAR
STARTCHAR 200E
ENCODING 8206
SWIDTH 528 0
DWIDTH 11 0
BBX 0 0 0 0
BITMAP
ENDCHAR
STARTCHAR 200F
ENCODING 8207
SWIDTH 528 0
DWIDTH 11 0
BBX 0 0 0 0
BITMAP
ENDCHAR
STARTCHAR 2010
ENCODING 8208
SWIDTH 1008 0
DWIDTH 21 0
BBX 8 1 7 8
BITMAP
FF
ENDCHAR
STARTCHAR 2014
ENCODING 8212
SWIDTH 1008 0
DWIDTH 21 0
BBX 21 1 0 8
BITMAP
FFFFF8
ENDCHAR
STARTCHAR 2015
ENCODING 8213
SWIDTH 1008 0
DWIDTH 21 0
BBX 21 1 0 8
BITMAP
FFFFF8
ENDCHAR
STARTCHAR 2016
ENCODING 8214
SWIDTH 1008 0
DWIDTH 21 0
BBX 8 21 7 -3
BITMAP
81
81
81
81
81
81
81
81
81
81
81
81
81
81
81
81
81
81
81
81
81
ENDCHAR
STARTCHAR 2018
ENCODING 8216
SWIDTH 1008 0
DWIDTH 21 0
BBX 3 5 15 13
BITMAP
20
40
C0
E0
E0
ENDCHAR
STARTCHAR 2019
ENCODING 8217
SWIDTH 1008 0
DWIDTH 21 0
BBX 3 5 2 13
BITMAP
E0
E0
60
40
80
ENDCHAR
STARTCHAR 201C
ENCODING 8220
SWIDTH 1008 0
DWIDTH 21 0
BBX 7 5 12 13
BITMAP
22
44
CC
EE
EE
ENDCHAR
STARTCHAR 201D
ENCODING 8221
SWIDTH 1008 0
DWIDTH 21 0
BBX 7 5 2 13
BITMAP
EE
EE
66
44
88
ENDCHAR
STARTCHAR 2020
ENCODING 8224
SWIDTH 1008 0
DWIDTH 21 0
BBX 12 21 4 -3
BITMAP
0600
0F00
0F00
4620
FFF0
4620
0600
0600
3FC0
1F80
0F00
0F00
0F00
0F00
0F00
0F00
0600
0600
0600
0600
0600
ENDCHAR
STARTCHAR 2021
ENCODING 8225
SWIDTH 1008 0
DWIDTH 21 0
BBX 12 21 4 -3
BITMAP
0600
0F00
0F00
4620
FFF0
4620
0F00
0F00
0F00
0600
0600
0700
0F00
0F00
0F00
4620
FFF0
4620
0F00
0F00
0600
ENDCHAR
STARTCHAR 2025
ENCODING 8229
SWIDTH 1008 0
DWIDTH 21 0
BBX 14 4 3 6
BITMAP
E01C
E01C
E01C
E01C
ENDCHAR
STARTCHAR 2026
ENCODING 8230
SWIDTH 1008 0
DWIDTH 21 0
BBX 18 4 1 6
BITMAP
E1E1C0
E1E1C0
E1E1C0
E1E1C0
ENDCHAR
STARTCHAR 2030
ENCODING 8240
SWIDTH 1008 0
DWIDTH 21 0
BBX 19 19 1 -2
BITMAP
700800
881000
881000
886000
88C000
88C000
890000
8A0000
720000
04F1C0
0D0A20
090A20
090A20
110A20
210A20
210A20
410A20
810A20
80F1C0
ENDCHAR
STARTCHAR 2032
ENCODING 8242
SWIDTH 1008 0
DWIDTH 21 0
BBX 4 7 3 10
BITMAP
30
20
60
40
40
80
80
ENDCHAR
STARTCHAR 2033
ENCODING 8243
SWIDTH 1008 0
DWIDTH 21 0
BBX 7 7 1 10
BITMAP
36
24
6C
48
48
90
90
ENDCHAR
STARTCHAR 203B
ENCODING 8251
SWIDTH 1008 0
DWIDTH 21 0
BBX 15 15 3 0
BITMAP
8382
4384
2008
1010
0820
0440
C386
C386
C446
0440
0820
1010
2008
4384
8382
ENDCHAR
STARTCHAR 203E
ENCODING 8254
SWIDTH 1008 0
DWIDTH 21 0
BBX 20 1 1 17
BITMAP
FFFFF0
ENDCHAR
STARTCHAR 2103
ENCODING 8451
SWIDTH 1008 0
DWIDTH 21 0
BBX 19 18 1 -1
BITMAP
700000
880000
881E40
88E1C0
710040
010060
020020
020000
020000
020000
020000
020000
020000
020000
010020
010020
00E0C0
001F00
ENDCHAR
STARTCHAR 212B
ENCODING 8491
SWIDTH 1008 0
DWIDTH 21 0
BBX 16 18 3 -1
BITMAP
0380
0440
0440
0380
0000
0380
0380
05C0
0440
0860
0860
0820
1030
1FF0
2018
2008
400C
F83F
ENDCHAR
STARTCHAR 2190
ENCODING 8592
SWIDTH 1008 0
DWIDTH 21 0
BBX 20 8 1 4
BITMAP
040000
080000
300000
FFFFF0
300000
380000
080000
040000
ENDCHAR
STARTCHAR 2191
ENCODING 8593
SWIDTH 1008 0
DWIDTH 21 0
BBX 8 20 6 -2
BITMAP
18
18
3C
3C
5A
99
18
18
18
18
18
18
18
18
18
18
18
18
18
18
ENDCHAR
STARTCHAR 2192
ENCODING 8594
SWIDTH 1008 0
DWIDTH 21 0
BBX 20 8 0 4
BITMAP
000200
000100
0000C0
FFFFF0
0000C0
0001C0
000100
000200
ENDCHAR
STARTCHAR 2193
ENCODING 8595
SWIDTH 1008 0
DWIDTH 21 0
BBX 8 20 6 -2
BITMAP
18
18
18
18
18
18
18
18
18
18
18
18
18
18
99
5A
3C
3C
18
18
ENDCHAR
STARTCHAR 21D2
ENCODING 8658
SWIDTH 1008 0
DWIDTH 21 0
BBX 19 12 1 2
BITMAP
000400
000200
000100
FFFF80
000040
000020
000040
FFFFC0
FFFF80
000100
000200
000400
ENDCHAR
STARTCHAR 21D4
ENCODING 8660
SWIDTH 1008 0
DWIDTH 21 0
BBX 20 12 0 2
BITMAP
040200
080100
100080
3FFFC0
400020
800010
400020
7FFFE0
3FFFC0
100080
080100
040200
ENDCHAR
STARTCHAR 2200
ENCODING 8704
SWIDTH 1008 0
DWIDTH 21 0
BBX 16 17 2 -1
BITMAP
8001
8001
4002
4002
2004
3FFC
1008
1008
0810
0810
0810
0420
0420
02C0
02C0
0180
0180
ENDCHAR
STARTCHAR 2202
ENCODING 8706
SWIDTH 1008 0
DWIDTH 21 0
BBX 11 17 4 -1
BITMAP
0780
1840
2020
0020
0020
0020
0F20
30A0
4060
4040
4040
8040
8040
8080
8080
4300
3E00
ENDCHAR
STARTCHAR 2203
ENCODING 8707
SWIDTH 1008 0
DWIDTH 21 0
BBX 11 14 5 1
BITMAP
FFE0
0020
0020
0020
0020
0020
FFE0
0020
0020
0020
0020
0020
0020
FFE0
ENDCHAR
STARTCHAR 2207
ENCODING 8711
SWIDTH 1008 0
DWIDTH 21 0
BBX 18 18 2 -2
BITMAP
FFFFC0
C00080
600080
200100
300100
100200
180200
080400
0C0400
0C0800
040800
060800
021000
039000
01A000
01E000
00C000
00C000
ENDCHAR
STARTCHAR 2208
ENCODING 8712
SWIDTH 1008 0
DWIDTH 21 0
BBX 13 12 4 2
BITMAP
0FF8
3000
4000
4000
8000
FFF8
8000
C000
4000
4000
3000
0FF8
ENDCHAR
STARTCHAR 220B
ENCODING 8715
SWIDTH 1008 0
DWIDTH 21 0
BBX 12 12 5 2
BITMAP
FF00
00C0
0020
0020
0010
FFF0
0010
0020
0020
0020
00C0
FF00
ENDCHAR
STARTCHAR 2212
ENCODING 8722
SWIDTH 1008 0
DWIDTH 21 0
BBX 15 1 3 8
BITMAP
FFFE
ENDCHAR
STARTCHAR 221A
ENCODING 8730
SWIDTH 1008 0
DWIDTH 21 0
BBX 21 21 0 -3
BITMAP
003FF8
003000
003000
003000
006000
006000
006000
006000
008000
008000
008000
108000
108000
310000
590000
890000
0D0000
060000
060000
020000
020000
ENDCHAR
STARTCHAR 221D
ENCODING 8733
SWIDTH 1008 0
DWIDTH 21 0
BBX 18 11 1 2
BITMAP
1C0F00
221080
416040
80C000
80C000
80C000
80C000
80C000
416040
221080
1C0F00
ENDCHAR
STARTCHAR 221E
ENCODING 8734
SWIDTH 1008 0
DWIDTH 21 0
BBX 19 11 1 2
BITMAP
3C0780
420840
811020
81D020
80E020
80E020
817020
817020
811020
420840
3C0780
ENDCHAR
STARTCHAR 2220
ENCODING 8736
SWIDTH 1008 0
DWIDTH 21 0
BBX 16 14 3 1
BITMAP
0004
0008
0010
0020
0040
0180
0300
0400
0800
0800
1000
2000
4000
FFFF
ENDCHAR
STARTCHAR 2225
ENCODING 8741
SWIDTH 1008 0
DWIDTH 21 0
BBX 8 21 7 -3
BITMAP
81
81
81
81
81
81
81
81
81
81
81
81
81
81
81
81
81
81
81
81
81
ENDCHAR
STARTCHAR 2227
ENCODING 8743
SWIDTH 1008 0
DWIDTH 21 0
BBX 14 15 3 0
BITMAP
0300
0300
0580
0580
0840
0840
1020
1020
2030
2010
2010
4008
4008
8004
8004
ENDCHAR
STARTCHAR 2228
ENCODING 8744
SWIDTH 1008 0
DWIDTH 21 0
BBX 14 15 3 0
BITMAP
8004
8004
4008
4008
2010
2010
1020
1020
1840
0840
0840
0580
0580
0300
0300
ENDCHAR
STARTCHAR 2229
ENCODING 8745
SWIDTH 1008 0
DWIDTH 21 0
BBX 13 16 4 -1
BITMAP
0F80
3060
4010
4010
8008
8008
8008
8008
8008
8008
8008
8008
8008
8008
8008
8008
ENDCHAR
STARTCHAR 222A
ENCODING 8746
SWIDTH 1008 0
DWIDTH 21 0
BBX 13 15 4 0
BITMAP
8008
8008
8008
8008
8008
8008
8008
8008
8008
8008
8008
4010
4010
3060
0F80
ENDCHAR
STARTCHAR 222B
ENCODING 8747
SWIDTH 1008 0
DWIDTH 21 0
BBX 7 21 7 -3
BITMAP
3C
42
86
80
80
C0
40
70
30
38
38
38
18
1C
04
06
02
02
C2
84
78
ENDCHAR
STARTCHAR 222C
ENCODING 8748
SWIDTH 1008 0
DWIDTH 21 0
BBX 14 21 3 -3
BITMAP
3838
4444
8D8C
8180
8180
C1C0
4040
6060
2020
3030
3030
3030
1010
1818
0808
0C0C
0404
0404
C5C4
8988
7070
ENDCHAR
STARTCHAR 2234
ENCODING 8756
SWIDTH 1008 0
DWIDTH 21 0
BBX 14 14 3 1
BITMAP
0780
0780
0780
0000
0000
0000
0000
0000
0000
0000
0000
E01C
E01C
E01C
ENDCHAR
STARTCHAR 2235
ENCODING 8757
SWIDTH 1008 0
DWIDTH 21 0
BBX 14 14 3 0
BITMAP
E01C
E01C
E01C
0000
0000
0000
0000
0000
0000
0000
0000
0780
0780
0780
ENDCHAR
STARTCHAR 223D
ENCODING 8765
SWIDTH 1008 0
DWIDTH 21 0
BBX 19 11 1 2
BITMAP
1C0700
200880
401040
806020
806020
80C020
80C020
80C020
410040
220080
1C0700
ENDCHAR
STARTCHAR 2252
ENCODING 8786
SWIDTH 1008 0
DWIDTH 21 0
BBX 15 14 4 1
BITMAP
3000
3000
0000
0000
FFFE
0000
0000
0000
FFFE
FFFE
0000
0000
0018
0018
ENDCHAR
STARTCHAR 2260
ENCODING 8800
SWIDTH 1008 0
DWIDTH 21 0
BBX 14 14 4 1
BITMAP
0040
0040
0080
0080
FFFC
0300
0600
0600
07FC
FFFC
0800
0800
1000
1000
ENDCHAR
STARTCHAR 2261
ENCODING 8801
SWIDTH 1008 0
DWIDTH 21 0
BBX 15 12 4 2
BITMAP
FFFE
0000
0000
0000
0000
FFFE
0000
0000
0000
0000
0000
FFFE
ENDCHAR
STARTCHAR 2266
ENCODING 8806
SWIDTH 1008 0
DWIDTH 21 0
BBX 17 15 2 0
BITMAP
000780
00F800
0F8000
F00000
F00000
0F8000
00F800
000780
000780
000000
000000
7FFF80
000000
000000
7FFF80
ENDCHAR
STARTCHAR 2267
ENCODING 8807
SWIDTH 1008 0
DWIDTH 21 0
BBX 16 15 3 0
BITMAP
E000
1F00
01F0
000F
000F
01F0
1F00
E000
E000
0000
0000
FFFF
0000
0000
FFFF
ENDCHAR
STARTCHAR 226A
ENCODING 8810
SWIDTH 1008 0
DWIDTH 21 0
BBX 19 17 1 -1
BITMAP
000820
0070C0
00C100
030600
040800
187000
20C000
C30000
C30000
E3C000
20C000
187000
040800
030600
00C100
0070C0
000820
ENDCHAR
STARTCHAR 226B
ENCODING 8811
SWIDTH 1008 0
DWIDTH 21 0
BBX 19 17 1 -1
BITMAP
820000
61C000
106000
0C1800
020400
01C300
006080
001860
001860
002080
006080
01C300
020400
0C1800
106000
61C000
820000
ENDCHAR
STARTCHAR 2282
ENCODING 8834
SWIDTH 1008 0
DWIDTH 21 0
BBX 15 13 3 1
BITMAP
0FFE
3000
4000
4000
8000
8000
8000
8000
8000
4000
4000
3000
0FFE
ENDCHAR
STARTCHAR 2283
ENCODING 8835
SWIDTH 1008 0
DWIDTH 21 0
BBX 14 13 4 1
BITMAP
FFC0
0030
0008
0008
0004
0004
0004
0004
0004
0008
0008
0030
FFC0
ENDCHAR
STARTCHAR 2286
ENCODING 8838
SWIDTH 1008 0
DWIDTH 21 0
BBX 15 14 3 1
BITMAP
0FFE
3000
4000
4000
8000
8000
4000
4000
7000
3000
0FFE
0000
0000
7FFE
ENDCHAR
STARTCHAR 2287
ENCODING 8839
SWIDTH 1008 0
DWIDTH 21 0
BBX 14 14 4 1
BITMAP
FFC0
0030
0008
0008
0004
0004
0008
0008
0010
0030
FFC0
0000
0000
FFFC
ENDCHAR
STARTCHAR 22A5
ENCODING 8869
SWIDTH 1008 0
DWIDTH 21 0
BBX 15 14 3 1
BITMAP
0300
0300
0300
0300
0300
0300
0300
0300
0300
0300
0300
0300
0300
FFFE
ENDCHAR
STARTCHAR 2312
ENCODING 8978
SWIDTH 1008 0
DWIDTH 21 0
BBX 20 4 0 14
BITMAP
03FC00
1C0380
600060
800010
ENDCHAR
STARTCHAR 2500
ENCODING 9472
SWIDTH 1008 0
DWIDTH 21 0
BBX 20 1 1 8
BITMAP
FFFFF0
ENDCHAR
STARTCHAR 2501
ENCODING 9473
SWIDTH 1008 0
DWIDTH 21 0
BBX 21 3 0 6
BITMAP
FFFFF8
FFFFF8
FFFFF8
ENDCHAR
STARTCHAR 2502
ENCODING 9474
SWIDTH 1008 0
DWIDTH 21 0
BBX 2 21 9 -3
BITMAP
C0
C0
C0
C0
C0
C0
C0
C0
C0
C0
C0
C0
C0
C0
C0
C0
C0
C0
C0
C0
C0
ENDCHAR
STARTCHAR 2503
ENCODING 9475
SWIDTH 1008 0
DWIDTH 21 0
BBX 3 21 9 -3
BITMAP
E0
E0
E0
E0
E0
E0
E0
E0
E0
E0
E0
E0
E0
E0
E0
E0
E0
E0
E0
E0
E0
ENDCHAR
STARTCHAR 250C
ENCODING 9484
SWIDTH 1008 0
DWIDTH 21 0
BBX 12 12 9 -3
BITMAP
FFF0
C000
C000
C000
C000
C000
C000
C000
C000
C000
C000
C000
ENDCHAR
STARTCHAR 250F
ENCODING 9487
SWIDTH 1008 0
DWIDTH 21 0
BBX 12 12 9 -3
BITMAP
FFF0
FFF0
E000
E000
E000
E000
E000
E000
E000
E000
E000
E000
ENDCHAR
STARTCHAR 2510
ENCODING 9488
SWIDTH 1008 0
DWIDTH 21 0
BBX 10 12 1 -3
BITMAP
FFC0
00C0
00C0
00C0
00C0
00C0
00C0
00C0
00C0
00C0
00C0
00C0
ENDCHAR
STARTCHAR 2513
ENCODING 9491
SWIDTH 1008 0
DWIDTH 21 0
BBX 12 12 0 -3
BITMAP
FFF0
FFF0
FFF0
0070
0070
0070
0070
0070
0070
0070
0070
0070
ENDCHAR
STARTCHAR 2514
ENCODING 9492
SWIDTH 1008 0
DWIDTH 21 0
BBX 12 10 9 8
BITMAP
C000
C000
C000
C000
C000
C000
C000
C000
C000
FFF0
ENDCHAR
STARTCHAR 2517
ENCODING 9495
SWIDTH 1008 0
DWIDTH 21 0
BBX 12 12 9 6
BITMAP
E000
E000
E000
E000
E000
E000
E000
E000
E000
FFF0
FFF0
FFF0
ENDCHAR
STARTCHAR 2518
ENCODING 9496
SWIDTH 1008 0
DWIDTH 21 0
BBX 10 10 1 8
BITMAP
00C0
00C0
00C0
00C0
00C0
00C0
00C0
00C0
00C0
FFC0
ENDCHAR
STARTCHAR 251B
ENCODING 9499
SWIDTH 1008 0
DWIDTH 21 0
BBX 12 12 0 6
BITMAP
0070
0070
0070
0070
0070
0070
0070
0070
0070
FFF0
FFF0
FFF0
ENDCHAR
STARTCHAR 251C
ENCODING 9500
SWIDTH 1008 0
DWIDTH 21 0
BBX 12 21 9 -3
BITMAP
C000
C000
C000
C000
C000
C000
C000
C000
C000
FFF0
C000
C000
C000
C000
C000
C000
C000
C000
C000
C000
C000
ENDCHAR
STARTCHAR 251D
ENCODING 9501
SWIDTH 1008 0
DWIDTH 21 0
BBX 12 21 9 -3
BITMAP
E000
E000
E000
E000
E000
E000
E000
E000
E000
FFF0
FFF0
E000
E000
E000
E000
E000
E000
E000
E000
E000
E000
ENDCHAR
STARTCHAR 2520
ENCODING 9504
SWIDTH 1008 0
DWIDTH 21 0
BBX 12 21 9 -3
BITMAP
E000
E000
E000
E000
E000
E000
E000
E000
E000
FFF0
FFF0
E000
E000
E000
E000
E000
E000
E000
E000
E000
E000
ENDCHAR
STARTCHAR 2523
ENCODING 9507
SWIDTH 1008 0
DWIDTH 21 0
BBX 12 21 9 -3
BITMAP
E000
E000
E000
E000
E000
E000
E000
E000
E000
FFF0
FFF0
E000
E000
E000
E000
E000
E000
E000
E000
E000
E000
ENDCHAR
STARTCHAR 2524
ENCODING 9508
SWIDTH 1008 0
DWIDTH 21 0
BBX 10 21 1 -3
BITMAP
00C0
00C0
00C0
00C0
00C0
00C0
00C0
00C0
00C0
FFC0
00C0
00C0
00C0
00C0
00C0
00C0
00C0
00C0
00C0
00C0
00C0
ENDCHAR
STARTCHAR 2525
ENCODING 9509
SWIDTH 1008 0
DWIDTH 21 0
BBX 12 21 0 -3
BITMAP
0070
0070
0070
0070
0070
0070
0070
0070
0070
FFF0
FFF0
FFF0
0070
0070
0070
0070
0070
0070
0070
0070
0070
ENDCHAR
STARTCHAR 2528
ENCODING 9512
SWIDTH 1008 0
DWIDTH 21 0
BBX 12 21 0 -3
BITMAP
0070
0070
0070
0070
0070
0070
0070
0070
0070
FFF0
FFF0
FFF0
0070
0070
0070
0070
0070
0070
0070
0070
0070
ENDCHAR
STARTCHAR 252B
ENCODING 9515
SWIDTH 1008 0
DWIDTH 21 0
BBX 12 21 0 -3
BITMAP
0070
0070
0070
0070
0070
0070
0070
0070
0070
FFF0
FFF0
FFF0
0070
0070
0070
0070
0070
0070
0070
0070
0070
ENDCHAR
STARTCHAR 252C
ENCODING 9516
SWIDTH 1008 0
DWIDTH 21 0
BBX 20 12 1 -3
BITMAP
FFFFF0
00C000
00C000
00C000
00C000
00C000
00C000
00C000
00C000
00C000
00C000
00C000
ENDCHAR
STARTCHAR 252F
ENCODING 9519
SWIDTH 1008 0
DWIDTH 21 0
BBX 21 12 0 -3
BITMAP
FFFFF8
FFFFF8
FFF000
007000
007000
007000
007000
007000
007000
007000
007000
007000
ENDCHAR
STARTCHAR 2530
ENCODING 9520
SWIDTH 1008 0
DWIDTH 21 0
BBX 21 12 0 -3
BITMAP
FFFFF8
FFFFF8
FFF000
007000
007000
007000
007000
007000
007000
007000
007000
007000
ENDCHAR
STARTCHAR 2533
ENCODING 9523
SWIDTH 1008 0
DWIDTH 21 0
BBX 21 12 0 -3
BITMAP
FFFFF8
FFFFF8
FFF000
007000
007000
007000
007000
007000
007000
007000
007000
007000
ENDCHAR
STARTCHAR 2534
ENCODING 9524
SWIDTH 1008 0
DWIDTH 21 0
BBX 20 10 1 8
BITMAP
00C000
00C000
00C000
00C000
00C000
00C000
00C000
00C000
00C000
FFFFF0
ENDCHAR
STARTCHAR 2537
ENCODING 9527
SWIDTH 1008 0
DWIDTH 21 0
BBX 21 12 0 6
BITMAP
007000
007000
007000
007000
007000
007000
007000
007000
007000
FFFFF8
FFFFF8
FFFFF8
ENDCHAR
STARTCHAR 2538
ENCODING 9528
SWIDTH 1008 0
DWIDTH 21 0
BBX 21 12 0 6
BITMAP
007000
007000
007000
007000
007000
007000
007000
007000
007000
FFFFF8
FFFFF8
FFFFF8
ENDCHAR
STARTCHAR 253B
ENCODING 9531
SWIDTH 1008 0
DWIDTH 21 0
BBX 21 12 0 6
BITMAP
007000
007000
007000
007000
007000
007000
007000
007000
007000
FFFFF8
FFFFF8
FFFFF8
ENDCHAR
STARTCHAR 253C
ENCODING 9532
SWIDTH 1008 0
DWIDTH 21 0
BBX 20 21 1 -3
BITMAP
00C000
00C000
00C000
00C000
00C000
00C000
00C000
00C000
00C000
FFFFF0
00C000
00C000
00C000
00C000
00C000
00C000
00C000
00C000
00C000
00C000
00C000
ENDCHAR
STARTCHAR 253F
ENCODING 9535
SWIDTH 1008 0
DWIDTH 21 0
BBX 21 21 0 -3
BITMAP
007000
007000
007000
007000
007000
007000
007000
007000
007000
FFFFF8
FFFFF8
FFF000
007000
007000
007000
007000
007000
007000
007000
007000
007000
ENDCHAR
STARTCHAR 2542
ENCODING 9538
SWIDTH 1008 0
DWIDTH 21 0
BBX 21 21 0 -3
BITMAP
007000
007000
007000
007000
007000
007000
007000
007000
007000
FFFFF8
FFFFF8
FFF000
007000
007000
007000
007000
007000
007000
007000
007000
007000
ENDCHAR
STARTCHAR 254B
ENCODING 9547
SWIDTH 1008 0
DWIDTH 21 0
BBX 21 21 0 -3
BITMAP
007000
007000
007000
007000
007000
007000
007000
007000
007000
FFFFF8
FFFFF8
FFF000
007000
007000
007000
007000
007000
007000
007000
007000
007000
ENDCHAR
STARTCHAR 25A0
ENCODING 9632
SWIDTH 1008 0
DWIDTH 21 0
BBX 19 19 1 -2
BITMAP
FFFFE0
FFFFE0
FFFFE0
FFFFE0
FFFFE0
FFFFE0
FFFFE0
FFFFE0
FFFFE0
FFFFE0
FFFFE0
FFFFE0
FFFFE0
FFFFE0
FFFFE0
FFFFE0
FFFFE0
FFFFE0
FFFFE0
ENDCHAR
STARTCHAR 25A1
ENCODING 9633
SWIDTH 1008 0
DWIDTH 21 0
BBX 19 19 1 -2
BITMAP
FFFFE0
800020
800020
800020
800020
800020
800020
800020
800020
800020
800020
800020
800020
800020
800020
800020
800020
800020
FFFFE0
ENDCHAR
STARTCHAR 25B2
ENCODING 9650
SWIDTH 1008 0
DWIDTH 21 0
BBX 18 18 1 -1
BITMAP
00C000
00C000
01E000
01E000
03F000
03F000
07F800
07F800
0FFC00
0FFC00
0FFE00
1FFE00
1FFE00
3FFF00
3FFF00
7FFF80
7FFF80
FFFFC0
ENDCHAR
STARTCHAR 25B3
ENCODING 9651
SWIDTH 1008 0
DWIDTH 21 0
BBX 18 18 1 -1
BITMAP
00C000
00C000
016000
016000
021000
021000
040800
040800
080400
080400
100600
100200
100200
200100
200100
400080
400080
FFFFC0
ENDCHAR
STARTCHAR 25BC
ENCODING 9660
SWIDTH 1008 0
DWIDTH 21 0
BBX 18 18 1 -2
BITMAP
FFFFC0
7FFF80
7FFF80
3FFF00
3FFF00
1FFE00
1FFE00
0FFC00
0FFC00
0FF800
07F800
07F800
03F000
03F000
01E000
01E000
00C000
00C000
ENDCHAR
STARTCHAR 25BD
ENCODING 9661
SWIDTH 1008 0
DWIDTH 21 0
BBX 18 18 1 -2
BITMAP
FFFFC0
400080
400080
200100
200100
100200
100200
080400
080400
0C0800
040800
040800
021000
021000
016000
016000
00C000
00C000
ENDCHAR
STARTCHAR 25C6
ENCODING 9670
SWIDTH 1008 0
DWIDTH 21 0
BBX 20 20 0 -2
BITMAP
006000
00F000
01F800
03FC00
07FE00
0FFF00
1FFF80
3FFFC0
7FFFE0
FFFFF0
7FFFE0
7FFFC0
3FFFC0
1FFF80
0FFF00
07FE00
03FC00
01F800
00F000
006000
ENDCHAR
STARTCHAR 25C7
ENCODING 9671
SWIDTH 1008 0
DWIDTH 21 0
BBX 20 20 0 -2
BITMAP
006000
00B000
010800
020400
040200
080100
100080
200040
400020
800010
400020
600040
200040
100080
080100
040200
020400
010800
00B000
006000
ENDCHAR
STARTCHAR 25CB
ENCODING 9675
SWIDTH 1008 0
DWIDTH 21 0
BBX 19 19 1 -2
BITMAP
03F800
0C0600
100100
200080
400040
400040
800020
800020
800020
800020
800020
800020
800020
400040
400040
200080
100100
0C0600
03F800
ENDCHAR
STARTCHAR 25CE
ENCODING 9678
SWIDTH 1008 0
DWIDTH 21 0
BBX 19 19 1 -2
BITMAP
03F800
0C0600
100100
200080
41F040
460C40
840420
880220
880220
880220
880220
880220
840420
460C40
41F040
200080
100100
0C0600
03F800
ENDCHAR
STARTCHAR 25CF
ENCODING 9679
SWIDTH 1008 0
DWIDTH 21 0
BBX 19 19 1 -2
BITMAP
03F800
0FFE00
1FFF00
3FFF80
7FFFC0
7FFFC0
FFFFE0
FFFFE0
FFFFE0
FFFFE0
FFFFE0
FFFFE0
FFFFE0
7FFFC0
7FFFC0
3FFF80
1FFF00
0FFE00
03F800
ENDCHAR
STARTCHAR 25EF
ENCODING 9711
SWIDTH 1008 0
DWIDTH 21 0
BBX 21 21 0 -3
BITMAP
03FE00
0C0180
100040
200020
400010
400010
800008
800008
800008
800008
800008
800008
800008
800008
800008
400010
400010
200020
100040
0C0180
03FE00
ENDCHAR
STARTCHAR 2605
ENCODING 9733
SWIDTH 1008 0
DWIDTH 21 0
BBX 18 17 1 -1
BITMAP
00C000
00C000
01E000
01E000
01E000
03F000
FFFFC0
3FFF00
1FFE00
1FFC00
0FFC00
07F800
0FFC00
0F7C00
1E1E00
180600
200100
ENDCHAR
STARTCHAR 2606
ENCODING 9734
SWIDTH 1008 0
DWIDTH 21 0
BBX 18 17 1 -1
BITMAP
00C000
00C000
016000
016000
016000
021000
FE1FC0
200100
100200
180400
080400
040800
08C400
096400
161A00
180600
200100
ENDCHAR
STARTCHAR 2640
ENCODING 9792
SWIDTH 1008 0
DWIDTH 21 0
BBX 15 20 3 -2
BITMAP
0FC0
1020
2010
4008
4008
4008
4008
4008
2010
1020
0FC0
0F00
0300
0300
FFFE
0300
0300
0300
0300
0300
ENDCHAR
STARTCHAR 2642
ENCODING 9794
SWIDTH 1008 0
DWIDTH 21 0
BBX 19 19 1 -2
BITMAP
001FE0
000060
0000A0
000120
000220
000420
000820
1F1020
20E020
406000
807000
801000
801000
801000
801000
801000
406000
20C000
1F0000
ENDCHAR
STARTCHAR 266A
ENCODING 9834
SWIDTH 1008 0
DWIDTH 21 0
BBX 14 20 3 -2
BITMAP
0300
0300
0380
03C0
03E0
0370
0338
0318
030C
0304
0304
030C
0308
0308
0310
1F20
7F00
FC00
FC00
7000
ENDCHAR
STARTCHAR 266D
ENCODING 9837
SWIDTH 1008 0
DWIDTH 21 0
BBX 9 20 7 -2
BITMAP
8000
8000
8000
8000
8000
8000
8000
8000
9E00
B100
C080
8080
8080
8180
8300
8600
9C00
B800
C000
8000
ENDCHAR
STARTCHAR 266F
ENCODING 9839
SWIDTH 1008 0
DWIDTH 21 0
BBX 14 20 3 -2
BITMAP
0020
1020
1020
1020
1020
103C
1FE0
F020
1020
1020
1020
1020
1020
103C
1FE0
F020
1020
1020
1020
1000
ENDCHAR
STARTCHAR 3000
ENCODING 12288
SWIDTH 1008 0
DWIDTH 21 0
BBX 0 0 0 0
BITMAP
ENDCHAR
STARTCHAR 3001
ENCODING 12289
SWIDTH 1008 0
DWIDTH 21 0
BBX 5 5 1 -2
BITMAP
C0
20
10
18
18
ENDCHAR
STARTCHAR 3002
ENCODING 12290
SWIDTH 1008 0
DWIDTH 21 0
BBX 5 5 1 -2
BITMAP
70
88
88
88
70
ENDCHAR
STARTCHAR 3003
ENCODING 12291
SWIDTH 1008 0
DWIDTH 21 0
BBX 10 11 5 2
BITMAP
1040
1040
1040
1040
2080
2080
2080
2080
4100
4100
8600
ENDCHAR
STARTCHAR 3005
ENCODING 12293
SWIDTH 1008 0
DWIDTH 21 0
BBX 16 16 2 0
BITMAP
0380
01C0
0180
0202
03FF
0406
0804
1008
2010
4620
4620
81C0
0020
0010
0018
0018
ENDCHAR
STARTCHAR 3006
ENCODING 12294
SWIDTH 1008 0
DWIDTH 21 0
BBX 20 20 1 -2
BITMAP
000020
000030
000070
0000C0
000100
03C200
046400
081800
086800
10C400
110600
120600
120200
240000
280000
300000
200000
600000
C00000
800000
ENDCHAR
STARTCHAR 3007
ENCODING 12295
SWIDTH 1008 0
DWIDTH 21 0
BBX 19 16 1 -1
BITMAP
03F800
0C0600
100100
200080
400040
400040
800020
800020
800020
800020
400040
400040
200080
100100
0C0600
03F800
ENDCHAR
STARTCHAR 3008
ENCODING 12296
SWIDTH 1008 0
DWIDTH 21 0
BBX 8 21 9 -3
BITMAP
01
02
02
04
08
08
10
60
60
C0
C0
E0
60
60
10
08
08
04
02
02
01
ENDCHAR
STARTCHAR 3009
ENCODING 12297
SWIDTH 1008 0
DWIDTH 21 0
BBX 8 21 4 -3
BITMAP
80
40
40
20
10
10
08
06
06
03
03
02
06
06
08
10
10
20
40
40
80
ENDCHAR
STARTCHAR 300A
ENCODING 12298
SWIDTH 1008 0
DWIDTH 21 0
BBX 11 21 8 -3
BITMAP
0120
0240
0240
0480
0900
0900
3200
6400
6400
8800
8800
EC00
6400
6400
3200
0900
0900
0480
0240
0240
0120
ENDCHAR
STARTCHAR 300B
ENCODING 12299
SWIDTH 1008 0
DWIDTH 21 0
BBX 11 21 2 -3
BITMAP
9000
4800
4800
2400
1200
1200
0980
04C0
04C0
0220
0220
0440
04C0
04C0
0980
1200
1200
2400
4800
4800
9000
ENDCHAR
STARTCHAR 300C
ENCODING 12300
SWIDTH 1008 0
DWIDTH 21 0
BBX 8 19 10 -1
BITMAP
FF
C0
C0
C0
C0
C0
C0
C0
C0
C0
C0
C0
C0
C0
C0
C0
C0
C0
C0
ENDCHAR
STARTCHAR 300D
ENCODING 12301
SWIDTH 1008 0
DWIDTH 21 0
BBX 9 19 3 -3
BITMAP
0180
0180
0180
0180
0180
0180
0180
0180
0180
0180
0180
0180
0180
0180
0180
0180
0180
0180
FF80
ENDCHAR
STARTCHAR 300E
ENCODING 12302
SWIDTH 1008 0
DWIDTH 21 0
BBX 10 19 8 -1
BITMAP
FFC0
8040
BFC0
B000
B000
B000
B000
B000
B000
B000
B000
B000
B000
B000
B000
B000
B000
B000
F000
ENDCHAR
STARTCHAR 300F
ENCODING 12303
SWIDTH 1008 0
DWIDTH 21 0
BBX 10 19 3 -3
BITMAP
03C0
0340
0340
0340
0340
0340
0340
0340
0340
0340
0340
0340
0340
0340
0340
0340
FF40
8040
FFC0
ENDCHAR
STARTCHAR 3010
ENCODING 12304
SWIDTH 1008 0
DWIDTH 21 0
BBX 7 21 10 -3
BITMAP
FE
FC
F8
F0
F0
F0
E0
E0
E0
E0
E0
E0
E0
E0
E0
F0
F0
F0
F8
FC
FE
ENDCHAR
STARTCHAR 3011
ENCODING 12305
SWIDTH 1008 0
DWIDTH 21 0
BBX 7 21 4 -3
BITMAP
FE
7E
3E
1E
1E
1E
0E
0E
0E
0E
0E
0E
0E
0E
0E
1E
1E
1E
3E
7E
FE
ENDCHAR
STARTCHAR 3012
ENCODING 12306
SWIDTH 1008 0
DWIDTH 21 0
BBX 19 17 1 -2
BITMAP
FFFFE0
000000
000000
000000
000000
FFFFE0
006000
006000
006000
006000
006000
006000
006000
006000
006000
006000
006000
ENDCHAR
STARTCHAR 3013
ENCODING 12307
SWIDTH 1008 0
DWIDTH 21 0
BBX 17 13 2 1
BITMAP
FFFF80
FFFF80
FFFF80
FFFF80
000000
000000
000000
000000
000000
FFFF80
FFFF80
FFFF80
FFFF80
ENDCHAR
STARTCHAR 3014
ENCODING 12308
SWIDTH 1008 0
DWIDTH 21 0
BBX 5 21 12 -3
BITMAP
18
60
80
80
80
80
80
80
80
80
80
80
80
80
80
80
80
80
80
60
18
ENDCHAR
STARTCHAR 3015
ENCODING 12309
SWIDTH 1008 0
DWIDTH 21 0
BBX 7 21 4 -3
BITMAP
C0
30
0E
06
06
06
06
06
06
06
06
06
06
06
06
06
06
06
0E
30
C0
ENDCHAR
STARTCHAR 301C
ENCODING 12316
SWIDTH 1008 0
DWIDTH 21 0
BBX 20 6 1 4
BITMAP
0F0000
30C010
40F020
C0F040
8010C0
000F00
ENDCHAR
STARTCHAR 3041
ENCODING 12353
SWIDTH 1008 0
DWIDTH 21 0
BBX 14 16 3 -2
BITMAP
0C00
0400
0470
FF80
4800
0840
0FE0
0998
1998
2984
4B04
8C04
8804
9408
6030
01C0
ENDCHAR
STARTCHAR 3042
ENCODING 12354
SWIDTH 1008 0
DWIDTH 21 0
BBX 18 20 2 -2
BITMAP
060000
038000
020000
020C00
42F000
7F8000
241000
041000
05FC00
0E1300
142080
3440C0
24C040
458040
420040
820040
858080
480100
700600
003800
ENDCHAR
STARTCHAR 3043
ENCODING 12355
SWIDTH 1008 0
DWIDTH 21 0
BBX 15 13 3 -1
BITMAP
C000
6020
4010
4008
4004
4004
4004
401A
2306
2404
2800
1800
0800
ENDCHAR
STARTCHAR 3044
ENCODING 12356
SWIDTH 1008 0
DWIDTH 21 0
BBX 19 15 1 0
BITMAP
800000
400400
600200
400100
400080
400080
400040
400040
4100A0
4101A0
220060
240040
240000
180000
080000
ENDCHAR
STARTCHAR 3045
ENCODING 12357
SWIDTH 1008 0
DWIDTH 21 0
BBX 12 16 3 -2
BITMAP
1C00
0380
0DC0
0000
0780
9860
6010
6010
0010
0010
0020
0020
0040
0180
0700
1800
ENDCHAR
STARTCHAR 3046
ENCODING 12358
SWIDTH 1008 0
DWIDTH 21 0
BBX 14 21 4 -3
BITMAP
0E00
0380
00E0
0730
0000
0000
03E0
8E10
F008
4004
0004
0004
0004
0004
0008
0008
0010
0020
0040
0380
0E00
ENDCHAR
STARTCHAR 3047
ENCODING 12359
SWIDTH 1008 0
DWIDTH 21 0
BBX 14 16 3 -2
BITMAP
0F00
03C0
0300
0420
41F0
3F20
1040
1080
0180
0300
0700
0980
1180
2180
4180
C07C
ENDCHAR
STARTCHAR 3048
ENCODING 12360
SWIDTH 1008 0
DWIDTH 21 0
BBX 18 20 2 -2
BITMAP
040000
038000
00F800
00C000
018000
000400
20FE00
1F8C00
081000
002000
01C000
020000
020000
078000
0CC000
18C000
30C000
60C000
C020C0
C01F80
ENDCHAR
STARTCHAR 3049
ENCODING 12361
SWIDTH 1008 0
DWIDTH 21 0
BBX 16 16 2 -2
BITMAP
1800
0C18
0806
0983
8E04
7800
0800
08F8
08F8
0B8C
0C02
1802
A802
C984
28F8
1000
ENDCHAR
STARTCHAR 304A
ENCODING 12362
SWIDTH 1008 0
DWIDTH 21 0
BBX 19 19 1 -2
BITMAP
0C0000
060000
040300
0470C0
04E060
4700A0
3C0100
040000
040000
047E00
044180
05C180
060040
0C0040
940040
640080
54E180
0C1E00
080000
ENDCHAR
STARTCHAR 304B
ENCODING 12363
SWIDTH 1008 0
DWIDTH 21 0
BBX 19 19 1 -2
BITMAP
060000
030000
020000
020400
020200
87E100
7C1080
4410C0
041040
081060
081060
0811E0
101040
101000
206000
446000
C26000
81C000
010000
ENDCHAR
STARTCHAR 304C
ENCODING 12364
SWIDTH 1008 0
DWIDTH 21 0
BBX 20 20 1 -2
BITMAP
000040
060230
030190
020080
020400
020200
87E100
7C1080
4410C0
041040
081060
081060
0811E0
101040
101000
206000
446000
C26000
81C000
010000
ENDCHAR
STARTCHAR 304D
ENCODING 12365
SWIDTH 1008 0
DWIDTH 21 0
BBX 16 20 3 -2
BITMAP
0700
0300
0180
019C
4070
3FC0
0027
001C
C3F0
7C10
0008
0008
0008
0FE4
301E
4006
4000
2000
1800
07F0
ENDCHAR
STARTCHAR 304E
ENCODING 12366
SWIDTH 1008 0
DWIDTH 21 0
BBX 18 20 3 -2
BITMAP
070100
0300C0
018440
019B00
407100
3FC000
002700
001C00
C3F000
7C1000
000800
000800
000800
0FE400
301E00
400600
400000
200000
180000
07F000
ENDCHAR
STARTCHAR 304F
ENCODING 12367
SWIDTH 1008 0
DWIDTH 21 0
BBX 11 20 4 -2
BITMAP
0040
0060
0040
0080
0300
0600
1800
6000
8000
8000
6000
7000
1000
0800
0600
0300
0080
0040
0020
0020
ENDCHAR
STARTCHAR 3050
ENCODING 12368
SWIDTH 1008 0
DWIDTH 21 0
BBX 18 20 3 -2
BITMAP
004000
006100
0048C0
018640
030200
040000
180000
600000
800000
800000
600000
700000
100000
080000
040000
030000
018000
004000
002000
002000
ENDCHAR
STARTCHAR 3051
ENCODING 12369
SWIDTH 1008 0
DWIDTH 21 0
BBX 18 21 2 -3
BITMAP
001000
400C00
600600
400400
400400
400780
84FCC0
838400
800400
800400
900400
900400
900400
A00400
A00C00
C00800
400800
401000
401000
002000
00C000
ENDCHAR
STARTCHAR 3052
ENCODING 12370
SWIDTH 1008 0
DWIDTH 21 0
BBX 20 21 1 -3
BITMAP
001040
400C30
600510
4004C0
400440
400700
84FCC0
830400
800400
800400
900400
900400
900400
A00400
A00C00
C00800
400800
401000
401000
006000
00C000
ENDCHAR
STARTCHAR 3053
ENCODING 12371
SWIDTH 1008 0
DWIDTH 21 0
BBX 16 17 2 -2
BITMAP
1800
07F8
001E
00E0
0180
0000
0000
0000
0000
0000
4000
8000
8000
8000
4000
3003
0FFE
ENDCHAR
STARTCHAR 3054
ENCODING 12372
SWIDTH 1008 0
DWIDTH 21 0
BBX 19 20 2 -2
BITMAP
000080
000260
0001A0
180080
07F800
001E00
00E000
018000
000000
000000
000000
000000
000000
400000
800000
800000
800000
400000
300300
0FFE00
ENDCHAR
STARTCHAR 3055
ENCODING 12373
SWIDTH 1008 0
DWIDTH 21 0
BBX 15 20 3 -2
BITMAP
0380
0180
0188
0046
004E
C038
7FE0
0020
0010
0010
07E8
082C
181C
200C
4006
4000
6000
2000
1C00
03F0
ENDCHAR
STARTCHAR 3056
ENCODING 12374
SWIDTH 1008 0
DWIDTH 21 0
BBX 18 20 3 -2
BITMAP
038100
0184C0
018340
004100
004C00
C03800
7FE000
002000
001000
001000
07E800
082C00
181C00
200C00
400600
400000
600000
200000
1C0000
03F000
ENDCHAR
STARTCHAR 3057
ENCODING 12375
SWIDTH 1008 0
DWIDTH 21 0
BBX 15 19 3 -2
BITMAP
C000
6000
2000
2000
2000
2000
2000
6000
4000
4000
4000
4000
4000
4002
4004
4008
2010
3860
0F80
ENDCHAR
STARTCHAR 3058
ENCODING 12376
SWIDTH 1008 0
DWIDTH 21 0
BBX 15 19 3 -2
BITMAP
C008
6006
2022
2018
2008
2000
2000
6000
4000
4000
4000
4000
4000
4002
4004
4008
2010
3860
0F80
ENDCHAR
STARTCHAR 3059
ENCODING 12377
SWIDTH 1008 0
DWIDTH 21 0
BBX 19 21 1 -3
BITMAP
00E000
001000
001800
001000
0010C0
81FFE0
FE1000
201000
01F000
021000
021800
021800
021800
021800
01E800
001000
001000
006000
00C000
010000
020000
ENDCHAR
STARTCHAR 305A
ENCODING 12378
SWIDTH 1008 0
DWIDTH 21 0
BBX 20 21 1 -3
BITMAP
00E040
001230
001990
001080
001000
81FFE0
FE1000
201000
01F000
021000
021800
021800
021800
021800
01E800
001000
001000
006000
00C000
010000
020000
ENDCHAR
STARTCHAR 305B
ENCODING 12379
SWIDTH 1008 0
DWIDTH 21 0
BBX 20 19 1 -2
BITMAP
000C00
000600
000600
0C0400
060400
0404C0
041FF0
87E400
FE0400
640400
646400
046400
041C00
040800
040000
040000
020000
030000
00FF00
ENDCHAR
STARTCHAR 305C
ENCODING 12380
SWIDTH 1008 0
DWIDTH 21 0
BBX 21 20 0 -2
BITMAP
000020
000C98
000668
000620
0C0400
060400
0404C0
043FF0
87E400
FE0400
640400
646400
046400
043C00
040800
040000
040000
020000
030000
00FF00
ENDCHAR
STARTCHAR 305D
ENCODING 12381
SWIDTH 1008 0
DWIDTH 21 0
BBX 19 19 1 -2
BITMAP
000C00
08F600
0F0800
041000
006000
00C000
010380
02FFE0
8F7000
F0C000
C1C000
410000
010000
020000
020000
010000
010000
00E000
001E00
ENDCHAR
STARTCHAR 305E
ENCODING 12382
SWIDTH 1008 0
DWIDTH 21 0
BBX 20 20 1 -2
BITMAP
000040
000C30
08F610
0F0880
041060
006020
00C000
010380
02FFE0
8F7000
F0C000
C1C000
410000
010000
020000
020000
010000
010000
00E000
001E00
ENDCHAR
STARTCHAR 305F
ENCODING 12383
SWIDTH 1008 0
DWIDTH 21 0
BBX 18 19 1 -2
BITMAP
0C0000
060000
020000
027000
87C000
FC1F00
4801C0
080300
080400
100000
100000
100000
100000
200000
210000
610000
410000
C0E000
C01FC0
ENDCHAR
STARTCHAR 3060
ENCODING 12384
SWIDTH 1008 0
DWIDTH 21 0
BBX 19 20 1 -2
BITMAP
000080
0C0060
060220
020180
027080
87C000
FC1F00
4801C0
080300
080400
100000
100000
100000
100000
200000
210000
610000
410000
C0E000
C01FC0
ENDCHAR
STARTCHAR 3061
ENCODING 12385
SWIDTH 1008 0
DWIDTH 21 0
BBX 16 20 2 -2
BITMAP
0C00
0600
0400
0400
0418
88F0
7F80
0800
0800
1800
10FC
1082
1382
3401
3801
3001
0003
0006
0018
03E0
ENDCHAR
STARTCHAR 3062
ENCODING 12386
SWIDTH 1008 0
DWIDTH 21 0
BBX 19 20 2 -2
BITMAP
0C0080
060060
040220
040180
041880
88F000
7F8000
080000
080000
180000
10FC00
108200
138200
340100
380100
300100
000300
000600
001800
03E000
ENDCHAR
STARTCHAR 3063
ENCODING 12387
SWIDTH 1008 0
DWIDTH 21 0
BBX 15 11 3 -2
BITMAP
01F8
8F04
FF06
F002
4002
0002
0002
0004
0018
0060
0780
ENDCHAR
STARTCHAR 3064
ENCODING 12388
SWIDTH 1008 0
DWIDTH 21 0
BBX 19 13 1 1
BITMAP
001E00
01E180
8E0040
F80020
400020
000020
000020
000060
000040
000080
000300
000C00
00F000
ENDCHAR
STARTCHAR 3065
ENCODING 12389
SWIDTH 1008 0
DWIDTH 21 0
BBX 20 18 1 0
BITMAP
000040
000230
000190
000080
000000
001E00
01E180
8E0040
F80020
400020
000020
000020
000020
000040
000080
000300
000C00
00F000
ENDCHAR
STARTCHAR 3066
ENCODING 12390
SWIDTH 1008 0
DWIDTH 21 0
BBX 19 17 1 -1
BITMAP
0001C0
001FE0
83EC00
FC1000
206000
00C000
00C000
010000
010000
010000
010000
010000
010000
00C000
00E000
007800
000F00
ENDCHAR
STARTCHAR 3067
ENCODING 12391
SWIDTH 1008 0
DWIDTH 21 0
BBX 19 17 1 -1
BITMAP
0001C0
001FE0
83EC00
FC1080
206060
00C220
00C180
010080
010000
010000
010000
010000
010000
00C000
00E000
007800
000F00
ENDCHAR
STARTCHAR 3068
ENCODING 12392
SWIDTH 1008 0
DWIDTH 21 0
BBX 13 19 4 -2
BITMAP
3000
1800
0800
0800
0800
0810
0808
0830
06C0
0700
1F00
1800
2000
4000
8000
8000
8000
6008
1FF0
ENDCHAR
STARTCHAR 3069
ENCODING 12393
SWIDTH 1008 0
DWIDTH 21 0
BBX 16 19 4 -2
BITMAP
3004
1823
0819
0808
0800
0810
0808
0830
06C0
0700
1F00
1800
2000
4000
8000
8000
8000
6008
1FF0
ENDCHAR
STARTCHAR 306A
ENCODING 12394
SWIDTH 1008 0
DWIDTH 21 0
BBX 18 19 2 -2
BITMAP
060000
038000
020000
02E000
7F8700
240080
0401C0
080240
080400
100400
300800
200800
600800
C00800
800800
03FE00
040980
060880
01F000
ENDCHAR
STARTCHAR 306B
ENCODING 12395
SWIDTH 1008 0
DWIDTH 21 0
BBX 17 18 2 -2
BITMAP
800000
400000
603E00
41C380
400600
800800
800000
800000
800000
900000
900000
900000
A20000
A20000
C20000
41C000
403F80
400000
ENDCHAR
STARTCHAR 306C
ENCODING 12396
SWIDTH 1008 0
DWIDTH 21 0
BBX 19 18 1 -1
BITMAP
007000
001800
001000
201000
10FE00
136180
146040
08C040
18C020
290020
490020
4B0020
460020
840040
8A1F80
926140
606260
001C20
ENDCHAR
STARTCHAR 306D
ENCODING 12397
SWIDTH 1008 0
DWIDTH 21 0
BBX 20 21 1 -3
BITMAP
0C0000
060000
040000
040000
040000
050F00
9E70C0
64C040
050020
060020
040020
040020
0C0020
140020
240040
440FC0
A41060
9410B0
0C0F10
080000
080000
ENDCHAR
STARTCHAR 306E
ENCODING 12398
SWIDTH 1008 0
DWIDTH 21 0
BBX 19 16 1 -1
BITMAP
01FC00
06C300
08E180
10C0C0
20C040
410060
410020
820020
820020
820020
840040
440040
780080
100100
000600
007800
ENDCHAR
STARTCHAR 306F
ENCODING 12399
SWIDTH 1008 0
DWIDTH 21 0
BBX 18 19 2 -2
BITMAP
800C00
400600
600400
400400
4204C0
43FF00
818400
800400
800400
800400
900400
900400
900400
A00400
A1FE00
E20580
420CC0
41F840
400000
ENDCHAR
STARTCHAR 3070
ENCODING 12400
SWIDTH 1008 0
DWIDTH 21 0
BBX 20 20 1 -2
BITMAP
000040
800D30
4004D0
600640
400400
4204C0
43FF00
810400
800400
800400
800400
900400
900400
900400
A00400
A1FE00
E20580
420CC0
41F840
400000
ENDCHAR
STARTCHAR 3071
ENCODING 12401
SWIDTH 1008 0
DWIDTH 21 0
BBX 20 20 1 -2
BITMAP
000060
800C90
400690
600460
400400
4204C0
43FF00
810400
800400
800400
800400
900400
900400
900400
A00400
A1FE00
E20580
420CC0
41F840
400000
ENDCHAR
STARTCHAR 3072
ENCODING 12402
SWIDTH 1008 0
DWIDTH 21 0
BBX 19 18 1 -2
BITMAP
010400
070400
DA0200
640200
080300
080280
1002C0
100260
200220
200620
200400
200400
200400
200800
200800
101000
186000
07C000
ENDCHAR
STARTCHAR 3073
ENCODING 12403
SWIDTH 1008 0
DWIDTH 21 0
BBX 20 20 1 -2
BITMAP
000040
000030
010410
070480
DA0260
640220
080300
080280
1002C0
100260
200220
200620
200400
200400
200400
200800
200800
101000
186000
07C000
ENDCHAR
STARTCHAR 3074
ENCODING 12404
SWIDTH 1008 0
DWIDTH 21 0
BBX 20 19 1 -2
BITMAP
000060
010490
070490
DA0260
640200
080300
080280
1002C0
100260
200220
200620
200400
200400
200400
200800
200800
101000
186000
07C000
ENDCHAR
STARTCHAR 3075
ENCODING 12405
SWIDTH 1008 0
DWIDTH 21 0
BBX 19 18 1 -1
BITMAP
010000
00C000
006000
007000
00E000
010000
020000
020000
010000
00C000
00FE00
00FE00
036180
8C1040
501060
7011E0
23F020
20E000
ENDCHAR
STARTCHAR 3076
ENCODING 12406
SWIDTH 1008 0
DWIDTH 21 0
BBX 19 18 1 -1
BITMAP
010080
00C060
006220
007180
00E080
010000
020000
020000
010000
00C000
00FE00
00FE00
036180
8C1040
501060
7011E0
23F020
20E000
ENDCHAR
STARTCHAR 3077
ENCODING 12407
SWIDTH 1008 0
DWIDTH 21 0
BBX 19 18 1 -1
BITMAP
010000
00C180
006240
007240
00E180
010000
020000
020000
010000
00C000
00FE00
00FE00
036180
8C1040
501060
7011E0
23F020
20E000
ENDCHAR
STARTCHAR 3078
ENCODING 12408
SWIDTH 1008 0
DWIDTH 21 0
BBX 19 12 1 1
BITMAP
060000
090000
10C000
10C000
206000
E01000
C01C00
400C00
000600
000300
0001C0
000060
ENDCHAR
STARTCHAR 3079
ENCODING 12409
SWIDTH 1008 0
DWIDTH 21 0
BBX 19 16 1 1
BITMAP
000080
000060
000220
000180
060080
090000
10C000
10C000
206000
E01000
C01C00
400C00
000600
000300
0001C0
000060
ENDCHAR
STARTCHAR 307A
ENCODING 12410
SWIDTH 1008 0
DWIDTH 21 0
BBX 19 15 1 1
BITMAP
000300
000480
000480
060300
090000
10C000
10C000
206000
E01000
C01C00
400C00
000600
000300
0001C0
000060
ENDCHAR
STARTCHAR 307B
ENCODING 12411
SWIDTH 1008 0
DWIDTH 21 0
BBX 18 19 2 -2
BITMAP
800000
418F80
60F900
400C00
400400
C0C400
838580
81FF00
800400
800400
900400
900400
900400
A00400
A1FE00
C20580
C204C0
41F840
400000
ENDCHAR
STARTCHAR 307C
ENCODING 12412
SWIDTH 1008 0
DWIDTH 21 0
BBX 20 19 1 -2
BITMAP
800000
410F40
60F830
400C90
400460
40C420
C30580
81FF00
800400
800400
900400
900400
900400
A00400
A1FE00
C20580
C204C0
41F840
400000
ENDCHAR
STARTCHAR 307D
ENCODING 12413
SWIDTH 1008 0
DWIDTH 21 0
BBX 20 19 1 -2
BITMAP
800000
410F60
60F890
400C90
400460
40C400
C30580
81FF00
800400
800400
900400
900400
900400
A00400
A1FE00
C20580
C204C0
41F840
400000
ENDCHAR
STARTCHAR 307E
ENCODING 12414
SWIDTH 1008 0
DWIDTH 21 0
BBX 17 20 2 -2
BITMAP
01C000
00E000
00C000
01FF00
FEC380
20C400
00C000
08C000
30CE00
1FF800
00C000
00C000
00C000
00C000
00C000
00C000
1FF800
60CF00
20C100
1F8000
ENDCHAR
STARTCHAR 307F
ENCODING 12415
SWIDTH 1008 0
DWIDTH 21 0
BBX 19 18 1 -2
BITMAP
106000
0FF000
0C6000
00C000
00C200
00C180
010180
010100
0FF900
3E0100
320700
440280
840240
880460
700420
000800
001000
00E000
ENDCHAR
STARTCHAR 3080
ENCODING 12416
SWIDTH 1008 0
DWIDTH 21 0
BBX 19 19 1 -2
BITMAP
1C0000
060000
040000
050000
C7C180
7C0240
040220
0402A0
340260
4C0220
4C0220
440200
440100
480100
380080
100080
100080
080300
07FC00
ENDCHAR
STARTCHAR 3081
ENCODING 12417
SWIDTH 1008 0
DWIDTH 21 0
BBX 19 18 1 -1
BITMAP
007000
001800
001000
201000
21FC00
166300
186080
10C040
28C040
490020
4F0020
460020
820020
850040
84C040
480180
300600
007800
ENDCHAR
STARTCHAR 3082
ENCODING 12418
SWIDTH 1008 0
DWIDTH 21 0
BBX 15 21 3 -3
BITMAP
0C00
0700
0700
0400
8400
7400
1F80
2800
4800
4808
2804
2FC4
1FC4
1002
1002
1002
1002
1004
0804
0418
03E0
ENDCHAR
STARTCHAR 3083
ENCODING 12419
SWIDTH 1008 0
DWIDTH 21 0
BBX 16 16 2 -2
BITMAP
0200
01E0
20C0
11BC
09C2
0E01
1401
F423
E422
421C
0200
0180
0180
01C0
00C0
00C0
ENDCHAR
STARTCHAR 3084
ENCODING 12420
SWIDTH 1008 0
DWIDTH 21 0
BBX 19 19 1 -2
BITMAP
01C000
007000
007800
30C000
180F00
0470C0
05C020
060020
9A0020
F110C0
C11FC0
410F00
00C000
00C000
006000
006000
007000
001000
001000
ENDCHAR
STARTCHAR 3085
ENCODING 12421
SWIDTH 1008 0
DWIDTH 21 0
BBX 15 17 1 -3
BITMAP
01C0
0260
0260
85F0
466C
4C62
5462
5462
5462
6462
2462
2264
21F8
00C0
00C0
0100
0200
ENDCHAR
STARTCHAR 3086
ENCODING 12422
SWIDTH 1008 0
DWIDTH 21 0
BBX 19 20 1 -3
BITMAP
007800
00C400
010400
817E00
43C580
660440
6A0440
4A0420
520420
520420
530C60
510840
610840
60C980
207E00
201000
001000
006000
00C000
030000
ENDCHAR
STARTCHAR 3087
ENCODING 12423
SWIDTH 1008 0
DWIDTH 21 0
BBX 12 15 3 -2
BITMAP
0400
0300
0380
0300
0330
03C0
0300
0300
0300
0300
0300
7F80
8360
8310
7C10
ENDCHAR
STARTCHAR 3088
ENCODING 12424
SWIDTH 1008 0
DWIDTH 21 0
BBX 15 20 3 -2
BITMAP
0300
0180
01C0
0180
0180
0184
01BE
01E0
0180
0180
0180
0180
0180
0180
0180
7FC0
C1B8
8186
8382
7C00
ENDCHAR
STARTCHAR 3089
ENCODING 12425
SWIDTH 1008 0
DWIDTH 21 0
BBX 14 20 5 -2
BITMAP
1000
0E00
0180
00C0
0FC0
3000
4000
4000
4000
8000
87E0
8418
9C18
A008
C004
4004
0008
0008
0070
0F80
ENDCHAR
STARTCHAR 308A
ENCODING 12426
SWIDTH 1008 0
DWIDTH 21 0
BBX 13 21 4 -3
BITMAP
8000
43C0
6620
4810
5010
5008
5008
A008
A008
A008
E008
C018
4010
4010
4010
0020
0020
0040
0080
0300
0E00
ENDCHAR
STARTCHAR 308B
ENCODING 12427
SWIDTH 1008 0
DWIDTH 21 0
BBX 16 19 3 -2
BITMAP
0010
21F8
1F10
0820
0040
0180
0300
0400
0BF0
1C0C
100E
3002
6001
C001
C001
07C1
0822
0C2C
07F0
ENDCHAR
STARTCHAR 308C
ENCODING 12428
SWIDTH 1008 0
DWIDTH 21 0
BBX 20 21 1 -3
BITMAP
0C0000
060000
040000
040000
040000
070E00
DD7100
66C100
050100
060100
040200
040200
0C0200
140400
240400
440400
C40410
840220
1401C0
0C0000
080000
ENDCHAR
STARTCHAR 308D
ENCODING 12429
SWIDTH 1008 0
DWIDTH 21 0
BBX 16 19 3 -2
BITMAP
0010
21F8
1F10
0820
0040
0180
0300
0400
0BF0
1C0C
100E
3002
6001
C001
8001
0002
0004
0018
03E0
ENDCHAR
STARTCHAR 308E
ENCODING 12430
SWIDTH 1008 0
DWIDTH 21 0
BBX 15 16 2 -2
BITMAP
1800
0C00
0800
0C00
D8F8
6B84
0C02
0802
0802
1802
2802
4802
C804
A818
18E0
1000
ENDCHAR
STARTCHAR 308F
ENCODING 12431
SWIDTH 1008 0
DWIDTH 21 0
BBX 19 21 1 -3
BITMAP
0C0000
060000
060000
040000
040000
070000
DD1E00
66E180
050040
060040
040020
040020
0C0020
140020
240040
440040
C40080
840300
141C00
0C0000
080000
ENDCHAR
STARTCHAR 3090
ENCODING 12432
SWIDTH 1008 0
DWIDTH 21 0
BBX 18 19 2 -2
BITMAP
001000
10F800
0F9000
041000
002000
002000
00C000
03FC00
0D8300
118080
238080
220080
420040
840040
880040
883880
90C480
60C300
003C00
ENDCHAR
STARTCHAR 3091
ENCODING 12433
SWIDTH 1008 0
DWIDTH 21 0
BBX 18 20 2 -3
BITMAP
001000
0FF800
042000
00C000
018000
03F000
0C0C00
300200
238200
04C400
04C800
04D800
03E000
020000
0C0000
100F00
2C3080
C2C0C0
818300
000400
ENDCHAR
STARTCHAR 3092
ENCODING 12434
SWIDTH 1008 0
DWIDTH 21 0
BBX 16 20 3 -2
BITMAP
0400
0380
0300
0300
8470
FF80
4402
0803
1F06
3198
6060
4040
C3C0
8440
0840
1040
2000
2000
1000
0FF8
ENDCHAR
STARTCHAR 3093
ENCODING 12435
SWIDTH 1008 0
DWIDTH 21 0
BBX 19 19 1 -2
BITMAP
01C000
00E000
00C000
010000
010000
020000
020000
040000
040000
0B0000
0FC020
0CC020
186020
106020
206040
206040
401080
C01100
800E00
ENDCHAR
STARTCHAR 309B
ENCODING 12443
SWIDTH 1008 0
DWIDTH 21 0
BBX 7 6 1 12
BITMAP
08
84
46
62
22
20
ENDCHAR
STARTCHAR 309C
ENCODING 12444
SWIDTH 1008 0
DWIDTH 21 0
BBX 5 5 1 11
BITMAP
70
88
88
88
70
ENDCHAR
STARTCHAR 309D
ENCODING 12445
SWIDTH 1008 0
DWIDTH 21 0
BBX 9 10 6 3
BITMAP
8000
4000
2000
1800
0C00
0300
0380
0180
0F80
3800
ENDCHAR
STARTCHAR 309E
ENCODING 12446
SWIDTH 1008 0
DWIDTH 21 0
BBX 13 13 6 3
BITMAP
0020
0118
00C8
8040
4000
2000
1800
0C00
0300
0380
0180
0F80
3800
ENDCHAR
STARTCHAR 30A1
ENCODING 12449
SWIDTH 1008 0
DWIDTH 21 0
BBX 14 14 3 -2
BITMAP
0018
FFFC
6010
0420
0340
0340
0300
0300
0300
0400
0400
0800
1000
2000
ENDCHAR
STARTCHAR 30A2
ENCODING 12450
SWIDTH 1008 0
DWIDTH 21 0
BBX 18 18 2 -2
BITMAP
000300
80FFC0
7F8180
300200
018400
00E800
00E000
00C000
01C000
018000
018000
018000
020000
020000
040000
040000
080000
100000
ENDCHAR
STARTCHAR 30A3
ENCODING 12451
SWIDTH 1008 0
DWIDTH 21 0
BBX 13 15 2 -2
BITMAP
0010
0018
0030
00E0
01C0
0380
07C0
05C0
08E0
30C0
C0C0
00C0
00C0
00C0
00C0
ENDCHAR
STARTCHAR 30A4
ENCODING 12452
SWIDTH 1008 0
DWIDTH 21 0
BBX 16 20 2 -2
BITMAP
0004
0002
0003
0006
000C
0018
0030
00E0
0190
0618
0810
1010
3010
C010
0010
0010
0010
0010
0010
0010
ENDCHAR
STARTCHAR 30A5
ENCODING 12453
SWIDTH 1008 0
DWIDTH 21 0
BBX 14 16 3 -2
BITMAP
0700
0380
0300
0308
C7FC
7808
4008
4008
4008
4010
0010
0020
0040
0180
0700
1800
ENDCHAR
STARTCHAR 30A6
ENCODING 12454
SWIDTH 1008 0
DWIDTH 21 0
BBX 17 19 3 -2
BITMAP
038000
01C000
018000
818100
43FF80
7C0100
400100
400300
400200
400600
400400
000400
000800
000800
001000
002000
004000
038000
0C0000
ENDCHAR
STARTCHAR 30A7
ENCODING 12455
SWIDTH 1008 0
DWIDTH 21 0
BBX 16 12 2 -1
BITMAP
0008
3FFC
1180
01C0
0180
0180
0180
0180
0180
07FE
F803
4000
ENDCHAR
STARTCHAR 30A8
ENCODING 12456
SWIDTH 1008 0
DWIDTH 21 0
BBX 19 14 1 0
BITMAP
000600
3FFF00
10C000
00E000
00E000
00C000
00C000
00C000
00C000
00C000
00C000
01FFC0
FE0060
200000
ENDCHAR
STARTCHAR 30A9
ENCODING 12457
SWIDTH 1008 0
DWIDTH 21 0
BBX 15 16 3 -2
BITMAP
0180
0060
0040
0040
0044
FFFE
41C0
43C0
0340
0440
0840
1040
2040
C440
03C0
0180
ENDCHAR
STARTCHAR 30AA
ENCODING 12458
SWIDTH 1008 0
DWIDTH 21 0
BBX 19 20 1 -2
BITMAP
001000
000800
000C00
000800
000800
0008C0
FFFFE0
301800
007800
00E800
01C800
010800
030800
060800
0C0800
100800
200800
C0C800
007800
001000
ENDCHAR
STARTCHAR 30AB
ENCODING 12459
SWIDTH 1008 0
DWIDTH 21 0
BBX 18 19 1 -2
BITMAP
01C000
00E000
00C000
00C000
00C080
00FFC0
FFC080
310080
010080
030180
020100
020100
060100
040300
080200
100600
20E400
401C00
800800
ENDCHAR
STARTCHAR 30AC
ENCODING 12460
SWIDTH 1008 0
DWIDTH 21 0
BBX 20 20 1 -2
BITMAP
000040
01C030
00E110
00C0C0
00C040
00C080
00FFC0
FFC080
310080
010080
030180
020100
020100
060100
040300
080200
100600
20E400
401C00
800800
ENDCHAR
STARTCHAR 30AD
ENCODING 12461
SWIDTH 1008 0
DWIDTH 21 0
BBX 19 19 1 -2
BITMAP
030000
01C000
00C000
00C700
00FC00
7FE000
306000
006040
0067E0
00F800
07F000
071000
F81000
601000
001800
000800
000800
000C00
000800
ENDCHAR
STARTCHAR 30AE
ENCODING 12462
SWIDTH 1008 0
DWIDTH 21 0
BBX 20 20 1 -2
BITMAP
000040
030130
01C0D0
00C040
00C700
00FC00
7FE000
306000
006040
0067E0
00F800
07F000
071000
F81000
601000
001800
000800
000800
000C00
000800
ENDCHAR
STARTCHAR 30AF
ENCODING 12463
SWIDTH 1008 0
DWIDTH 21 0
BBX 16 19 3 -2
BITMAP
0700
0380
0302
073F
0DC2
0806
1004
200C
4008
8010
8010
0010
0020
0040
0180
0300
0400
1800
6000
ENDCHAR
STARTCHAR 30B0
ENCODING 12464
SWIDTH 1008 0
DWIDTH 21 0
BBX 19 20 2 -2
BITMAP
000080
060060
038120
0200C0
063E40
0DC200
080600
100400
200C00
400800
801000
801000
001000
002000
00C000
018000
020000
040000
180000
600000
ENDCHAR
STARTCHAR 30B1
ENCODING 12465
SWIDTH 1008 0
DWIDTH 21 0
BBX 19 19 1 -2
BITMAP
060000
030000
020000
060000
040180
0C7FE0
0FC800
100C00
200800
401800
C01000
801000
001000
006000
006000
00C000
010000
020000
0C0000
ENDCHAR
STARTCHAR 30B2
ENCODING 12466
SWIDTH 1008 0
DWIDTH 21 0
BBX 20 20 1 -2
BITMAP
000040
060230
030190
020080
060000
040180
0C7FE0
0FC800
100C00
200800
401800
C01000
801000
001000
006000
006000
00C000
010000
020000
0C0000
ENDCHAR
STARTCHAR 30B3
ENCODING 12467
SWIDTH 1008 0
DWIDTH 21 0
BBX 17 13 2 1
BITMAP
000100
7FFF80
300100
000100
000200
000200
000200
000600
000400
000400
000400
FFFE00
600200
ENDCHAR
STARTCHAR 30B4
ENCODING 12468
SWIDTH 1008 0
DWIDTH 21 0
BBX 19 17 2 1
BITMAP
000080
000460
000320
000100
000000
7FFF00
300100
000100
000200
000200
000200
000600
000400
000400
000400
FFFE00
600200
ENDCHAR
STARTCHAR 30B5
ENCODING 12469
SWIDTH 1008 0
DWIDTH 21 0
BBX 19 19 1 -2
BITMAP
000C00
0C0600
060200
020200
020240
827FE0
FFE200
420200
020600
020400
020400
060400
020400
000800
000800
001000
006000
00C000
030000
ENDCHAR
STARTCHAR 30B6
ENCODING 12470
SWIDTH 1008 0
DWIDTH 21 0
BBX 20 20 1 -2
BITMAP
000040
000D30
0C06D0
060240
020200
020240
827FE0
FFE200
420200
020600
020400
020400
060400
020400
000800
000800
001000
006000
00C000
030000
ENDCHAR
STARTCHAR 30B7
ENCODING 12471
SWIDTH 1008 0
DWIDTH 21 0
BBX 17 17 3 -2
BITMAP
300000
0C0000
070000
030000
000080
C00100
300200
180400
180800
080800
001000
002000
004000
038000
8C0000
780000
200000
ENDCHAR
STARTCHAR 30B8
ENCODING 12472
SWIDTH 1008 0
DWIDTH 21 0
BBX 17 19 3 -2
BITMAP
000200
001180
300C80
0C0400
070000
030000
000080
C00100
300200
180400
180800
080800
001000
002000
004000
038000
8C0000
780000
200000
ENDCHAR
STARTCHAR 30B9
ENCODING 12473
SWIDTH 1008 0
DWIDTH 21 0
BBX 17 16 2 -1
BITMAP
000400
3FFE00
1C0C00
001800
001000
003000
00E000
00C000
01D000
019000
020800
040400
080200
100300
200180
C00180
ENDCHAR
STARTCHAR 30BA
ENCODING 12474
SWIDTH 1008 0
DWIDTH 21 0
BBX 19 19 2 -1
BITMAP
000080
000260
0001A0
000480
3FFE00
1C0C00
001800
001000
003000
00E000
00C000
01D000
019000
020800
040400
080200
100300
200180
C00180
ENDCHAR
STARTCHAR 30BB
ENCODING 12475
SWIDTH 1008 0
DWIDTH 21 0
BBX 19 17 1 -1
BITMAP
060000
030000
020000
020000
020180
021FE0
03E0C0
FE0100
620600
620E00
020800
020000
020000
020000
020000
01C180
00FF00
ENDCHAR
STARTCHAR 30BC
ENCODING 12476
SWIDTH 1008 0
DWIDTH 21 0
BBX 20 19 1 -1
BITMAP
000040
000030
060110
0300C0
020040
020000
020180
021FE0
03E0C0
FE0100
620600
620E00
020800
020000
020000
020000
020000
01C180
00FF00
ENDCHAR
STARTCHAR 30BD
ENCODING 12477
SWIDTH 1008 0
DWIDTH 21 0
BBX 15 18 3 -2
BITMAP
0008
8004
4006
2006
1004
180C
0808
0818
0010
0020
0020
0020
0040
0180
0300
0400
0800
3000
ENDCHAR
STARTCHAR 30BE
ENCODING 12478
SWIDTH 1008 0
DWIDTH 21 0
BBX 19 20 2 -2
BITMAP
000080
000260
0009A0
800480
400600
200600
100400
180C00
080800
081800
001000
002000
002000
002000
00C000
018000
020000
040000
080000
300000
ENDCHAR
STARTCHAR 30BF
ENCODING 12479
SWIDTH 1008 0
DWIDTH 21 0
BBX 16 19 3 -2
BITMAP
0700
0380
0302
073F
05C2
0802
1006
2F04
41CC
8068
8068
0018
0010
0020
0040
0180
0700
1800
6000
ENDCHAR
STARTCHAR 30C0
ENCODING 12480
SWIDTH 1008 0
DWIDTH 21 0
BBX 19 20 2 -2
BITMAP
000080
060060
038120
0200C0
063F40
05C200
080200
100600
2E0400
41CC00
80E800
80E800
001800
001000
002000
00C000
018000
060000
180000
600000
ENDCHAR
STARTCHAR 30C1
ENCODING 12481
SWIDTH 1008 0
DWIDTH 21 0
BBX 19 19 1 -2
BITMAP
000200
001F00
01E000
0E7800
001000
001000
01FF80
FE60E0
606000
006000
006000
00E000
00C000
00C000
010000
010000
020000
040000
080000
ENDCHAR
STARTCHAR 30C2
ENCODING 12482
SWIDTH 1008 0
DWIDTH 21 0
BBX 20 20 1 -2
BITMAP
000040
000430
001E90
01E060
0E7820
001000
001000
01FF80
FE60E0
606000
006000
006000
00E000
00C000
00C000
010000
010000
020000
040000
080000
ENDCHAR
STARTCHAR 30C3
ENCODING 12483
SWIDTH 1008 0
DWIDTH 21 0
BBX 14 14 3 -2
BITMAP
0800
0410
830C
4308
2018
2010
2010
0020
0020
0040
0180
0300
0400
1800
ENDCHAR
STARTCHAR 30C4
ENCODING 12484
SWIDTH 1008 0
DWIDTH 21 0
BBX 16 18 3 -2
BITMAP
0404
0302
8303
4182
2182
2186
2004
000C
0008
0010
0010
0010
0020
0040
0180
0300
0C00
3000
ENDCHAR
STARTCHAR 30C5
ENCODING 12485
SWIDTH 1008 0
DWIDTH 21 0
BBX 19 20 2 -2
BITMAP
000080
000260
0401A0
020480
820200
418300
218200
218600
200400
000C00
000800
001000
001000
001000
002000
00C000
018000
020000
0C0000
300000
ENDCHAR
STARTCHAR 30C6
ENCODING 12486
SWIDTH 1008 0
DWIDTH 21 0
BBX 19 18 1 -2
BITMAP
000600
1FFF00
0C0000
000000
000000
01FF80
FE60E0
607000
006000
006000
00E000
00C000
00C000
010000
010000
020000
040000
080000
ENDCHAR
STARTCHAR 30C7
ENCODING 12487
SWIDTH 1008 0
DWIDTH 21 0
BBX 21 20 0 -2
BITMAP
000020
000018
000608
1FFF40
0C0030
000010
000000
01FF80
FE60E0
607000
006000
006000
00E000
008000
008000
010000
010000
020000
040000
080000
ENDCHAR
STARTCHAR 30C8
ENCODING 12488
SWIDTH 1008 0
DWIDTH 21 0
BBX 10 20 7 -2
BITMAP
C000
7000
7000
4000
4000
4000
4000
4000
7800
4700
41C0
41C0
4040
4000
4000
4000
4000
C000
C000
4000
ENDCHAR
STARTCHAR 30C9
ENCODING 12489
SWIDTH 1008 0
DWIDTH 21 0
BBX 13 20 7 -2
BITMAP
C000
7020
7018
4088
4060
4020
4000
4000
7800
4700
41C0
41C0
4040
4000
4000
4000
4000
C000
C000
4000
ENDCHAR
STARTCHAR 30CA
ENCODING 12490
SWIDTH 1008 0
DWIDTH 21 0
BBX 19 19 1 -2
BITMAP
00E000
007000
006000
006000
006000
01FF80
FE60E0
606000
006000
00C000
00C000
00C000
00C000
010000
010000
020000
020000
040000
080000
ENDCHAR
STARTCHAR 30CB
ENCODING 12491
SWIDTH 1008 0
DWIDTH 21 0
BBX 19 13 1 0
BITMAP
100600
1FFF00
0C0000
000000
000000
000000
000000
000000
000000
000000
81FF80
7E00E0
200000
ENDCHAR
STARTCHAR 30CC
ENCODING 12492
SWIDTH 1008 0
DWIDTH 21 0
BBX 16 17 2 -1
BITMAP
0002
00FF
3F82
1804
000C
0008
0390
00E0
0030
0048
00C8
0184
0206
0403
1801
2000
C000
ENDCHAR
STARTCHAR 30CD
ENCODING 12493
SWIDTH 1008 0
DWIDTH 21 0
BBX 17 20 2 -2
BITMAP
038000
00E000
002000
000400
00FE00
3F8C00
101800
003000
00E000
01C000
03B800
07C600
04C600
08C380
30C080
C0C000
00C000
00C000
00C000
00C000
ENDCHAR
STARTCHAR 30CE
ENCODING 12494
SWIDTH 1008 0
DWIDTH 21 0
BBX 16 18 2 -2
BITMAP
0006
0003
0002
0006
0004
000C
0008
0010
0010
0020
0020
00C0
0180
0200
0400
0800
3000
C000
ENDCHAR
STARTCHAR 30CF
ENCODING 12495
SWIDTH 1008 0
DWIDTH 21 0
BBX 20 13 0 1
BITMAP
000800
040400
030200
020100
020080
060080
040040
080060
080060
080020
100030
200010
C00010
ENDCHAR
STARTCHAR 30D0
ENCODING 12496
SWIDTH 1008 0
DWIDTH 21 0
BBX 20 16 0 1
BITMAP
000040
000230
000190
000880
040400
030200
020100
020080
060080
040040
080060
080060
080020
100030
200010
C00010
ENDCHAR
STARTCHAR 30D1
ENCODING 12497
SWIDTH 1008 0
DWIDTH 21 0
BBX 20 16 0 1
BITMAP
000060
000090
000090
000860
040400
030200
020100
020080
060080
040040
080060
080060
080020
100030
200010
C00010
ENDCHAR
STARTCHAR 30D2
ENCODING 12498
SWIDTH 1008 0
DWIDTH 21 0
BBX 14 18 3 -1
BITMAP
C000
6000
6000
4000
4000
4008
407C
7F80
4000
4000
4000
4000
4000
4000
4000
4000
300C
0FF8
ENDCHAR
STARTCHAR 30D3
ENCODING 12499
SWIDTH 1008 0
DWIDTH 21 0
BBX 18 19 3 -1
BITMAP
000100
C000C0
600440
600300
400100
400000
400800
407C00
7F8000
400000
400000
400000
400000
400000
400000
400000
400000
300C00
0FF800
ENDCHAR
STARTCHAR 30D4
ENCODING 12500
SWIDTH 1008 0
DWIDTH 21 0
BBX 18 18 3 -1
BITMAP
C00180
600240
600240
400180
400000
400800
407C00
7F8000
400000
400000
400000
400000
400000
400000
400000
400000
300C00
0FF800
ENDCHAR
STARTCHAR 30D5
ENCODING 12501
SWIDTH 1008 0
DWIDTH 21 0
BBX 17 17 3 -2
BITMAP
000100
807F80
FF8100
600100
000300
000200
000600
000400
000400
000C00
000800
001000
002000
004000
018000
070000
180000
ENDCHAR
STARTCHAR 30D6
ENCODING 12502
SWIDTH 1008 0
DWIDTH 21 0
BBX 19 20 2 -2
BITMAP
000080
000260
0001A0
000280
80FF00
FF8200
600200
000200
000600
000400
000C00
000800
000800
001000
001000
002000
00C000
018000
060000
180000
ENDCHAR
STARTCHAR 30D7
ENCODING 12503
SWIDTH 1008 0
DWIDTH 21 0
BBX 19 20 2 -2
BITMAP
0000C0
000120
000120
0002C0
80FF00
FF8200
600200
000200
000600
000400
000C00
000800
000800
001000
001000
002000
00C000
018000
060000
180000
ENDCHAR
STARTCHAR 30D8
ENCODING 12504
SWIDTH 1008 0
DWIDTH 21 0
BBX 19 12 1 2
BITMAP
020000
070000
04C000
086000
101000
200800
E00400
C00600
400200
000180
0000E0
000020
ENDCHAR
STARTCHAR 30D9
ENCODING 12505
SWIDTH 1008 0
DWIDTH 21 0
BBX 19 15 1 2
BITMAP
000080
000060
000220
020180
070080
04C000
086000
101000
200800
E00400
C00600
400200
000180
0000E0
000020
ENDCHAR
STARTCHAR 30DA
ENCODING 12506
SWIDTH 1008 0
DWIDTH 21 0
BBX 19 14 1 2
BITMAP
000180
000240
020240
070180
04C000
086000
101000
200800
E00400
C00600
400200
000180
0000E0
000020
ENDCHAR
STARTCHAR 30DB
ENCODING 12507
SWIDTH 1008 0
DWIDTH 21 0
BBX 18 19 1 -2
BITMAP
01C000
00E000
00E000
00C000
00C000
00FF00
FFC1C0
30C000
00C000
00C400
10C600
10C200
18C100
10C080
20C0C0
40C040
82C000
01C000
010000
ENDCHAR
STARTCHAR 30DC
ENCODING 12508
SWIDTH 1008 0
DWIDTH 21 0
BBX 20 20 1 -2
BITMAP
000040
01C130
00E0D0
00E040
00C000
00C000
00FF00
FFC1C0
30C000
00C000
00C400
10C600
10C200
18C100
10C080
20C0C0
40C040
82C000
01C000
010000
ENDCHAR
STARTCHAR 30DD
ENCODING 12509
SWIDTH 1008 0
DWIDTH 21 0
BBX 19 20 1 -2
BITMAP
0000C0
01C120
00E120
00E0C0
00C000
00C000
00FF00
FFC1C0
30C000
00C000
00C400
10C600
10C200
18C100
10C080
20C0C0
40C040
82C000
01C000
010000
ENDCHAR
STARTCHAR 30DE
ENCODING 12510
SWIDTH 1008 0
DWIDTH 21 0
BBX 19 14 1 0
BITMAP
000040
007FE0
FFC180
300100
000200
000400
000800
061000
067000
01C000
007000
001800
000C00
000400
ENDCHAR
STARTCHAR 30DF
ENCODING 12511
SWIDTH 1008 0
DWIDTH 21 0
BBX 12 19 4 -3
BITMAP
3000
0F00
00C0
0070
0010
0000
3000
0F00
03C0
03E0
0060
0020
0000
E000
1E00
0380
00E0
0030
0010
ENDCHAR
STARTCHAR 30E0
ENCODING 12512
SWIDTH 1008 0
DWIDTH 21 0
BBX 18 16 1 0
BITMAP
01C000
00E000
00C000
01C000
010000
010000
020000
020000
020800
040E00
040600
040100
080080
08FFC0
FF0040
600040
ENDCHAR
STARTCHAR 30E1
ENCODING 12513
SWIDTH 1008 0
DWIDTH 21 0
BBX 16 18 2 -2
BITMAP
0006
0003
0002
0006
0004
000C
0608
01D8
0030
0028
0028
00C4
0186
0202
0400
0800
3000
C000
ENDCHAR
STARTCHAR 30E2
ENCODING 12514
SWIDTH 1008 0
DWIDTH 21 0
BBX 19 16 1 -1
BITMAP
000600
3FFF00
190000
01C000
010000
010180
011FE0
FFE000
E10000
610000
010000
010000
010000
010000
00C0C0
007F80
ENDCHAR
STARTCHAR 30E3
ENCODING 12515
SWIDTH 1008 0
DWIDTH 21 0
BBX 16 15 2 -2
BITMAP
0C00
0600
0200
0202
023F
0FC4
FE08
F208
4210
0180
0180
0180
00C0
00C0
00C0
ENDCHAR
STARTCHAR 30E4
ENCODING 12516
SWIDTH 1008 0
DWIDTH 21 0
BBX 19 19 1 -2
BITMAP
060000
0E0000
020000
020040
0107E0
0178C0
03C100
FD0200
60C400
00C800
00C800
00C000
006000
006000
006000
007000
001000
001000
001000
ENDCHAR
STARTCHAR 30E5
ENCODING 12517
SWIDTH 1008 0
DWIDTH 21 0
BBX 15 11 3 -1
BITMAP
0020
3FF0
1020
1020
0020
0060
0040
0040
0FF8
F00E
4000
ENDCHAR
STARTCHAR 30E6
ENCODING 12518
SWIDTH 1008 0
DWIDTH 21 0
BBX 19 13 1 1
BITMAP
000200
1FFF00
0C0400
000400
000C00
000800
000800
001800
001000
001000
03FF80
FC00E0
600000
ENDCHAR
STARTCHAR 30E7
ENCODING 12519
SWIDTH 1008 0
DWIDTH 21 0
BBX 14 13 3 -1
BITMAP
0008
7FFC
3008
0008
0010
0010
3FF0
1010
0020
0020
0020
FFF0
6010
ENDCHAR
STARTCHAR 30E8
ENCODING 12520
SWIDTH 1008 0
DWIDTH 21 0
BBX 17 15 2 0
BITMAP
000100
7FFF80
300100
000100
000100
000200
3FFE00
180200
180200
000200
000400
000400
000400
FFFE00
600200
ENDCHAR
STARTCHAR 30E9
ENCODING 12521
SWIDTH 1008 0
DWIDTH 21 0
BBX 17 19 2 -2
BITMAP
000C00
3FFE00
180000
000000
000100
803F80
FFC100
600100
000300
000200
000200
000600
000400
000800
001000
002000
00C000
038000
0C0000
ENDCHAR
STARTCHAR 30EA
ENCODING 12522
SWIDTH 1008 0
DWIDTH 21 0
BBX 12 19 5 -2
BITMAP
0060
C030
6010
2010
2010
2010
2010
2010
2020
2020
2020
2020
0060
0040
0080
0080
0100
0600
1C00
ENDCHAR
STARTCHAR 30EB
ENCODING 12523
SWIDTH 1008 0
DWIDTH 21 0
BBX 20 17 0 -1
BITMAP
007000
003800
0C3800
063000
063000
043000
043000
043000
0C3010
083020
083020
083040
103080
103100
203600
403C00
800800
ENDCHAR
STARTCHAR 30EC
ENCODING 12524
SWIDTH 1008 0
DWIDTH 21 0
BBX 15 18 4 -2
BITMAP
C000
6000
2000
2000
2000
2000
2000
4002
4004
4008
4008
4010
4020
40C0
4380
4E00
F800
6000
ENDCHAR
STARTCHAR 30ED
ENCODING 12525
SWIDTH 1008 0
DWIDTH 21 0
BBX 17 14 2 0
BITMAP
800100
40FF80
7FC100
400100
400100
400100
200300
200200
200200
200200
200200
200200
3FFE00
200200
ENDCHAR
STARTCHAR 30EE
ENCODING 12526
SWIDTH 1008 0
DWIDTH 21 0
BBX 13 14 4 -2
BITMAP
8010
43F8
7E10
4010
4030
4020
4020
0020
0040
0040
0080
0300
0600
1800
ENDCHAR
STARTCHAR 30EF
ENCODING 12527
SWIDTH 1008 0
DWIDTH 21 0
BBX 16 18 3 -2
BITMAP
8002
41FF
7F02
4002
4002
4006
4004
400C
0008
0008
0008
0010
0010
0020
0040
0180
0700
1800
ENDCHAR
STARTCHAR 30F0
ENCODING 12528
SWIDTH 1008 0
DWIDTH 21 0
BBX 19 19 1 -2
BITMAP
007000
001800
001000
001000
007F00
3FD180
081000
041000
061000
041000
041FC0
04FFC0
FF1060
601000
001000
001000
007000
007000
001000
ENDCHAR
STARTCHAR 30F1
ENCODING 12529
SWIDTH 1008 0
DWIDTH 21 0
BBX 19 14 1 0
BITMAP
001F00
3FE380
180600
01C800
00D000
00E000
00C000
00C000
00C000
00C000
00C000
01FF80
FE00E0
600000
ENDCHAR
STARTCHAR 30F2
ENCODING 12530
SWIDTH 1008 0
DWIDTH 21 0
BBX 15 18 4 -2
BITMAP
0004
00FE
FF04
3004
0008
0008
03FC
FE10
3010
3030
0020
0020
0040
0080
0300
0600
1800
6000
ENDCHAR
STARTCHAR 30F3
ENCODING 12531
SWIDTH 1008 0
DWIDTH 21 0
BBX 17 16 2 -1
BITMAP
600000
180000
0C0000
040080
000100
000200
000400
000800
001000
001000
002000
00C000
038000
8C0000
780000
200000
ENDCHAR
STARTCHAR 30F4
ENCODING 12532
SWIDTH 1008 0
DWIDTH 21 0
BBX 19 20 2 -2
BITMAP
000080
038260
01C1A0
018080
818200
43FF00
7C0200
400200
400200
400600
400400
400400
000400
000800
000800
001000
002000
00C000
038000
0C0000
ENDCHAR
STARTCHAR 30F5
ENCODING 12533
SWIDTH 1008 0
DWIDTH 21 0
BBX 14 15 4 -2
BITMAP
0700
0380
0300
0308
03FC
FF08
C608
4608
0608
0808
0810
1010
2310
40E0
8040
ENDCHAR
STARTCHAR 30F6
ENCODING 12534
SWIDTH 1008 0
DWIDTH 21 0
BBX 15 15 2 -2
BITMAP
0400
0600
0400
0C04
08FE
1FC0
3FE0
20E0
40C0
80C0
0180
0180
0200
0400
1800
ENDCHAR
STARTCHAR 30FB
ENCODING 12539
SWIDTH 1008 0
DWIDTH 21 0
BBX 5 5 8 5
BITMAP
70
F8
F8
F0
70
ENDCHAR
STARTCHAR 30FC
ENCODING 12540
SWIDTH 1008 0
DWIDTH 21 0
BBX 18 4 2 6
BITMAP
800380
DFFFC0
380000
380000
ENDCHAR
STARTCHAR 30FD
ENCODING 12541
SWIDTH 1008 0
DWIDTH 21 0
BBX 10 9 6 3
BITMAP
C000
2000
1C00
0200
0300
0380
0180
00C0
00C0
ENDCHAR
STARTCHAR 30FE
ENCODING 12542
SWIDTH 1008 0
DWIDTH 21 0
BBX 11 12 5 3
BITMAP
0080
0060
0620
C180
2080
1C00
0600
0700
0780
0180
00C0
00C0
ENDCHAR
STARTCHAR 4E00
ENCODING 19968
SWIDTH 1008 0
DWIDTH 21 0
BBX 20 2 1 8
BITMAP
000020
FFFFF0
ENDCHAR
STARTCHAR 4E01
ENCODING 19969
SWIDTH 1008 0
DWIDTH 21 0
BBX 20 21 1 -3
BITMAP
000020
FFFFF0
006000
006000
006000
006000
006000
006000
006000
006000
006000
006000
006000
006000
006000
006000
006000
006000
006000
03E000
00C000
ENDCHAR
STARTCHAR 4E03
ENCODING 19971
SWIDTH 1008 0
DWIDTH 21 0
BBX 20 21 1 -3
BITMAP
030000
020000
020000
020000
020000
020020
0201F0
021F00
03F000
3E0000
E20000
E20000
020000
020000
020000
020000
020000
020080
020080
0300C0
01FF80
ENDCHAR
STARTCHAR 4E07
ENCODING 19975
SWIDTH 1008 0
DWIDTH 21 0
BBX 20 20 1 -3
BITMAP
000020
FFFFF0
010000
010000
010000
010000
010080
01FFC0
010080
030080
020080
020080
020080
060080
040180
0C0100
080100
100300
201E00
400400
ENDCHAR
STARTCHAR 4E08
ENCODING 19976
SWIDTH 1008 0
DWIDTH 21 0
BBX 20 21 1 -3
BITMAP
007000
006000
006000
006020
FFFFF0
006000
086000
086000
046000
046000
026000
036000
016000
00E000
00E000
00D000
010800
020600
040380
1800F0
E00020
ENDCHAR
STARTCHAR 4E09
ENCODING 19977
SWIDTH 1008 0
DWIDTH 21 0
BBX 20 17 1 -1
BITMAP
000080
3FFFC0
000000
000000
000000
000000
000000
000200
0FFF00
0FFF00
000000
000000
000000
000000
000000
000020
FFFFF0
ENDCHAR
STARTCHAR 4E0A
ENCODING 19978
SWIDTH 1008 0
DWIDTH 21 0
BBX 20 20 1 -2
BITMAP
007000
006000
006000
006000
006000
006000
006000
006080
007FC0
006000
006000
006000
006000
006000
006000
006000
006000
006000
006020
FFFFF0
ENDCHAR
STARTCHAR 4E0B
ENCODING 19979
SWIDTH 1008 0
DWIDTH 21 0
BBX 20 20 1 -3
BITMAP
000020
FFFFF0
006000
006000
006000
006000
007000
006C00
006200
006300
006300
006100
006000
006000
006000
006000
006000
006000
006000
006000
ENDCHAR
STARTCHAR 4E0D
ENCODING 19981
SWIDTH 1008 0
DWIDTH 21 0
BBX 20 20 1 -3
BITMAP
000020
FFFFF0
001800
007000
006000
00F200
016100
026080
046040
086060
106060
306020
C06020
006000
006000
006000
006000
006000
006000
006000
ENDCHAR
STARTCHAR 4E0E
ENCODING 19982
SWIDTH 1008 0
DWIDTH 21 0
BBX 20 21 1 -3
BITMAP
030000
020000
020000
020200
07FF00
040000
040000
040200
0FFF00
080200
000200
000220
000220
FFFFF0
000400
000400
000C00
000800
001800
01F000
006000
ENDCHAR
STARTCHAR 4E10
ENCODING 19984
SWIDTH 1008 0
DWIDTH 21 0
BBX 20 21 1 -3
BITMAP
000020
FFFFF0
006000
006000
006000
186040
107FE0
106000
106000
106040
3FFFE0
200040
200040
200040
000040
000080
000080
000080
000300
001E00
000400
ENDCHAR
STARTCHAR 4E11
ENCODING 19985
SWIDTH 1008 0
DWIDTH 21 0
BBX 20 19 1 -2
BITMAP
000200
7FFF00
010200
010200
010200
020200
020200
020220
FFFFF0
040200
040200
040200
040200
040200
080200
080200
080200
080220
FFFFF0
ENDCHAR
STARTCHAR 4E14
ENCODING 19988
SWIDTH 1008 0
DWIDTH 21 0
BBX 20 19 1 -2
BITMAP
040200
07FF00
040200
040200
040200
040200
07FE00
040200
040200
040200
040200
040200
07FE00
040200
040200
040200
040200
040220
FFFFF0
ENDCHAR
STARTCHAR 4E15
ENCODING 19989
SWIDTH 1008 0
DWIDTH 21 0
BBX 20 19 1 -2
BITMAP
000040
7FFFE0
007000
006000
00F000
00E600
016100
026080
046040
086060
106060
306020
C06020
006000
006000
006000
006000
000020
FFFFF0
ENDCHAR
STARTCHAR 4E16
ENCODING 19990
SWIDTH 1008 0
DWIDTH 21 0
BBX 20 21 1 -3
BITMAP
187180
106100
106100
106100
106100
106120
FFFFF0
106100
106100
106100
106100
106100
106100
106100
107F00
106100
100000
100000
100040
1FFFE0
100000
ENDCHAR
STARTCHAR 4E17
ENCODING 19991
SWIDTH 1008 0
DWIDTH 21 0
BBX 20 21 1 -3
BITMAP
0C7180
086100
086100
086100
086100
086100
086100
086120
FFFFF0
086100
086100
086100
086100
086100
086100
086100
086100
086100
086100
0FFF00
080100
ENDCHAR
STARTCHAR 4E18
ENCODING 19992
SWIDTH 1008 0
DWIDTH 21 0
BBX 20 19 1 -1
BITMAP
000200
001F00
08F000
0F0000
080000
080000
080000
080080
0FFFC0
080400
080400
080400
080400
080400
080400
080400
080400
080420
FFFFF0
ENDCHAR
STARTCHAR 4E19
ENCODING 19993
SWIDTH 1008 0
DWIDTH 21 0
BBX 20 21 1 -3
BITMAP
000020
FFFFF0
006000
006000
206040
3FFFE0
206040
206040
20D040
20C840
210440
220640
220640
2C0240
200040
200040
200040
200040
200040
2003C0
200080
ENDCHAR
STARTCHAR 4E1E
ENCODING 19998
SWIDTH 1008 0
DWIDTH 21 0
BBX 20 20 1 -2
BITMAP
000200
1FFF00
000400
000800
007000
006040
026060
7F70C0
026880
026500
046200
086300
086100
1060C0
206070
C06020
03E000
00C000
000040
7FFFE0
ENDCHAR
STARTCHAR 4E21
ENCODING 20001
SWIDTH 1008 0
DWIDTH 21 0
BBX 20 21 1 -3
BITMAP
000020
FFFFF0
006000
006000
006000
406020
7FFFF0
406020
406020
466320
446220
446220
446220
446220
446220
47FE20
440220
440220
400020
4001E0
400040
ENDCHAR
STARTCHAR 4E26
ENCODING 20006
SWIDTH 1008 0
DWIDTH 21 0
BBX 20 19 1 -1
BITMAP
080200
040300
020600
020400
000840
7FFFE0
010800
010800
010840
410860
2108C0
310880
110880
090900
090900
010A00
010800
010820
FFFFF0
ENDCHAR
STARTCHAR 4E2A
ENCODING 20010
SWIDTH 1008 0
DWIDTH 21 0
BBX 20 21 1 -3
BITMAP
007000
006000
00D000
00C800
010800
020400
040200
087100
1060C0
206070
C06020
C06020
006000
006000
006000
006000
006000
006000
006000
006000
006000
ENDCHAR
STARTCHAR 4E2D
ENCODING 20013
SWIDTH 1008 0
DWIDTH 21 0
BBX 19 21 2 -3
BITMAP
00E000
00C000
00C000
00C000
00C000
80C040
FFFFE0
80C040
80C040
80C040
80C040
80C040
80C040
FFFFC0
80C040
00C000
00C000
00C000
00C000
00C000
00C000
ENDCHAR
STARTCHAR 4E31
ENCODING 20017
SWIDTH 1008 0
DWIDTH 21 0
BBX 19 21 2 -3
BITMAP
060C00
040800
040800
C40860
840840
840840
840840
840840
840840
840840
840840
840840
840840
FC0FC0
840840
080800
080800
100800
100800
200800
C00800
ENDCHAR
STARTCHAR 4E32
ENCODING 20018
SWIDTH 1008 0
DWIDTH 21 0
BBX 19 21 2 -3
BITMAP
00E000
00C000
40C080
7FFFC0
40C080
40C080
40C080
7FFF80
40C080
00C000
80C040
80C060
FFFFE0
80C040
80C040
80C040
FFFFC0
80C040
00C000
00C000
00C000
ENDCHAR
STARTCHAR 4E36
ENCODING 20022
SWIDTH 1008 0
DWIDTH 21 0
BBX 13 13 4 1
BITMAP
C000
3000
0E00
0300
0080
0040
0020
0020
0020
0010
0018
0008
0008
ENDCHAR
STARTCHAR 4E38
ENCODING 20024
SWIDTH 1008 0
DWIDTH 21 0
BBX 20 21 1 -3
BITMAP
030000
020000
020000
020000
020000
020400
FFFE00
020400
020400
020400
320400
3E0400
0C0400
060400
050400
09C400
08C420
100420
100420
200630
C003E0
ENDCHAR
STARTCHAR 4E39
ENCODING 20025
SWIDTH 1008 0
DWIDTH 21 0
BBX 20 21 1 -3
BITMAP
080100
0FFF80
080100
080100
09C100
087100
081900
080900
080100
080120
FFFFF0
F80100
080100
080100
180100
100100
100100
200100
200100
400F00
800200
ENDCHAR
STARTCHAR 4E3B
ENCODING 20027
SWIDTH 1008 0
DWIDTH 21 0
BBX 20 20 1 -2
BITMAP
010000
00E000
007000
001000
000040
7FFFE0
006000
006000
006000
006000
006100
006180
1FFF80
006000
006000
006000
006000
006000
006020
FFFFF0
ENDCHAR
STARTCHAR 4E3C
ENCODING 20028
SWIDTH 1008 0
DWIDTH 21 0
BBX 20 21 1 -3
BITMAP
060300
040200
040200
040200
040240
7FFFE0
040200
04C200
046200
041200
041200
041220
040220
FFFFF0
040200
040200
080200
080200
100200
200200
400200
ENDCHAR
STARTCHAR 4E3F
ENCODING 20031
SWIDTH 1008 0
DWIDTH 21 0
BBX 12 21 1 -3
BITMAP
0070
0060
0060
0060
0060
0060
0060
00C0
00C0
00C0
0100
0100
0100
0100
0200
0200
0400
0800
1000
2000
C000
ENDCHAR
STARTCHAR 4E42
ENCODING 20034
SWIDTH 1008 0
DWIDTH 21 0
BBX 20 21 1 -3
BITMAP
100100
100180
300100
280300
680200
480200
040400
040400
040800
020800
021000
031000
011000
016000
00C000
016000
021000
040C00
080380
3000F0
C00020
ENDCHAR
STARTCHAR 4E43
ENCODING 20035
SWIDTH 1008 0
DWIDTH 21 0
BBX 20 21 1 -3
BITMAP
000200
7FFF00
020200
020200
020600
020400
020400
020420
040FF0
040820
040020
040020
040060
080040
080040
080040
1000C0
100080
200180
400F00
800200
ENDCHAR
STARTCHAR 4E45
ENCODING 20037
SWIDTH 1008 0
DWIDTH 21 0
BBX 19 21 1 -3
BITMAP
030000
020000
020800
07FC00
040800
040800
0C0800
080800
101C00
101400
207400
606400
406400
00C200
00C200
010100
020100
040080
0800C0
300060
C00040
ENDCHAR
STARTCHAR 4E4B
ENCODING 20043
SWIDTH 1008 0
DWIDTH 21 0
BBX 20 21 1 -3
BITMAP
007000
006000
006000
006000
006040
7FFFE0
0000C0
000180
000100
000200
000400
000800
000800
001000
0C6000
08C000
150000
220000
41C000
807800
0007F0
ENDCHAR
STARTCHAR 4E4D
ENCODING 20045
SWIDTH 1008 0
DWIDTH 21 0
BBX 20 21 1 -3
BITMAP
0C0000
080000
080000
080020
1FFFF0
106000
306000
206000
406040
807FE0
006000
006000
006000
006000
006040
007FE0
006000
006000
006000
006000
006000
ENDCHAR
STARTCHAR 4E4E
ENCODING 20046
SWIDTH 1008 0
DWIDTH 21 0
BBX 20 21 1 -3
BITMAP
000200
000F00
007800
03E000
3C6080
1061C0
086100
046200
046400
006020
FFFFF0
FFE000
006000
006000
006000
006000
006000
006000
006000
03E000
00C000
ENDCHAR
STARTCHAR 4E4F
ENCODING 20047
SWIDTH 1008 0
DWIDTH 21 0
BBX 20 21 1 -3
BITMAP
000100
000F80
01F800
3E6000
006000
006000
006000
006040
7FFFE0
000180
000300
000200
000600
000800
101000
106000
18C000
270000
21C000
407800
8007F0
ENDCHAR
STARTCHAR 4E55
ENCODING 20053
SWIDTH 1008 0
DWIDTH 21 0
BBX 20 21 1 -3
BITMAP
000080
1007C0
1FF800
100800
100820
1FFFF0
100800
100820
1FFFF0
100800
100800
120820
120820
13FFF0
220820
220820
220820
420820
4209E0
820840
000800
ENDCHAR
STARTCHAR 4E56
ENCODING 20054
SWIDTH 1008 0
DWIDTH 21 0
BBX 20 21 1 -3
BITMAP
000100
000780
00FC00
3F6000
006000
006020
FFFFF0
006000
066300
046220
FC6270
FC6280
046380
046200
046200
1C6220
E46220
446230
0461E0
006000
006000
ENDCHAR
STARTCHAR 4E57
ENCODING 20055
SWIDTH 1008 0
DWIDTH 21 0
BBX 20 21 1 -3
BITMAP
000200
007F00
1FE000
006040
7FFFE0
086100
086100
086120
FFFFF0
086100
086100
086140
086140
7FFFE0
00F000
016800
026600
0C6180
3060F0
C06020
006000
ENDCHAR
STARTCHAR 4E58
ENCODING 20056
SWIDTH 1008 0
DWIDTH 21 0
BBX 20 21 1 -3
BITMAP
000200
007F00
1FE000
006020
FFFFF0
006000
066320
046270
FC6380
046220
1C6220
FC6230
E46230
44E1E0
017000
026800
046600
086180
3060F0
C06020
006000
ENDCHAR
STARTCHAR 4E59
ENCODING 20057
SWIDTH 1008 0
DWIDTH 21 0
BBX 20 20 1 -2
BITMAP
000200
7FFF00
000C00
001800
007000
00C000
010000
020000
040000
080000
100000
200000
200000
400000
400000
800000
800020
C00020
700030
1FFFE0
ENDCHAR
STARTCHAR 4E5D
ENCODING 20061
SWIDTH 1008 0
DWIDTH 21 0
BBX 20 21 1 -3
BITMAP
030000
020000
020000
020000
020000
020400
FFFE00
020400
020400
020400
040400
040400
040400
040400
040400
080400
080420
100420
100420
200630
C003E0
ENDCHAR
STARTCHAR 4E5E
ENCODING 20062
SWIDTH 1008 0
DWIDTH 21 0
BBX 19 21 1 -3
BITMAP
180000
100000
100000
200040
3FFFE0
200000
400000
800100
0FFF80
000C00
007000
01F000
01C000
060000
080000
100000
200000
200040
200040
100060
0FFFC0
ENDCHAR
STARTCHAR 4E5F
ENCODING 20063
SWIDTH 1008 0
DWIDTH 21 0
BBX 20 21 1 -3
BITMAP
001800
0C1000
081000
081000
081040
0813E0
087C40
0BD040
1C1040
E81040
081040
081040
081040
0813C0
081080
081000
081000
080020
080020
0C0030
07FFE0
ENDCHAR
STARTCHAR 4E62
ENCODING 20066
SWIDTH 1008 0
DWIDTH 21 0
BBX 20 21 1 -3
BITMAP
0C0600
080400
080400
080400
C8E400
88C400
88C400
88C400
88C400
88C400
88C400
88C400
88C400
88C400
88C400
88C400
FFC400
80C420
800420
000430
0003E0
ENDCHAR
STARTCHAR 4E71
ENCODING 20081
SWIDTH 1008 0
DWIDTH 21 0
BBX 20 21 1 -3
BITMAP
010600
07C400
7C0400
080400
080400
080400
08C400
FFE400
080400
080400
080400
490400
490400
7FC400
410400
410400
410400
410420
410420
7F0430
4103E0
ENDCHAR
STARTCHAR 4E73
ENCODING 20083
SWIDTH 1008 0
DWIDTH 21 0
BBX 20 21 1 -3
BITMAP
00C600
03E400
FE0400
00C400
48E400
24C400
250400
010400
02C400
7FE400
00C400
010400
010400
060400
040400
07E400
FC0400
440420
040420
3C0630
0803E0
ENDCHAR
STARTCHAR 4E7E
ENCODING 20094
SWIDTH 1008 0
DWIDTH 21 0
BBX 20 21 1 -3
BITMAP
180C00
100800
120800
FF0820
101FF0
101000
7E6000
426040
42CFE0
7E0040
420080
420180
420100
7E0200
520400
100800
121000
FF7020
106020
101030
100FE0
ENDCHAR
STARTCHAR 4E80
ENCODING 20096
SWIDTH 1008 0
DWIDTH 21 0
BBX 20 21 1 -3
BITMAP
070000
040400
0FFE00
100800
301100
DFFF80
10C100
1FFF00
10C100
1FFF00
10C100
20C180
20C080
3FFFC0
20C080
3FFF80
20C080
3FFFA0
20C0A0
00C030
007FE0
ENDCHAR
STARTCHAR 4E82
ENCODING 20098
SWIDTH 1008 0
DWIDTH 21 0
BBX 20 21 1 -3
BITMAP
00C300
07E200
7D0200
48C200
44C200
850200
FFC200
020200
140200
886200
FFF200
886200
886200
926200
BF6200
916200
826200
BF6220
946220
8DE230
B2C1E0
ENDCHAR
STARTCHAR 4E85
ENCODING 20101
SWIDTH 1008 0
DWIDTH 21 0
BBX 6 21 7 -3
BITMAP
1C
18
18
18
18
18
18
18
18
18
18
18
18
18
18
18
18
18
18
F8
30
ENDCHAR
STARTCHAR 4E86
ENCODING 20102
SWIDTH 1008 0
DWIDTH 21 0
BBX 14 21 4 -3
BITMAP
0008
FFFC
0018
0030
0040
0380
0300
0300
0300
0300
0300
0300
0300
0300
0300
0300
0300
0300
0300
1F00
0600
ENDCHAR
STARTCHAR 4E88
ENCODING 20104
SWIDTH 1008 0
DWIDTH 21 0
BBX 20 21 1 -3
BITMAP
000100
1FFF80
000300
000400
010800
00D000
006000
006020
FFFFF0
006060
006040
0060C0
006080
006100
006000
006000
006000
006000
006000
03E000
00C000
ENDCHAR
STARTCHAR 4E89
ENCODING 20105
SWIDTH 1008 0
DWIDTH 21 0
BBX 20 21 1 -3
BITMAP
060000
040400
0FFE00
100800
201000
406100
BFFF80
00C100
00C120
FFFFF0
00C100
00C100
00C100
00C100
3FFF00
00C100
00C000
00C000
00C000
07C000
010000
ENDCHAR
STARTCHAR 4E8A
ENCODING 20106
SWIDTH 1008 0
DWIDTH 21 0
BBX 20 21 1 -3
BITMAP
007000
006000
006040
7FFFE0
086200
046300
046200
046480
3FFFC0
006080
0060A0
0060B0
FFFFF0
006080
006080
3FFF80
006080
006000
006000
03E000
00C000
ENDCHAR
STARTCHAR 4E8B
ENCODING 20107
SWIDTH 1008 0
DWIDTH 21 0
BBX 20 21 1 -3
BITMAP
007000
006000
006040
7FFFE0
006000
0FFF00
086100
086100
0FFF00
006000
1FFF80
1FE0A0
0060A0
FFFFF0
006080
1FFF80
006080
006000
006000
03E000
00C000
ENDCHAR
STARTCHAR 4E8C
ENCODING 20108
SWIDTH 1008 0
DWIDTH 21 0
BBX 20 14 1 1
BITMAP
000100
1FFF80
000000
000000
000000
000000
000000
000000
000000
000000
000000
000000
000020
FFFFF0
ENDCHAR
STARTCHAR 4E8E
ENCODING 20110
SWIDTH 1008 0
DWIDTH 21 0
BBX 20 21 1 -3
BITMAP
000080
3FFFC0
006000
006000
006000
006000
006000
006000
006020
FFFFF0
006000
006000
006000
006000
006000
006000
006000
006000
006000
03E000
00C000
ENDCHAR
STARTCHAR 4E91
ENCODING 20113
SWIDTH 1008 0
DWIDTH 21 0
BBX 20 20 1 -3
BITMAP
000100
1FFF80
000000
000000
000000
000000
000020
FFFFF0
01C000
010000
030000
020000
020000
040600
040100
080080
107FC0
FFC060
600020
000020
ENDCHAR
STARTCHAR 4E92
ENCODING 20114
SWIDTH 1008 0
DWIDTH 21 0
BBX 20 20 1 -2
BITMAP
000040
7FFFE0
010000
010000
030000
020000
020100
07FF80
040100
040100
0C0300
080200
080200
0FFE00
080400
000400
000C00
000800
000820
FFFFF0
ENDCHAR
STARTCHAR 4E94
ENCODING 20116
SWIDTH 1008 0
DWIDTH 21 0
BBX 20 18 1 -1
BITMAP
000100
1FFF80
006000
006000
00E000
00C000
00C000
00C200
0FFF00
010200
010200
010200
010200
030200
020200
020200
020220
FFFFF0
ENDCHAR
STARTCHAR 4E95
ENCODING 20117
SWIDTH 1008 0
DWIDTH 21 0
BBX 20 21 1 -3
BITMAP
030600
020400
020400
020400
020440
7FFFE0
020400
020400
020400
020400
020400
020420
020420
FFFFF0
040400
040400
040400
080400
080400
100400
200400
ENDCHAR
STARTCHAR 4E98
ENCODING 20120
SWIDTH 1008 0
DWIDTH 21 0
BBX 20 20 1 -2
BITMAP
000040
7FFFE0
000000
000000
080100
0FFF80
080100
080100
080100
0FFF00
080100
080100
080100
080100
080100
0FFF00
080100
000000
000020
FFFFF0
ENDCHAR
STARTCHAR 4E99
ENCODING 20121
SWIDTH 1008 0
DWIDTH 21 0
BBX 20 20 1 -2
BITMAP
000040
7FFFE0
020000
020000
020100
07FF80
040100
04C100
046100
041300
081200
091200
090200
08C200
086200
006600
000400
000400
000420
FFFFF0
ENDCHAR
STARTCHAR 4E9B
ENCODING 20123
SWIDTH 1008 0
DWIDTH 21 0
BBX 20 20 1 -2
BITMAP
0C0C00
080800
080840
0908E0
4FC980
480E00
480800
480800
480820
4FC820
F80830
C00820
4007E0
000000
000100
1FFF80
000000
000000
000020
FFFFF0
ENDCHAR
STARTCHAR 4E9C
ENCODING 20124
SWIDTH 1008 0
DWIDTH 21 0
BBX 20 20 1 -2
BITMAP
000040
7FFFE0
020800
020800
020800
220880
3FFFC0
220880
220880
220880
220880
220880
220880
3FFF80
220880
020800
020800
020800
020820
FFFFF0
ENDCHAR
STARTCHAR 4E9E
ENCODING 20126
SWIDTH 1008 0
DWIDTH 21 0
BBX 20 20 1 -2
BITMAP
000040
7FFFE0
020400
020400
020400
420420
7E07F0
420420
400020
400020
400020
420420
420420
7F07E0
420420
020400
020400
020400
020420
FFFFF0
ENDCHAR
STARTCHAR 4E9F
ENCODING 20127
SWIDTH 1008 0
DWIDTH 21 0
BBX 20 20 1 -2
BITMAP
000040
7FFFE0
020000
020000
026000
07F000
046020
406FF0
7C6420
446420
446240
446280
446280
7C6100
44E2C0
40C470
07D820
010000
000020
FFFFF0
ENDCHAR
STARTCHAR 4EA0
ENCODING 20128
SWIDTH 1008 0
DWIDTH 21 0
BBX 20 7 1 5
BITMAP
007000
006000
006000
006000
006020
006030
FFFFF0
ENDCHAR
STARTCHAR 4EA1
ENCODING 20129
SWIDTH 1008 0
DWIDTH 21 0
BBX 20 20 1 -2
BITMAP
007000
006000
006000
006000
006020
FFFFF0
080000
080000
080000
080000
080000
080000
080000
080000
080000
080000
080000
080000
0C0000
07FFC0
ENDCHAR
STARTCHAR 4EA2
ENCODING 20130
SWIDTH 1008 0
DWIDTH 21 0
BBX 20 21 1 -3
BITMAP
007000
006000
006000
006020
FFFFF0
000000
000000
020400
03FE00
020400
020400
020400
020400
020400
020400
040400
040400
080420
100420
200430
C003E0
ENDCHAR
STARTCHAR 4EA4
ENCODING 20132
SWIDTH 1008 0
DWIDTH 21 0
BBX 20 21 1 -3
BITMAP
007000
006000
006020
FFFFF0
040000
060600
0C0180
100040
200460
C20620
020C00
030800
010800
011800
00F000
006000
00D000
010C00
060380
1800F0
E00020
ENDCHAR
STARTCHAR 4EA5
ENCODING 20133
SWIDTH 1008 0
DWIDTH 21 0
BBX 20 21 1 -3
BITMAP
007000
006000
006000
006020
FFFFF0
00C000
00E200
110700
0A0C00
040880
0610C0
062080
026180
01C200
020400
0C0800
707600
00C180
030040
0C0060
700020
ENDCHAR
STARTCHAR 4EA6
ENCODING 20134
SWIDTH 1008 0
DWIDTH 21 0
BBX 20 21 1 -3
BITMAP
007000
006000
006000
006020
FFFFF0
010400
010400
010400
110500
190480
110440
310460
210420
230430
420410
820410
020400
040400
040400
087C00
100800
ENDCHAR
STARTCHAR 4EA8
ENCODING 20136
SWIDTH 1008 0
DWIDTH 21 0
BBX 20 21 1 -3
BITMAP
007000
006000
006020
FFFFF0
000000
0FFF00
080100
080100
0FFF00
080100
000040
000060
7FFFE0
000300
000C00
007000
006000
006000
006000
03E000
00C000
ENDCHAR
STARTCHAR 4EAB
ENCODING 20139
SWIDTH 1008 0
DWIDTH 21 0
BBX 20 21 1 -3
BITMAP
007000
006020
FFFFF0
000000
0FFF00
080100
080100
0FFF00
000080
3FFFC0
000300
000400
000C00
007000
006020
FFFFF0
006000
006000
006000
03E000
00C000
ENDCHAR
STARTCHAR 4EAC
ENCODING 20140
SWIDTH 1008 0
DWIDTH 21 0
BBX 20 21 1 -3
BITMAP
007000
006000
006000
006020
FFFFF0
000000
080100
0FFF80
080100
080100
080100
080100
0FFF00
086100
006000
046600
0E6100
1860C0
206060
C3E020
00C000
ENDCHAR
STARTCHAR 4EAD
ENCODING 20141
SWIDTH 1008 0
DWIDTH 21 0
BBX 20 21 1 -3
BITMAP
007000
006000
006020
FFFFF0
000000
0FFF00
080100
080100
0FFF00
400020
7FFFF0
400020
C00020
800140
1FFF80
006000
006000
006000
006000
03E000
00C000
ENDCHAR
STARTCHAR 4EAE
ENCODING 20142
SWIDTH 1008 0
DWIDTH 21 0
BBX 20 21 1 -3
BITMAP
007000
006000
006020
FFFFF0
000000
0FFF00
080100
080100
0FFF00
400020
7FFFF0
400020
400020
C30C40
820880
020800
060800
040820
080820
300C30
C007E0
ENDCHAR
STARTCHAR 4EB0
ENCODING 20144
SWIDTH 1008 0
DWIDTH 21 0
BBX 20 21 1 -3
BITMAP
007000
006000
006020
FFFFF0
000000
080100
0FFF80
080100
080100
0FFF00
080100
080100
080100
0FFF00
006000
086000
0C6700
1060C0
206060
C3E020
00C000
ENDCHAR
STARTCHAR 4EB3
ENCODING 20147
SWIDTH 1008 0
DWIDTH 21 0
BBX 20 21 1 -3
BITMAP
007000
006000
006040
7FFFE0
000000
0FFF00
080100
0FFF00
400020
7FFFF0
400020
400860
C00840
807E80
0FE000
006080
007FC0
7FE000
006020
007030
001FE0
ENDCHAR
STARTCHAR 4EB6
ENCODING 20150
SWIDTH 1008 0
DWIDTH 21 0
BBX 20 20 1 -2
BITMAP
007000
006020
FFFFF0
000000
1FFF80
100080
13FC80
120480
13FC80
100080
1FFF80
1FFF80
000000
0FFF00
080100
0FFF00
080100
0FFF00
000020
FFFFF0
ENDCHAR
STARTCHAR 4EBA
ENCODING 20154
SWIDTH 1008 0
DWIDTH 21 0
BBX 20 21 1 -3
BITMAP
007000
006000
006000
006000
006000
006000
006000
00E000
00D000
00D000
00C800
010800
010800
010400
020600
020200
040300
080180
1000C0
200070
C00020
ENDCHAR
STARTCHAR 4EC0
ENCODING 20160
SWIDTH 1008 0
DWIDTH 21 0
BBX 20 21 1 -3
BITMAP
0C0600
080400
080400
180400
100400
300400
300420
33FFF0
500400
500400
900400
900400
100400
100400
100400
100400
100400
100400
100400
100400
100400
ENDCHAR
STARTCHAR 4EC1
ENCODING 20161
SWIDTH 1008 0
DWIDTH 21 0
BBX 20 21 1 -3
BITMAP
060000
040000
040000
0C0040
08FFE0
180000
180000
280000
280000
480000
880000
880000
080000
080000
080000
080000
080020
09FFF0
080000
080000
080000
ENDCHAR
STARTCHAR 4EC2
ENCODING 20162
SWIDTH 1008 0
DWIDTH 21 0
BBX 20 21 1 -3
BITMAP
0C0C00
080800
080800
180800
100800
300820
33FFF0
300820
500820
500820
901020
901020
101020
101020
101020
106060
106040
10C040
10C0C0
110780
120100
ENDCHAR
STARTCHAR 4EC4
ENCODING 20164
SWIDTH 1008 0
DWIDTH 21 0
BBX 20 21 1 -3
BITMAP
100020
1FFFF0
100000
101800
101000
101000
101000
101000
101000
101000
106800
106800
106800
206400
20C400
20C200
210100
410080
4200C0
840070
180020
ENDCHAR
STARTCHAR 4EC6
ENCODING 20166
SWIDTH 1008 0
DWIDTH 21 0
BBX 20 21 1 -3
BITMAP
030600
020400
060400
040400
0C0400
080400
180600
180500
280480
480440
880420
880430
080430
080410
080400
080400
080400
080400
080400
080400
080400
ENDCHAR
STARTCHAR 4EC7
ENCODING 20167
SWIDTH 1008 0
DWIDTH 21 0
BBX 20 21 1 -3
BITMAP
0C1800
081000
081000
181000
101000
301100
33FF80
301100
501100
501100
901100
901100
101100
101100
106100
106100
106100
10C120
10C120
110130
1200E0
ENDCHAR
STARTCHAR 4ECA
ENCODING 20170
SWIDTH 1008 0
DWIDTH 21 0
BBX 20 21 1 -3
BITMAP
00E000
00E000
01D000
030800
060400
080200
100180
6004F0
8FFE20
000000
000000
000080
000080
1FFFC0
000100
000200
000400
000800
001000
006000
00C000
ENDCHAR
STARTCHAR 4ECB
ENCODING 20171
SWIDTH 1008 0
DWIDTH 21 0
BBX 20 21 1 -3
BITMAP
007000
006000
00D000
010800
020400
040200
080180
3000F0
C60620
040400
040400
040400
040400
040400
040400
040400
080400
080400
100400
200400
400400
ENDCHAR
STARTCHAR 4ECD
ENCODING 20173
SWIDTH 1008 0
DWIDTH 21 0
BBX 20 21 1 -3
BITMAP
0C0100
0BFF80
186100
106100
106100
306200
306200
506220
5067F0
90C420
10C020
10C020
10C020
10C020
10C020
110060
110040
110040
1200C0
120780
140100
ENDCHAR
STARTCHAR 4ECE
ENCODING 20174
SWIDTH 1008 0
DWIDTH 21 0
BBX 20 21 1 -3
BITMAP
0C0300
080200
080200
080200
080200
080200
080200
080200
080200
080200
180600
140500
140500
120500
130500
210880
210880
401040
401060
806030
00C020
ENDCHAR
STARTCHAR 4ECF
ENCODING 20175
SWIDTH 1008 0
DWIDTH 21 0
BBX 20 21 1 -3
BITMAP
060600
040400
0C0400
080400
180400
100C00
300800
300800
500800
900800
100800
101880
101080
101040
101040
101020
106020
1061F0
107E10
13E010
110010
ENDCHAR
STARTCHAR 4ED4
ENCODING 20180
SWIDTH 1008 0
DWIDTH 21 0
BBX 20 21 1 -3
BITMAP
0C0040
09FFE0
080040
180080
100100
300600
300400
300400
500400
500420
93FFF0
93FC00
100400
100400
100400
100400
100400
100400
100400
107C00
100800
ENDCHAR
STARTCHAR 4ED5
ENCODING 20181
SWIDTH 1008 0
DWIDTH 21 0
BBX 20 21 1 -3
BITMAP
0C0600
080400
080400
180400
100400
300400
300400
300420
53FFF0
500400
900400
900400
100400
100400
100400
100400
100400
100400
100440
11FFE0
100000
ENDCHAR
STARTCHAR 4ED6
ENCODING 20182
SWIDTH 1008 0
DWIDTH 21 0
BBX 20 21 1 -3
BITMAP
060600
04E400
04C400
0CC400
08C4C0
18C5E0
10CE40
30D440
30E440
51C440
92C440
92C440
10C440
10C5C0
10C480
10C400
10C400
10C020
10C020
10E030
107FE0
ENDCHAR
STARTCHAR 4ED7
ENCODING 20183
SWIDTH 1008 0
DWIDTH 21 0
BBX 20 21 1 -3
BITMAP
0C0600
080400
080400
180420
13FFF0
300400
300400
306400
506400
506400
91D400
911400
111400
100800
100800
101400
101200
106100
10C0C0
110070
160020
ENDCHAR
STARTCHAR 4ED8
ENCODING 20184
SWIDTH 1008 0
DWIDTH 21 0
BBX 20 21 1 -3
BITMAP
0C0180
080100
080100
180100
100120
33FFF0
300100
300100
500100
51C100
906100
907100
107100
101100
100100
100100
100100
100100
100100
100F00
100200
ENDCHAR
STARTCHAR 4ED9
ENCODING 20185
SWIDTH 1008 0
DWIDTH 21 0
BBX 20 21 1 -3
BITMAP
0C0600
080400
080400
180400
100400
31C430
310420
310420
510420
510420
910420
910420
110420
110420
110420
110420
110420
110420
11FFE0
110020
110000
ENDCHAR
STARTCHAR 4EDD
ENCODING 20189
SWIDTH 1008 0
DWIDTH 21 0
BBX 20 20 1 -2
BITMAP
007000
006000
00D000
00C800
010800
020400
040200
080100
1000C0
200470
C7FE20
C7E020
006000
006000
006000
006000
006000
006000
006040
7FFFE0
ENDCHAR
STARTCHAR 4EDE
ENCODING 20190
SWIDTH 1008 0
DWIDTH 21 0
BBX 20 21 1 -3
BITMAP
0C0020
09FFF0
080420
180420
100420
100420
306420
306420
50C420
51C420
910420
910C20
100820
100820
100860
101040
101040
1060C0
106080
10C780
110100
ENDCHAR
STARTCHAR 4EDF
ENCODING 20191
SWIDTH 1008 0
DWIDTH 21 0
BBX 20 21 1 -3
BITMAP
0C0080
0803C0
080E00
19F400
100400
100400
300400
300400
500420
53FFF0
900400
900400
100400
100400
100400
100400
100400
100400
100400
100400
100400
ENDCHAR
STARTCHAR 4EE3
ENCODING 20195
SWIDTH 1008 0
DWIDTH 21 0
BBX 20 21 1 -3
BITMAP
0C0C00
080980
080860
180820
100800
300820
300FF0
31FC00
500400
500400
900600
900600
100200
100200
100300
100120
100120
1000A0
1000E0
100070
100020
ENDCHAR
STARTCHAR 4EE4
ENCODING 20196
SWIDTH 1008 0
DWIDTH 21 0
BBX 20 21 1 -3
BITMAP
007000
006000
00D000
010800
020400
040200
080580
37FEF0
C00020
000080
1FFFC0
1FE080
006080
006080
006080
006080
006080
006780
006100
006000
006000
ENDCHAR
STARTCHAR 4EE5
ENCODING 20197
SWIDTH 1008 0
DWIDTH 21 0
BBX 20 20 1 -3
BITMAP
180060
100040
100040
100040
110040
10C0C0
106080
107080
101180
100100
100100
100100
100300
100280
10C440
130820
1C1020
F06030
41C010
060010
ENDCHAR
STARTCHAR 4EED
ENCODING 20205
SWIDTH 1008 0
DWIDTH 21 0
BBX 20 21 1 -3
BITMAP
0C0040
0BFFE0
080840
180840
100840
100840
310840
310840
52D040
527040
961040
9418C0
141880
101680
106180
1060F0
1060A0
10C080
10C180
110F00
120200
ENDCHAR
STARTCHAR 4EEE
ENCODING 20206
SWIDTH 1008 0
DWIDTH 21 0
BBX 20 21 1 -3
BITMAP
0C0000
08C020
08FFF0
18C000
10C000
10C000
30C040
30FFE0
50D040
50D040
91D080
911880
110880
110900
110500
120600
120600
140900
1810C0
10E070
130020
ENDCHAR
STARTCHAR 4EF0
ENCODING 20208
SWIDTH 1008 0
DWIDTH 21 0
BBX 20 21 1 -3
BITMAP
0C0800
081C00
097220
19C3F0
110220
310220
310220
310220
510220
510220
910220
910220
110220
110220
111A20
11E220
1702E0
120240
100200
100200
100200
ENDCHAR
STARTCHAR 4EF2
ENCODING 20210
SWIDTH 1008 0
DWIDTH 21 0
BBX 20 21 1 -3
BITMAP
0C0600
080400
080400
180400
110420
31FFF0
310420
310420
510420
510420
910420
910420
110420
11FFE0
110420
100400
100400
100400
100400
100400
100400
ENDCHAR
STARTCHAR 4EF6
ENCODING 20214
SWIDTH 1008 0
DWIDTH 21 0
BBX 20 21 1 -3
BITMAP
0C0600
08E400
08C400
18C400
10C440
11FFE0
310400
320400
540400
500400
900420
900430
13FFF0
100400
100400
100400
100400
100400
100400
100400
100400
ENDCHAR
STARTCHAR 4EF7
ENCODING 20215
SWIDTH 1008 0
DWIDTH 21 0
BBX 20 21 1 -3
BITMAP
0C0C00
080800
081400
181200
106100
106080
30C0C0
310070
5671A0
506100
906100
906100
106100
106100
106100
106100
10C100
10C100
110100
110100
120100
ENDCHAR
STARTCHAR 4EFB
ENCODING 20219
SWIDTH 1008 0
DWIDTH 21 0
BBX 20 21 1 -3
BITMAP
0C0080
0801C0
080E00
18F400
100400
100400
300400
300400
300400
500420
53FFF0
D3FC00
900400
100400
100400
100400
100400
100400
100440
11FFE0
100000
ENDCHAR
STARTCHAR 4F01
ENCODING 20225
SWIDTH 1008 0
DWIDTH 21 0
BBX 20 20 1 -2
BITMAP
007000
006000
00D000
00D000
010800
020400
040200
087180
3060F0
C06020
0C6000
086100
086100
087F80
086000
086000
086000
086000
086040
7FFFE0
ENDCHAR
STARTCHAR 4F09
ENCODING 20233
SWIDTH 1008 0
DWIDTH 21 0
BBX 20 21 1 -3
BITMAP
0C0600
080400
080400
180420
13FFF0
100000
300000
306100
507F80
506100
906100
906100
106100
106100
106100
106100
10C100
10C120
10C120
110130
1200E0
ENDCHAR
STARTCHAR 4F0A
ENCODING 20234
SWIDTH 1008 0
DWIDTH 21 0
BBX 20 21 1 -3
BITMAP
0C0000
080040
09FFE0
180840
100840
100840
33FFF0
300840
500840
500840
900840
900840
11FFC0
100840
100800
101000
101000
106000
106000
10C000
130000
ENDCHAR
STARTCHAR 4F0D
ENCODING 20237
SWIDTH 1008 0
DWIDTH 21 0
BBX 20 21 1 -3
BITMAP
0C0000
080080
09FFC0
181000
101000
101000
301000
301000
501100
53FF80
906100
906100
106100
106100
106100
106100
106100
106120
17FFF0
100000
100000
ENDCHAR
STARTCHAR 4F0E
ENCODING 20238
SWIDTH 1008 0
DWIDTH 21 0
BBX 20 21 1 -3
BITMAP
0C0600
080400
080420
19FFF0
100400
300400
300440
31FFE0
506040
5060C0
906080
907100
101100
101100
100A00
100400
100A00
101100
1060C0
11C070
160020
ENDCHAR
STARTCHAR 4F0F
ENCODING 20239
SWIDTH 1008 0
DWIDTH 21 0
BBX 20 21 1 -3
BITMAP
060680
040440
0C0460
080420
180400
100420
33FFF0
300400
500400
900C00
100A00
100A00
100A00
100A00
101100
101100
106080
1060C0
10C060
110030
120020
ENDCHAR
STARTCHAR 4F10
ENCODING 20240
SWIDTH 1008 0
DWIDTH 21 0
BBX 20 21 1 -3
BITMAP
0C0C00
080980
080860
180820
100800
300820
300FF0
33FC00
500420
500430
900460
900640
100240
100280
100100
100100
1002A0
1004A0
100860
107070
13C020
ENDCHAR
STARTCHAR 4F11
ENCODING 20241
SWIDTH 1008 0
DWIDTH 21 0
BBX 20 21 1 -3
BITMAP
0C0C00
080800
080800
180800
100820
37FFF0
301C00
301A00
501A00
506A00
906900
904900
10C900
10C880
1108C0
110860
120830
140820
100800
100800
100800
ENDCHAR
STARTCHAR 4F1A
ENCODING 20250
SWIDTH 1008 0
DWIDTH 21 0
BBX 20 21 1 -3
BITMAP
007000
00E000
01D000
030800
040600
080180
3004F0
CFFE20
000000
000000
000040
000060
7FFFE0
01C000
010000
020400
020200
040100
087F80
3FC080
180080
ENDCHAR
STARTCHAR 4F1C
ENCODING 20252
SWIDTH 1008 0
DWIDTH 21 0
BBX 20 21 1 -3
BITMAP
0C0C00
080800
080900
1BFF80
101100
101100
306120
306120
50C130
9300E0
100C00
100800
100800
100820
17FFF0
100800
100800
100800
100800
100800
100800
ENDCHAR
STARTCHAR 4F1D
ENCODING 20253
SWIDTH 1008 0
DWIDTH 21 0
BBX 20 21 1 -3
BITMAP
0C0000
080040
08FFE0
180000
100000
100000
300000
300020
53FFF0
500C00
900800
900800
101800
101000
101080
106040
106020
10C7E0
17F830
130010
100010
ENDCHAR
STARTCHAR 4F2F
ENCODING 20271
SWIDTH 1008 0
DWIDTH 21 0
BBX 19 21 1 -3
BITMAP
0C0400
080600
080C00
18C840
10FFE0
30C040
30C040
30C040
50C040
50C040
90C040
90C040
10FFC0
10C040
10C040
10C040
10C040
10C040
10C040
10FFC0
10C040
ENDCHAR
STARTCHAR 4F30
ENCODING 20272
SWIDTH 1008 0
DWIDTH 21 0
BBX 20 21 1 -3
BITMAP
0C0600
080400
080400
180400
100420
13FFF0
300400
300400
500400
500400
90C440
90C460
10FFE0
10C040
10C040
10C040
10C040
10C040
10C040
10FFC0
10C040
ENDCHAR
STARTCHAR 4F34
ENCODING 20276
SWIDTH 1008 0
DWIDTH 21 0
BBX 20 21 1 -3
BITMAP
0C0600
090440
08C460
186480
106500
300400
300440
31FFE0
500400
500400
900400
900420
100420
13FFF0
100400
100400
100400
100400
100400
100400
100400
ENDCHAR
STARTCHAR 4F36
ENCODING 20278
SWIDTH 1008 0
DWIDTH 21 0
BBX 20 21 1 -3
BITMAP
0C0C00
080800
081400
181200
106100
30C080
310040
320130
54FFA0
500000
900040
900060
13FFE0
100840
100840
100840
100840
100BC0
100880
100800
100800
ENDCHAR
STARTCHAR 4F38
ENCODING 20280
SWIDTH 1008 0
DWIDTH 21 0
BBX 20 21 1 -3
BITMAP
0C0600
080400
080400
190420
11FFF0
310420
310420
310420
51FFE0
510420
910420
910420
110420
110420
11FFE0
110420
100400
100400
100400
100400
100400
ENDCHAR
STARTCHAR 4F3A
ENCODING 20282
SWIDTH 1008 0
DWIDTH 21 0
BBX 20 21 1 -3
BITMAP
0C0020
09FFF0
080020
180020
100220
30FF20
300020
300020
50C220
50FF20
90C220
90C220
10C220
10C220
10C220
10FE20
10C220
10C020
100020
1001E0
100040
ENDCHAR
STARTCHAR 4F3C
ENCODING 20284
SWIDTH 1008 0
DWIDTH 21 0
BBX 20 21 1 -3
BITMAP
0C0000
080060
09C040
190040
110040
111040
310840
3104C0
510480
910480
110080
110180
110100
110100
110180
111A40
11E220
170420
120810
101010
10E010
ENDCHAR
STARTCHAR 4F3D
ENCODING 20285
SWIDTH 1008 0
DWIDTH 21 0
BBX 20 21 1 -3
BITMAP
0CE000
08C000
08C220
18C3F0
10CA20
17FE20
30CA20
30CA20
50CA20
50CA20
90CA20
90CA20
10CA20
10CA20
11CA20
110A20
110A20
110A20
1213E0
12F220
146200
ENDCHAR
STARTCHAR 4F43
ENCODING 20291
SWIDTH 1008 0
DWIDTH 21 0
BBX 20 21 1 -3
BITMAP
0C0000
090020
09FFF0
190420
110420
310420
310420
310420
510420
510420
91FFE0
910420
110420
110420
110420
110420
110420
110420
110420
11FFE0
110020
ENDCHAR
STARTCHAR 4F46
ENCODING 20294
SWIDTH 1008 0
DWIDTH 21 0
BBX 20 21 1 -3
BITMAP
0C0000
08C040
08FFE0
18C040
10C040
10C040
30C040
30C040
50FFC0
50C040
90C040
90C040
10C040
10C040
10C040
10FFC0
10C040
100000
100020
13FFF0
100000
ENDCHAR
STARTCHAR 4F47
ENCODING 20295
SWIDTH 1008 0
DWIDTH 21 0
BBX 20 21 1 -3
BITMAP
0C0600
080400
090420
19FFF0
130020
120040
300000
300020
53FFF0
500400
900400
900400
100400
100400
100400
100400
100400
100400
100400
107C00
100800
ENDCHAR
STARTCHAR 4F4D
ENCODING 20301
SWIDTH 1008 0
DWIDTH 21 0
BBX 20 21 1 -3
BITMAP
0C0600
080400
080400
180400
100440
31FFE0
300000
300080
5100C0
50C080
90C080
90E080
106180
106100
106100
106100
100200
100200
100220
13FFF0
100000
ENDCHAR
STARTCHAR 4F4E
ENCODING 20302
SWIDTH 1008 0
DWIDTH 21 0
BBX 20 21 1 -3
BITMAP
0C0040
0801E0
08C700
18F900
10C100
30C100
30C100
30C120
50FFF0
50C100
90C100
90C100
10C100
10C100
10C100
10F880
17C0A0
1200A0
100260
13FF30
100010
ENDCHAR
STARTCHAR 4F4F
ENCODING 20303
SWIDTH 1008 0
DWIDTH 21 0
BBX 20 21 1 -3
BITMAP
0C0800
080400
080200
180200
100040
31FFE0
300400
300400
500400
500400
900480
9004C0
10FFC0
100400
100400
100400
100400
100400
100420
13FFF0
100000
ENDCHAR
STARTCHAR 4F50
ENCODING 20304
SWIDTH 1008 0
DWIDTH 21 0
BBX 20 21 1 -3
BITMAP
060C00
040800
0C0800
080800
180820
13FFF0
301000
301000
501000
906040
107FE0
106200
10E200
10C200
110200
120200
140200
100200
100220
11FFF0
100000
ENDCHAR
STARTCHAR 4F51
ENCODING 20305
SWIDTH 1008 0
DWIDTH 21 0
BBX 20 21 1 -3
BITMAP
060C00
040800
0C0800
080800
180820
13FFF0
301000
301000
506000
906040
10FFE0
116040
116040
126040
146040
106040
106040
106040
106040
107FC0
106040
ENDCHAR
STARTCHAR 4F53
ENCODING 20307
SWIDTH 1008 0
DWIDTH 21 0
BBX 20 21 1 -3
BITMAP
0C0C00
080800
080800
180800
100820
37FFF0
301C00
301A00
506A00
506900
90C900
90C980
10C880
1108C0
120860
140830
180920
11FF80
100800
100800
100800
ENDCHAR
STARTCHAR 4F55
ENCODING 20309
SWIDTH 1008 0
DWIDTH 21 0
BBX 20 21 1 -3
BITMAP
0C0000
080020
09FFF0
180040
100040
10C440
30FE40
30C440
50C440
50C440
90C440
90C440
10C440
10FC40
10C440
10C040
100040
100040
100040
1003C0
100080
ENDCHAR
STARTCHAR 4F57
ENCODING 20311
SWIDTH 1008 0
DWIDTH 21 0
BBX 20 21 1 -3
BITMAP
0C0600
080400
080400
190420
11FFF0
110020
330040
320080
507000
506000
906040
906060
1060E0
106700
107800
106000
106000
106040
106040
107060
101FC0
ENDCHAR
STARTCHAR 4F59
ENCODING 20313
SWIDTH 1008 0
DWIDTH 21 0
BBX 20 21 1 -3
BITMAP
007000
006000
00D000
010800
020400
040300
0800C0
300270
CFFF20
006000
006000
006040
006040
7FFFE0
006000
086200
0C6100
106080
206040
C3E040
00C000
ENDCHAR
STARTCHAR 4F5A
ENCODING 20314
SWIDTH 1008 0
DWIDTH 21 0
BBX 20 21 1 -3
BITMAP
0CE600
08C400
08C400
18C400
110440
11FFE0
320400
320400
540400
500420
93FFF0
93F900
100900
100900
101100
101080
106080
106040
10C060
110030
120020
ENDCHAR
STARTCHAR 4F5B
ENCODING 20315
SWIDTH 1008 0
DWIDTH 21 0
BBX 20 21 1 -3
BITMAP
0C1B00
081200
081220
1BFFF0
101220
101220
311220
31FFE0
511220
511200
921220
921230
13FFF0
121220
101220
106220
106220
10C2E0
10C240
110200
120200
ENDCHAR
STARTCHAR 4F5C
ENCODING 20316
SWIDTH 1008 0
DWIDTH 21 0
BBX 20 21 1 -3
BITMAP
0C7000
086000
086000
186020
10FFF0
10C400
31C400
310400
510440
5207E0
900400
900400
100400
100400
100440
1007E0
100400
100400
100400
100400
100400
ENDCHAR
STARTCHAR 4F5D
ENCODING 20317
SWIDTH 1008 0
DWIDTH 21 0
BBX 20 21 1 -3
BITMAP
0CE000
08C000
08C000
18C020
11FFF0
110020
320020
32C220
54FF20
50C220
90C220
90C220
10C220
10C220
10FE60
10C240
100040
1000C0
100080
100780
100100
ENDCHAR
STARTCHAR 4F5E
ENCODING 20318
SWIDTH 1008 0
DWIDTH 21 0
BBX 20 21 1 -3
BITMAP
0C0080
08FFC0
080000
180000
100020
33FFF0
300000
301800
501000
501020
97FFF0
97E080
106080
106080
10C100
11FA00
110600
100980
1070C0
11C060
160020
ENDCHAR
STARTCHAR 4F69
ENCODING 20329
SWIDTH 1008 0
DWIDTH 21 0
BBX 20 21 1 -3
BITMAP
1A0080
13FFC0
120080
120080
320280
23FF80
621080
621080
62D280
A2FF80
22D280
22D280
22D280
22D280
22D280
22D2A0
22DEA0
24D460
241060
241030
281010
ENDCHAR
STARTCHAR 4F6F
ENCODING 20335
SWIDTH 1008 0
DWIDTH 21 0
BBX 20 21 1 -3
BITMAP
0D0100
08C180
086300
186200
100440
13FFE0
300800
300800
500800
900880
11FFC0
11F800
100800
100800
100800
100820
17FFF0
100800
100800
100800
100800
ENDCHAR
STARTCHAR 4F70
ENCODING 20336
SWIDTH 1008 0
DWIDTH 21 0
BBX 20 21 1 -3
BITMAP
0C0020
09FFF0
080600
180400
100400
106840
307FE0
306040
506040
506040
906040
906040
106040
107FC0
106040
106040
106040
106040
106040
107FC0
106040
ENDCHAR
STARTCHAR 4F73
ENCODING 20339
SWIDTH 1008 0
DWIDTH 21 0
BBX 20 21 1 -3
BITMAP
0C0600
080400
080400
180440
10FFE0
100400
300400
300400
500420
53FFF0
900000
900600
100600
100400
100440
10FFE0
100400
100400
100400
100420
13FFF0
ENDCHAR
STARTCHAR 4F75
ENCODING 20341
SWIDTH 1008 0
DWIDTH 21 0
BBX 20 21 1 -3
BITMAP
0C6080
0810C0
081180
181100
100240
11FFE0
301100
301100
501100
501100
901120
901130
13FFF0
101100
101100
106100
106100
10C100
10C100
110100
120100
ENDCHAR
STARTCHAR 4F76
ENCODING 20342
SWIDTH 1008 0
DWIDTH 21 0
BBX 20 21 1 -3
BITMAP
0C0600
080400
080420
1BFFF0
100400
100400
300400
300440
51FFE0
500000
900000
90C080
10C080
10FFC0
10C080
10C080
10C080
10C080
10C080
10FF80
10C080
ENDCHAR
STARTCHAR 4F7B
ENCODING 20347
SWIDTH 1008 0
DWIDTH 21 0
BBX 20 21 1 -3
BITMAP
0C1B00
081200
081200
181200
121220
111230
30D240
30D280
501200
501200
907280
91F2C0
11D240
171220
121220
106200
106200
10C220
110220
120230
1401E0
ENDCHAR
STARTCHAR 4F7C
ENCODING 20348
SWIDTH 1008 0
DWIDTH 21 0
BBX 20 21 1 -3
BITMAP
0C0600
080400
080420
1BFFF0
106000
107300
30C0C0
310020
520120
906180
106100
11F300
11D200
110A00
100400
100400
100A00
101100
1060C0
11C070
160020
ENDCHAR
STARTCHAR 4F7F
ENCODING 20351
SWIDTH 1008 0
DWIDTH 21 0
BBX 20 21 1 -3
BITMAP
0C0600
080400
080420
1BFFF0
100400
310420
31FFF0
310420
510420
510420
91FFE0
91FC20
100420
110400
10C400
106800
101800
101400
106380
11C0F0
160020
ENDCHAR
STARTCHAR 4F83
ENCODING 20355
SWIDTH 1008 0
DWIDTH 21 0
BBX 20 21 1 -3
BITMAP
0D0040
09FFE0
090040
190040
110040
110040
31FFC0
310040
500000
50ED80
90C900
90C900
10C900
10C900
10C900
10C900
10C900
110920
110920
120930
1400E0
ENDCHAR
STARTCHAR 4F86
ENCODING 20358
SWIDTH 1008 0
DWIDTH 21 0
BBX 20 21 1 -3
BITMAP
007000
006000
006040
7FFFE0
006000
186180
106100
106100
286280
246240
426420
C26C20
826820
00E000
00F000
016800
026600
0C6180
3060F0
C06020
006000
ENDCHAR
STARTCHAR 4F88
ENCODING 20360
SWIDTH 1008 0
DWIDTH 21 0
BBX 20 21 1 -3
BITMAP
0C7000
086100
087F80
18C100
110200
16C200
306400
306800
501600
50E420
970FF0
970820
100820
101040
10E840
130480
100500
100200
100400
101800
11E000
ENDCHAR
STARTCHAR 4F8B
ENCODING 20363
SWIDTH 1008 0
DWIDTH 21 0
BBX 20 21 1 -3
BITMAP
180030
100820
13FDA0
30C120
20C120
210120
610920
61FD20
A10920
A20920
221920
25D120
25D120
28D120
206120
206120
20C020
20C020
210020
2201E0
240040
ENDCHAR
STARTCHAR 4F8D
ENCODING 20365
SWIDTH 1008 0
DWIDTH 21 0
BBX 20 21 1 -3
BITMAP
0C0600
080400
080440
18FFE0
100400
300400
300420
53FFF0
500100
900100
100120
100130
13FFF0
100100
10C100
106100
101100
101100
100100
100F00
100200
ENDCHAR
STARTCHAR 4F8F
ENCODING 20367
SWIDTH 1008 0
DWIDTH 21 0
BBX 20 21 1 -3
BITMAP
0C0600
08E400
08C400
18C400
10C440
11FFE0
310400
320400
500400
500420
93FFF0
93FE00
100E00
101500
101500
106480
1064C0
10C460
110430
160420
100400
ENDCHAR
STARTCHAR 4F91
ENCODING 20369
SWIDTH 1008 0
DWIDTH 21 0
BBX 20 21 1 -3
BITMAP
0C0C00
080800
080820
1BFFF0
101000
101000
306040
307FE0
50E040
90E040
117FC0
126040
126040
146040
106040
107FC0
106040
106040
106040
1063C0
106080
ENDCHAR
STARTCHAR 4F96
ENCODING 20374
SWIDTH 1008 0
DWIDTH 21 0
BBX 20 21 1 -3
BITMAP
007000
006000
00D000
010800
020600
0C0180
3002F0
CFFF20
000000
100080
1FFFC0
110880
110880
110880
110880
1FFF80
110880
110880
110880
110B80
110900
ENDCHAR
STARTCHAR 4F98
ENCODING 20376
SWIDTH 1008 0
DWIDTH 21 0
BBX 20 21 1 -3
BITMAP
0C0600
080400
090420
19FFF0
110020
130040
320100
300780
50FC00
500800
900800
900820
100820
100FF0
13F800
100800
100800
100840
100840
100C60
1007C0
ENDCHAR
STARTCHAR 4F9B
ENCODING 20379
SWIDTH 1008 0
DWIDTH 21 0
BBX 20 21 1 -3
BITMAP
0C7180
086100
086100
186100
106140
13FFE0
306100
306100
506100
506100
906100
906120
106120
17FFF0
100000
100000
106100
107080
10C040
110060
160020
ENDCHAR
STARTCHAR 4F9D
ENCODING 20381
SWIDTH 1008 0
DWIDTH 21 0
BBX 20 21 1 -3
BITMAP
0C0600
080400
080400
180420
13FFF0
300800
300800
301420
501430
506440
90E280
91E380
116300
126200
146100
106100
106080
1060C0
107C60
13E030
110020
ENDCHAR
STARTCHAR 4FA0
ENCODING 20384
SWIDTH 1008 0
DWIDTH 21 0
BBX 20 21 1 -3
BITMAP
0C0600
080400
080440
18FFE0
100400
110440
30C460
306480
506480
906500
100420
100430
13FFF0
100A00
100A00
101900
101080
106040
106060
10C030
130020
ENDCHAR
STARTCHAR 4FA1
ENCODING 20385
SWIDTH 1008 0
DWIDTH 21 0
BBX 20 21 1 -3
BITMAP
0C0000
080020
0BFFF0
181200
101200
101200
311240
31FFE0
511240
511240
911240
911240
111240
111240
111240
111240
111240
111240
111240
11FFC0
110040
ENDCHAR
STARTCHAR 4FAB
ENCODING 20395
SWIDTH 1008 0
DWIDTH 21 0
BBX 20 21 1 -3
BITMAP
0C0600
080400
080420
1BFFF0
10C000
30C000
30C000
30C000
507FE0
501000
901800
901020
101020
17FFF0
106080
10C080
117900
130600
101980
10E0E0
170020
ENDCHAR
STARTCHAR 4FAD
ENCODING 20397
SWIDTH 1008 0
DWIDTH 21 0
BBX 20 21 1 -3
BITMAP
0CC020
08FFF0
08C020
18C020
10C020
10FFE0
30C220
30C200
50C200
910100
110100
117180
117080
120C80
120240
140260
14E030
181820
100600
100300
100100
ENDCHAR
STARTCHAR 4FAE
ENCODING 20398
SWIDTH 1008 0
DWIDTH 21 0
BBX 20 21 1 -3
BITMAP
0CF000
08C000
08C020
19FFF0
110000
32C040
34FFE0
30C440
50C440
50C440
90C440
90C470
17FFF0
110880
110880
110880
110880
11FFE0
110080
100780
100100
ENDCHAR
STARTCHAR 4FAF
ENCODING 20399
SWIDTH 1008 0
DWIDTH 21 0
BBX 20 21 1 -3
BITMAP
0C0080
08FFC0
080080
180080
1000A0
13FFF0
306000
307000
506040
50FFE0
90C400
91C400
110400
100420
13FFF0
100A00
100A00
101100
1060C0
11C070
160020
ENDCHAR
STARTCHAR 4FB5
ENCODING 20405
SWIDTH 1008 0
DWIDTH 21 0
BBX 20 21 1 -3
BITMAP
0C0040
08FFE0
080040
18FFC0
100040
300040
30FFC0
300040
520020
53FFF0
960020
9400A0
1400A0
11FFC0
10C080
106100
101200
100C00
107380
11C0F0
160020
ENDCHAR
STARTCHAR 4FB6
ENCODING 20406
SWIDTH 1008 0
DWIDTH 21 0
BBX 20 21 1 -3
BITMAP
0CC040
08FFE0
08C040
18C040
10C040
10C040
30C040
30FFC0
50C640
900400
100800
100800
100800
111020
11FFF0
110020
110020
110020
110020
11FFE0
110020
ENDCHAR
STARTCHAR 4FBF
ENCODING 20415
SWIDTH 1008 0
DWIDTH 21 0
BBX 20 21 1 -3
BITMAP
0C0020
0BFFF0
080400
18C440
10FFE0
10C440
30C440
30FFC0
50C440
50C440
90FFC0
90FC40
100440
10C400
106400
101800
100C00
101200
106180
11C0F0
160020
ENDCHAR
STARTCHAR 4FC2
ENCODING 20418
SWIDTH 1008 0
DWIDTH 21 0
BBX 20 21 1 -3
BITMAP
0C0080
0807E0
09FC00
180800
100C00
101080
2161C0
38C300
506400
506840
901020
901FF0
13FFD0
11C410
100400
10C480
10E440
110420
120410
140410
100400
ENDCHAR
STARTCHAR 4FC3
ENCODING 20419
SWIDTH 1008 0
DWIDTH 21 0
BBX 20 21 1 -3
BITMAP
0CC040
08FFE0
08C040
18C040
10C040
30C040
30C040
30FFC0
50C440
500400
900400
91C440
11C440
1107E0
110400
110400
110400
11C400
127400
120E00
1401F0
ENDCHAR
STARTCHAR 4FC4
ENCODING 20420
SWIDTH 1008 0
DWIDTH 21 0
BBX 20 21 1 -3
BITMAP
0C6280
08F240
1BC220
10C220
30C200
20C220
27FFF0
60C100
60C120
A0C130
20C120
20D920
20D960
20E140
27C080
22C0A0
20C1A0
20C160
20C220
23C430
211810
ENDCHAR
STARTCHAR 4FCA
ENCODING 20426
SWIDTH 1008 0
DWIDTH 21 0
BBX 20 21 1 -3
BITMAP
0C1000
081900
081080
186040
1067E0
13FA20
311200
306220
50C230
9301E0
101800
101080
101080
107FC0
10C080
116100
161200
100C00
101380
10E0F0
170020
ENDCHAR
STARTCHAR 4FCE
ENCODING 20430
SWIDTH 1008 0
DWIDTH 21 0
BBX 20 20 1 -2
BITMAP
0C1040
081FE0
081040
141040
121040
221040
211040
411FC0
801040
0C1040
081040
081040
081040
141FC0
121040
221040
211040
411040
801040
00FFF0
ENDCHAR
STARTCHAR 4FD0
ENCODING 20432
SWIDTH 1008 0
DWIDTH 21 0
BBX 20 21 1 -3
BITMAP
0C0830
087C20
0BE1A0
186120
106120
106920
33FD20
306120
50E120
90F120
10E920
116D20
116520
116520
126120
126020
146020
106020
106020
1060E0
106040
ENDCHAR
STARTCHAR 4FD1
ENCODING 20433
SWIDTH 1008 0
DWIDTH 21 0
BBX 20 21 1 -3
BITMAP
0C0040
09FFE0
080080
181100
100A00
110420
31FFF0
310420
510420
910420
11FFE0
110420
110420
110420
110420
11FFE0
110420
110420
110420
1105E0
110440
ENDCHAR
STARTCHAR 4FD4
ENCODING 20436
SWIDTH 1008 0
DWIDTH 21 0
BBX 20 21 1 -3
BITMAP
0CC080
08FFC0
08C080
18C080
10FF80
10C080
30C080
30FF80
50C080
90C080
10C080
10C080
10FF80
10D280
101200
101200
106200
106220
10C220
110230
1201E0
ENDCHAR
STARTCHAR 4FD7
ENCODING 20439
SWIDTH 1008 0
DWIDTH 21 0
BBX 20 21 1 -3
BITMAP
0C6200
087100
08C080
18C0C0
110C40
120840
301400
301200
506100
50C0C0
910070
97C0A0
16C0A0
10FFC0
10C080
10C080
10C080
10C080
10C080
10FF80
10C080
ENDCHAR
STARTCHAR 4FD8
ENCODING 20440
SWIDTH 1008 0
DWIDTH 21 0
BBX 20 21 1 -3
BITMAP
0C0040
0800E0
090F00
19F0C0
110820
110410
320210
320200
540080
90FFC0
100100
100300
100200
100400
100420
13FFF0
100400
100400
100400
107C00
100800
ENDCHAR
STARTCHAR 4FDA
ENCODING 20442
SWIDTH 1008 0
DWIDTH 21 0
BBX 20 21 1 -3
BITMAP
0CC040
08FFE0
08C440
18C440
10C440
10FFC0
30C440
30C440
50C440
90FFC0
10C440
10C440
100400
100400
100440
11FFE0
100400
100400
100420
13FFF0
100000
ENDCHAR
STARTCHAR 4FDB
ENCODING 20443
SWIDTH 1008 0
DWIDTH 21 0
BBX 20 21 1 -3
BITMAP
0C1800
081080
087FC0
186100
10C200
11C440
32FFE0
30C440
50C440
90C440
10C840
10C840
10FFC0
10CA40
101200
101200
106200
106220
10C220
110230
1601E0
ENDCHAR
STARTCHAR 4FDD
ENCODING 20445
SWIDTH 1008 0
DWIDTH 21 0
BBX 20 21 1 -3
BITMAP
0CC040
08FFE0
08C040
18C040
10C040
30C040
30FFC0
50C440
500400
900420
13FFF0
13FE00
100E00
101D00
101480
1064C0
10C460
110430
120420
100400
100400
ENDCHAR
STARTCHAR 4FDF
ENCODING 20447
SWIDTH 1008 0
DWIDTH 21 0
BBX 20 21 1 -3
BITMAP
0C1000
081800
086080
186040
10C7E0
13F820
310020
30E000
50C040
91FFE0
110400
130400
120400
100420
13FFF0
100C00
100A00
101100
1060C0
11C070
160020
ENDCHAR
STARTCHAR 4FE1
ENCODING 20449
SWIDTH 1008 0
DWIDTH 21 0
BBX 20 21 1 -3
BITMAP
0C0080
087FC0
080000
180020
11FFF0
300000
300080
307FC0
500000
500080
907FC0
907FC0
100000
10C040
10FFE0
10C040
10C040
10C040
10C040
10FFC0
10C040
ENDCHAR
STARTCHAR 4FE3
ENCODING 20451
SWIDTH 1008 0
DWIDTH 21 0
BBX 20 21 1 -3
BITMAP
0CC040
08FFE0
08C040
18C040
10C040
10FFC0
30C040
300000
500040
91FFE0
100400
100400
100400
100420
13FFF0
100A00
101200
106100
10C0C0
110070
160020
ENDCHAR
STARTCHAR 4FE4
ENCODING 20452
SWIDTH 1008 0
DWIDTH 21 0
BBX 20 21 1 -3
BITMAP
0C6080
0810C0
081100
180220
13FFF0
100420
310420
31FFE0
510420
910400
120420
120430
13FFF0
120C20
101420
106420
10C440
1105C0
160480
100400
100400
ENDCHAR
STARTCHAR 4FE5
ENCODING 20453
SWIDTH 1008 0
DWIDTH 21 0
BBX 20 21 1 -3
BITMAP
0C0600
080400
080440
19FFE0
100400
10C440
30FFE0
30C440
50C440
90FFC0
10C440
10C440
10C440
10FFC0
10C440
100420
13FFF0
100400
100400
100400
100400
ENDCHAR
STARTCHAR 4FEE
ENCODING 20462
SWIDTH 1008 0
DWIDTH 21 0
BBX 20 21 1 -3
BITMAP
0C7000
086000
08C020
18FFF0
156080
151100
360A00
340400
540B00
5471C0
94C470
950660
170620
141900
14E180
140600
141840
14E0E0
140300
101C00
11E000
ENDCHAR
STARTCHAR 4FEF
ENCODING 20463
SWIDTH 1008 0
DWIDTH 21 0
BBX 20 21 1 -3
BITMAP
0C0600
080400
0A0420
1BFFF0
120000
121860
321040
321040
526FF0
526040
92E040
936440
136440
126240
126240
126240
146040
146040
146040
1863C0
106080
ENDCHAR
STARTCHAR 4FF3
ENCODING 20467
SWIDTH 1008 0
DWIDTH 21 0
BBX 20 21 1 -3
BITMAP
0C1980
081100
081100
181120
13F1F0
101100
301100
301120
53F1F0
501100
901100
901100
101100
10F120
1711F0
121100
106100
106100
10C100
110100
160100
ENDCHAR
STARTCHAR 4FF5
ENCODING 20469
SWIDTH 1008 0
DWIDTH 21 0
BBX 20 21 1 -3
BITMAP
0C0C00
080800
080840
1BFFE0
100800
100880
31FFC0
300800
500820
57FFF0
901400
902420
106420
10C430
11C240
16C280
10C100
10C080
10F8C0
17C070
120020
ENDCHAR
STARTCHAR 4FF6
ENCODING 20470
SWIDTH 1008 0
DWIDTH 21 0
BBX 20 21 1 -3
BITMAP
0CE000
08C020
08CFF0
18C220
10FA20
10C220
30C220
30D140
57F940
90C140
10C140
12E180
12E080
13D080
12C980
12C940
14CA40
18C260
10C420
13C830
111020
ENDCHAR
STARTCHAR 4FF8
ENCODING 20472
SWIDTH 1008 0
DWIDTH 21 0
BBX 20 21 1 -3
BITMAP
0C0600
080400
080440
19FFE0
100400
10FFC0
300A00
300A20
53FFF0
901100
1066C0
1044F0
10C470
130520
107F80
100400
100480
10FFC0
100400
100400
100400
ENDCHAR
STARTCHAR 4FFA
ENCODING 20474
SWIDTH 1008 0
DWIDTH 21 0
BBX 20 21 1 -3
BITMAP
0C0C00
080800
080820
1BFFF0
101200
306100
30CCC0
310870
57FFA0
510880
910880
910880
11FF80
110880
110880
11FF80
110880
100800
100820
100830
1007E0
ENDCHAR
STARTCHAR 4FFE
ENCODING 20478
SWIDTH 1008 0
DWIDTH 21 0
BBX 20 21 1 -3
BITMAP
060400
040600
04C840
0CFFE0
08C440
18C440
18FFC0
28C440
28C440
48FFC0
880940
881940
081100
086100
08C120
0BFFF0
080100
080100
080100
080100
080100
ENDCHAR
STARTCHAR 5005
ENCODING 20485
SWIDTH 1008 0
DWIDTH 21 0
BBX 20 21 1 -3
BITMAP
0C0600
080400
080400
180420
13FFF0
100000
30E060
30C040
50C040
9160A0
121110
161310
141210
100000
100600
100420
13FFF0
100400
100400
100400
100400
ENDCHAR
STARTCHAR 5006
ENCODING 20486
SWIDTH 1008 0
DWIDTH 21 0
BBX 20 21 1 -3
BITMAP
180020
17FFF0
100800
300800
280820
2FFFF0
680820
680820
A90920
2FCFA0
290920
290920
290920
2ACAA0
2ACAA0
2C7C60
280820
280820
280820
2809E0
280840
ENDCHAR
STARTCHAR 5009
ENCODING 20489
SWIDTH 1008 0
DWIDTH 21 0
BBX 20 21 1 -3
BITMAP
00F000
00E000
011000
020800
040400
0BFE00
100180
27FEF0
C40220
07FE00
040200
040200
07FE00
080200
080000
13FF00
120100
220100
420100
03FF00
020100
ENDCHAR
STARTCHAR 500B
ENCODING 20491
SWIDTH 1008 0
DWIDTH 21 0
BBX 20 21 1 -3
BITMAP
0D0020
09FFF0
090020
190620
110420
1104A0
31FFE0
310420
510420
911520
111FA0
111120
111120
111120
111120
111120
111F20
111120
110020
11FFE0
110020
ENDCHAR
STARTCHAR 500D
ENCODING 20493
SWIDTH 1008 0
DWIDTH 21 0
BBX 20 21 1 -3
BITMAP
0C0600
080400
080440
19FFE0
106080
1010C0
301100
301100
500220
53FFF0
900000
900000
100000
10C040
10FFE0
10C040
10C040
10C040
10C040
10FFC0
10C040
ENDCHAR
STARTCHAR 500F
ENCODING 20495
SWIDTH 1008 0
DWIDTH 21 0
BBX 20 21 1 -3
BITMAP
0C1800
081040
087FE0
186040
16D080
150900
340600
340B80
5470F0
55C020
940680
9404C0
140440
140440
15FFF0
140A00
140900
141080
1060C0
10C070
130020
ENDCHAR
STARTCHAR 5011
ENCODING 20497
SWIDTH 1008 0
DWIDTH 21 0
BBX 20 21 1 -3
BITMAP
1A1220
13FBF0
121220
321220
23F3E0
221220
221220
63F3E0
621220
620020
A20020
A20020
220020
220020
220020
220020
220020
220020
220020
2201E0
220040
ENDCHAR
STARTCHAR 5012
ENCODING 20498
SWIDTH 1008 0
DWIDTH 21 0
BBX 20 21 1 -3
BITMAP
0C0830
0BFC20
08E1A0
08C120
18D120
110920
317D20
37C520
510120
507120
906120
906920
106920
13FD20
106120
106020
106C20
10F020
17C020
1201E0
100040
ENDCHAR
STARTCHAR 5014
ENCODING 20500
SWIDTH 1008 0
DWIDTH 21 0
BBX 20 21 1 -3
BITMAP
0D0020
09FFF0
090020
190020
11FFE0
110020
310300
310200
511A60
911240
111240
111240
111FC0
111240
110200
110200
127230
126220
126220
147FE0
106020
ENDCHAR
STARTCHAR 5016
ENCODING 20502
SWIDTH 1008 0
DWIDTH 21 0
BBX 20 21 1 -3
BITMAP
0C0600
080440
08FFE0
180400
100400
100420
33FFF0
306080
5010C0
901100
100220
100230
13FFF0
100400
100400
100440
11FFE0
100400
100400
100400
100400
ENDCHAR
STARTCHAR 5019
ENCODING 20505
SWIDTH 1008 0
DWIDTH 21 0
BBX 20 21 1 -3
BITMAP
0C0080
081FC0
0B0080
1A0080
1200A0
12FFF0
321000
321800
521040
527FE0
926400
92E400
12C400
120420
13FFF0
120A00
120900
121080
1060C0
10C070
130020
ENDCHAR
STARTCHAR 501A
ENCODING 20506
SWIDTH 1008 0
DWIDTH 21 0
BBX 20 21 1 -3
BITMAP
0C0C00
080800
080880
19FFC0
101200
106100
30C080
330080
500020
97FFF0
100080
110880
110880
11FC80
110880
110880
11F880
110880
110080
100780
100100
ENDCHAR
STARTCHAR 501F
ENCODING 20511
SWIDTH 1008 0
DWIDTH 21 0
BBX 20 21 1 -3
BITMAP
0C7180
086100
086140
19FFE0
106100
106100
306100
306120
53FFF0
500000
90C080
90C0C0
10FFC0
10C080
10C080
10FF80
10C080
10C080
10C080
10FF80
10C080
ENDCHAR
STARTCHAR 5021
ENCODING 20513
SWIDTH 1008 0
DWIDTH 21 0
BBX 20 21 1 -3
BITMAP
066040
047FE0
046040
0C6040
087FC0
186040
186040
286040
287FC0
486040
88C020
88C030
08FFF0
08C020
08C020
08FFE0
08C020
08C020
08C020
08FFE0
08C020
ENDCHAR
STARTCHAR 5023
ENCODING 20515
SWIDTH 1008 0
DWIDTH 21 0
BBX 20 21 1 -3
BITMAP
18E300
10C200
10C200
30D220
2FFBF0
210220
610620
610520
61F540
A11540
211940
211140
2110C0
211080
211080
2311C0
221140
227260
246220
25E430
28C820
ENDCHAR
STARTCHAR 5024
ENCODING 20516
SWIDTH 1008 0
DWIDTH 21 0
BBX 20 21 1 -3
BITMAP
0C0600
080400
080420
1BFFF0
100800
306840
337FE0
326040
526040
527FC0
926040
926040
126040
127FC0
126040
126040
127FC0
126040
120020
13FFF0
120000
ENDCHAR
STARTCHAR 5025
ENCODING 20517
SWIDTH 1008 0
DWIDTH 21 0
BBX 20 21 1 -3
BITMAP
0C0600
080400
080400
1A0420
13FFF0
121220
361240
346200
506240
90C260
1301C0
1301C0
100000
100040
11FFE0
100400
100400
100400
100420
13FFF0
100000
ENDCHAR
STARTCHAR 5026
ENCODING 20518
SWIDTH 1008 0
DWIDTH 21 0
BBX 20 21 1 -3
BITMAP
0D0C80
08C8C0
086980
186900
100A40
33FFE0
301400
301420
57FFF0
506200
90C100
90C180
11FF80
120170
1C0120
10FF00
10C100
10C040
10C040
10E060
107FC0
ENDCHAR
STARTCHAR 5028
ENCODING 20520
SWIDTH 1008 0
DWIDTH 21 0
BBX 20 21 1 -3
BITMAP
0CC020
08FFF0
08C020
18C020
10C020
10FFE0
30C220
30C200
50C220
90FFF0
10C200
11C200
110200
111240
111FE0
111040
121040
121040
121040
141FC0
101040
ENDCHAR
STARTCHAR 5029
ENCODING 20521
SWIDTH 1008 0
DWIDTH 21 0
BBX 20 21 1 -3
BITMAP
060600
040400
040440
0DFFE0
080400
18FFC0
180420
2BFFF0
280000
48C040
88FFE0
88C440
08C440
08C440
08C440
08FFC0
08C040
08C040
08C040
08C3C0
08C080
ENDCHAR
STARTCHAR 502A
ENCODING 20522
SWIDTH 1008 0
DWIDTH 21 0
BBX 20 21 1 -3
BITMAP
0C0400
080600
091820
19E1F0
110020
110020
31F9E0
310020
510020
910020
11FFE0
111220
111220
101200
101200
106200
106200
10C220
110220
120230
1401E0
ENDCHAR
STARTCHAR 502B
ENCODING 20523
SWIDTH 1008 0
DWIDTH 21 0
BBX 20 21 1 -3
BITMAP
0C0C00
080800
081400
181400
106200
30C100
3100C0
520170
9DFFA0
100000
120040
120060
13FFE0
126440
126440
13FFC0
126440
126440
126440
1265C0
120080
ENDCHAR
STARTCHAR 502C
ENCODING 20524
SWIDTH 1008 0
DWIDTH 21 0
BBX 20 21 1 -3
BITMAP
060600
040400
040440
0C07E0
080400
18C440
18FFE0
28C040
28C040
48FFC0
88C040
88C040
08C040
08FFC0
08C440
080400
080420
0BFFF0
080400
080400
080400
ENDCHAR
STARTCHAR 502D
ENCODING 20525
SWIDTH 1008 0
DWIDTH 21 0
BBX 20 21 1 -3
BITMAP
0C0080
0807C0
08FC00
180400
100420
13FFF0
300E00
301580
50E470
930420
100000
101800
101800
101020
13FFF0
106080
10C100
11F200
110F00
1070C0
13C040
ENDCHAR
STARTCHAR 5036
ENCODING 20534
SWIDTH 1008 0
DWIDTH 21 0
BBX 20 21 1 -3
BITMAP
0CC080
08FFC0
08C080
18C080
10FF80
30C080
30C080
50FF80
50C080
90C080
10C080
10C080
10FF80
10C080
100020
17FFF0
101100
101880
106040
11C060
160020
ENDCHAR
STARTCHAR 5039
ENCODING 20537
SWIDTH 1008 0
DWIDTH 21 0
BBX 20 21 1 -3
BITMAP
0C0600
080400
080A00
181100
1060C0
30C070
330020
307FC0
500400
50C440
90FFE0
90C440
10C440
10C440
10FFC0
10CA40
100A00
101100
1060C0
10C070
130020
ENDCHAR
STARTCHAR 5043
ENCODING 20547
SWIDTH 1008 0
DWIDTH 21 0
BBX 20 21 1 -3
BITMAP
0D0020
09FFF0
090000
191FC0
111040
311FC0
311040
311FC0
510600
510440
917FE0
917880
110880
111080
111F00
110280
110C40
117040
110000
11FFF0
110000
ENDCHAR
STARTCHAR 5047
ENCODING 20551
SWIDTH 1008 0
DWIDTH 21 0
BBX 20 21 1 -3
BITMAP
0C1020
0BFBF0
0A1020
1A1020
121020
321020
33F3E0
321020
520000
520020
93F7F0
920620
120220
120220
120140
120140
13F080
1201C0
120260
120C30
127020
ENDCHAR
STARTCHAR 5048
ENCODING 20552
SWIDTH 1008 0
DWIDTH 21 0
BBX 20 21 1 -3
BITMAP
0CC080
08FFC0
08C080
18C080
10FF80
10C080
30C080
30FF80
506080
906020
10FFF0
110C20
110C20
13C820
151420
111220
116220
11FFA0
110060
1003C0
100080
ENDCHAR
STARTCHAR 5049
ENCODING 20553
SWIDTH 1008 0
DWIDTH 21 0
BBX 20 21 1 -3
BITMAP
0C0C00
080880
08FFC0
181080
1010A0
33FFF0
300000
30C040
50FFE0
50C040
90C040
90C040
10FFC0
100200
100240
10FFE0
106200
106220
13FFF0
100200
100200
ENDCHAR
STARTCHAR 504F
ENCODING 20559
SWIDTH 1008 0
DWIDTH 21 0
BBX 20 21 1 -3
BITMAP
0C0020
09FFF0
080000
18C020
10FFF0
10C020
30C020
30FFE0
51C000
910020
11FFF0
11C920
11C920
12C920
12FFE0
14C920
18C920
10C920
10C920
10C9E0
10C040
ENDCHAR
STARTCHAR 5050
ENCODING 20560
SWIDTH 1008 0
DWIDTH 21 0
BBX 20 21 1 -3
BITMAP
0C0600
080440
09FFE0
186100
101980
100600
301980
32E0A0
53FFF0
920100
120380
120400
120C00
12F080
1201C0
120600
141820
15E0F0
140380
141C00
19E000
ENDCHAR
STARTCHAR 5055
ENCODING 20565
SWIDTH 1008 0
DWIDTH 21 0
BBX 20 21 1 -3
BITMAP
0DC300
090220
091230
19FAC0
110300
110220
310220
317A30
57C1E0
920800
100C00
111C40
111040
11FFE0
110040
110040
11FFC0
110040
110040
11FFC0
110040
ENDCHAR
STARTCHAR 5056
ENCODING 20566
SWIDTH 1008 0
DWIDTH 21 0
BBX 20 21 1 -3
BITMAP
0C0C00
080840
080860
19FFC0
100880
300900
300A20
57FFF0
500A00
901100
106140
106160
10FFE0
116040
166040
107FC0
106040
106040
106040
107FC0
106040
ENDCHAR
STARTCHAR 505A
ENCODING 20570
SWIDTH 1008 0
DWIDTH 21 0
BBX 20 21 1 -3
BITMAP
0CE300
08C200
08C200
18D220
17FBF0
30C420
30C420
50CA20
50C220
92D140
13F940
121140
121140
121080
121080
121140
13F140
121260
100420
100830
107020
ENDCHAR
STARTCHAR 505C
ENCODING 20572
SWIDTH 1008 0
DWIDTH 21 0
BBX 20 21 1 -3
BITMAP
0C0600
080400
080420
1BFFF0
100000
307F80
306080
506080
507F80
920020
13FFF0
120020
160020
1400A0
11FFC0
100400
100400
100400
100400
101C00
100800
ENDCHAR
STARTCHAR 5065
ENCODING 20581
SWIDTH 1008 0
DWIDTH 21 0
BBX 20 21 1 -3
BITMAP
18C300
17E240
10DFE0
310240
210240
227FF0
62C240
67E240
64DFC0
A0C240
24C200
24C3E0
24DFE0
22C200
22C220
217FF0
210200
22C200
226200
241800
2807F0
ENDCHAR
STARTCHAR 506C
ENCODING 20588
SWIDTH 1008 0
DWIDTH 21 0
BBX 20 21 1 -3
BITMAP
0CE000
08C020
09FFF0
190920
12E920
141920
30E620
330960
507140
51C0C0
900780
900700
100100
100800
100440
117220
116210
126090
166080
1460C0
101F80
ENDCHAR
STARTCHAR 5072
ENCODING 20594
SWIDTH 1008 0
DWIDTH 21 0
BBX 20 21 1 -3
BITMAP
0CC040
08FFE0
08C440
18C440
10C440
10FFC0
30C440
30C440
50C440
90FFC0
10C040
10C840
100800
100400
100240
117220
116010
166090
146080
1060C0
101F80
ENDCHAR
STARTCHAR 5074
ENCODING 20596
SWIDTH 1008 0
DWIDTH 21 0
BBX 20 21 1 -3
BITMAP
0C0030
090820
09FDA0
190920
110920
110920
31F920
310920
510920
510920
91F920
910920
110920
110920
110920
11F920
100120
111020
11C820
1104E0
120440
ENDCHAR
STARTCHAR 5075
ENCODING 20597
SWIDTH 1008 0
DWIDTH 21 0
BBX 20 21 1 -3
BITMAP
0C0600
080420
0807F0
180400
10C440
10FFE0
30C040
30C040
50FFC0
90C040
10C040
10C040
10FFC0
10C040
10C040
10FFC0
10C040
106180
107040
11C030
160010
ENDCHAR
STARTCHAR 5076
ENCODING 20598
SWIDTH 1008 0
DWIDTH 21 0
BBX 20 21 1 -3
BITMAP
0CC040
08FFE0
08C440
18C440
10FFC0
10C440
30C440
30FFC0
50C440
500400
920420
920430
13FFF0
120420
120520
1204A0
12FFA0
1270A0
120020
1201E0
120040
ENDCHAR
STARTCHAR 5078
ENCODING 20600
SWIDTH 1008 0
DWIDTH 21 0
BBX 20 21 1 -3
BITMAP
0C0800
08FC00
081200
186100
10C0C0
110070
3600A0
31FFC0
500000
521240
93FB60
921240
121240
131280
12D480
121900
131480
12D240
121240
12F120
126120
ENDCHAR
STARTCHAR 507D
ENCODING 20605
SWIDTH 1008 0
DWIDTH 21 0
BBX 20 21 1 -3
BITMAP
0D0C00
08C800
08C800
180A00
13FF00
106200
306200
306280
50FFC0
50C080
910080
9100A0
1100A0
13FFF0
120020
140220
116920
116560
166440
1403C0
100080
ENDCHAR
STARTCHAR 5080
ENCODING 20608
SWIDTH 1008 0
DWIDTH 21 0
BBX 20 21 1 -3
BITMAP
0C0800
080C00
081800
191080
11FFC0
110880
310880
31FF80
510880
510880
91FF80
91E4C0
1064C0
106480
1064A0
10C510
10C570
110790
110520
120630
1403E0
ENDCHAR
STARTCHAR 5085
ENCODING 20613
SWIDTH 1008 0
DWIDTH 21 0
BBX 20 21 1 -3
BITMAP
0C0680
080440
080440
1BFFF0
100400
31FFE0
310420
51FFE0
510420
91FFE0
110420
110420
110420
100180
100120
13FFF0
10C100
106100
106100
100F00
100200
ENDCHAR
STARTCHAR 508D
ENCODING 20621
SWIDTH 1008 0
DWIDTH 21 0
BBX 20 21 1 -3
BITMAP
0C0600
080440
09FFE0
086100
181180
101100
320220
33FFF0
560020
940640
100420
100430
13FFF0
101000
101040
107FE0
106040
106040
10C0C0
110780
120100
ENDCHAR
STARTCHAR 5091
ENCODING 20625
SWIDTH 1008 0
DWIDTH 21 0
BBX 20 21 1 -3
BITMAP
19C060
111040
11F840
1217F0
321240
251240
28D240
606240
60CFF0
A30040
2C0C40
2C0840
200800
200820
2FFFF0
201C00
206A00
20C980
230870
2C0820
200800
ENDCHAR
STARTCHAR 5098
ENCODING 20632
SWIDTH 1008 0
DWIDTH 21 0
BBX 20 21 1 -3
BITMAP
00E000
01C000
037000
0C0E00
3001F0
CC7120
086100
146280
226440
4A6940
086100
146280
146280
226440
426840
006000
FFFFF0
006000
006000
006000
006000
ENDCHAR
STARTCHAR 5099
ENCODING 20633
SWIDTH 1008 0
DWIDTH 21 0
BBX 20 21 1 -3
BITMAP
0C1980
081120
09FFF0
181100
101100
311120
31FFF0
310000
516020
517FF0
916220
916220
116220
117FE0
116220
116220
137FE0
126220
126220
1462E0
106240
ENDCHAR
STARTCHAR 509A
ENCODING 20634
SWIDTH 1008 0
DWIDTH 21 0
BBX 20 21 1 -3
BITMAP
0CE300
08C200
08C200
18D220
17FBF0
300420
326620
536A20
521220
941140
106140
127140
127140
116080
10C080
10C140
116140
121260
141420
100830
101020
ENDCHAR
STARTCHAR 50AC
ENCODING 20652
SWIDTH 1008 0
DWIDTH 21 0
BBX 20 21 1 -3
BITMAP
0C0600
09C430
090420
190420
11FFE0
310020
306200
307380
50E620
51FFF0
930400
970440
150440
19FFE0
110400
110440
11FFE0
110400
110420
11FFF0
110000
ENDCHAR
STARTCHAR 50AD
ENCODING 20653
SWIDTH 1008 0
DWIDTH 21 0
BBX 20 21 1 -3
BITMAP
0C0600
090420
09FFF0
190200
110220
117FF0
310220
31FFF0
510220
917FE0
110200
116220
116220
127FF0
126220
127FE0
126220
147FE0
146220
1862E0
106240
ENDCHAR
STARTCHAR 50B2
ENCODING 20658
SWIDTH 1008 0
DWIDTH 21 0
BBX 20 21 1 -3
BITMAP
18E300
10C200
10D200
37FA20
20C3F0
20C420
60D420
6FFA20
A0C220
20C940
2FFD40
2F0140
210140
211080
23F880
221140
221140
241260
247220
29E430
20C820
ENDCHAR
STARTCHAR 50B3
ENCODING 20659
SWIDTH 1008 0
DWIDTH 21 0
BBX 20 21 1 -3
BITMAP
0C0600
080420
0BFFF0
180400
11FFE0
110420
31FFE0
310420
51FFE0
500480
900440
900460
100FE0
13F820
110080
1000A0
13FFF0
10C080
106080
106780
100100
ENDCHAR
STARTCHAR 50B4
ENCODING 20660
SWIDTH 1008 0
DWIDTH 21 0
BBX 20 21 1 -3
BITMAP
0A0020
0BFFF0
0A0000
1A1080
121FC0
321080
321080
521F80
521080
920000
12C920
12CD30
12FDF0
12C920
12C920
12F9E0
12C920
120000
120020
13FFF0
120000
ENDCHAR
STARTCHAR 50B5
ENCODING 20661
SWIDTH 1008 0
DWIDTH 21 0
BBX 20 21 1 -3
BITMAP
0C0600
080440
09FFE0
180400
10FFC0
100400
33FFF0
300000
50FFC0
50C040
90FFC0
90C040
10C040
10FFC0
10C040
10FFC0
10C040
101300
1078C0
11C060
160020
ENDCHAR
STARTCHAR 50B7
ENCODING 20663
SWIDTH 1008 0
DWIDTH 21 0
BBX 20 21 1 -3
BITMAP
0CE000
08C040
09FFE0
190000
12FF80
14C080
30FF80
30C080
50FF80
900020
17FFF0
17E000
106000
10C020
11FFF0
121120
146220
10C420
170840
1073C0
11C080
ENDCHAR
STARTCHAR 50BE
ENCODING 20670
SWIDTH 1008 0
DWIDTH 21 0
BBX 20 21 1 -3
BITMAP
180020
101FF0
100180
360100
240A20
240FF0
64C820
64E820
650FE0
A60820
A40820
A40820
240FE0
240820
24C820
24CFE0
24E020
23C440
200620
200810
207010
ENDCHAR
STARTCHAR 50C2
ENCODING 20674
SWIDTH 1008 0
DWIDTH 21 0
BBX 20 21 1 -3
BITMAP
0C0C00
090880
09FFC0
1908A0
17FFF0
110880
31FF80
310880
500800
51FF80
910880
910880
11FF80
111080
106020
17FFF0
10C080
11F100
110E00
1071C0
13C040
ENDCHAR
STARTCHAR 50C5
ENCODING 20677
SWIDTH 1008 0
DWIDTH 21 0
BBX 20 21 1 -3
BITMAP
0C1980
081120
0BFFF0
181100
101100
310020
21FFF0
710420
510420
91FFE0
110420
110420
100400
11FFE0
100400
100480
10FFC0
100400
100420
13FFF0
100000
ENDCHAR
STARTCHAR 50C9
ENCODING 20681
SWIDTH 1008 0
DWIDTH 21 0
BBX 20 21 1 -3
BITMAP
007000
006000
00D000
010800
020600
0C0180
3002F0
CFFF20
000000
110880
1FCFC0
110880
110880
110880
1F0F80
000000
0C0300
080200
160580
210860
C17020
ENDCHAR
STARTCHAR 50CA
ENCODING 20682
SWIDTH 1008 0
DWIDTH 21 0
BBX 20 21 1 -3
BITMAP
180020
17FFF0
101200
31FFC0
211240
211240
61FFC0
610840
600820
A7FFF0
206200
204300
20C100
21FFC0
220170
2CC120
20FF00
20C140
20C040
20C060
207FC0
ENDCHAR
STARTCHAR 50CD
ENCODING 20685
SWIDTH 1008 0
DWIDTH 21 0
BBX 20 21 1 -3
BITMAP
181180
10F900
17C100
30C100
2FF920
20C7F0
67F920
64C920
67F920
A4C920
24C920
24C920
27F920
24C920
20C320
27FA20
20C220
20FA20
2F0420
2405C0
200880
ENDCHAR
STARTCHAR 50CF
ENCODING 20687
SWIDTH 1008 0
DWIDTH 21 0
BBX 20 21 1 -3
BITMAP
0C1800
081100
087F80
18C300
11C440
36FFE0
20C440
78C440
50FFC0
90C840
101820
107C30
106430
11CA40
161280
10E700
170A80
1012C0
10E270
170E20
100400
ENDCHAR
STARTCHAR 50D1
ENCODING 20689
SWIDTH 1008 0
DWIDTH 21 0
BBX 20 21 1 -3
BITMAP
0C0080
0807C0
08FC00
180820
13FFF0
101100
3060C0
30FFF0
5360A0
907F80
110020
110030
11FFF0
110020
111F20
111120
111120
111F20
110020
1101E0
110040
ENDCHAR
STARTCHAR 50D5
ENCODING 20693
SWIDTH 1008 0
DWIDTH 21 0
BBX 20 21 1 -3
BITMAP
0A19A0
091130
08D140
18D180
101120
33FFF0
306080
3010C0
501100
51FFE0
900400
9007C0
10FFC0
100420
13FFF0
100A00
100A00
101100
1060C0
11C070
160020
ENDCHAR
STARTCHAR 50D6
ENCODING 20694
SWIDTH 1008 0
DWIDTH 21 0
BBX 20 21 1 -3
BITMAP
0C0600
080420
0BFFF0
180400
11FFE0
100000
30FFC0
30C040
50C040
50FFC0
906100
907180
101180
101220
13FFF0
100000
10FFC0
10C040
10C040
10FFC0
10C040
ENDCHAR
STARTCHAR 50DA
ENCODING 20698
SWIDTH 1008 0
DWIDTH 21 0
BBX 20 21 1 -3
BITMAP
180C00
100800
100820
1FFFF0
341220
226140
21C080
63FFC0
6500B0
A9FFA0
210080
210080
210080
21FF80
200880
210800
21C900
2308C0
240860
287820
201000
ENDCHAR
STARTCHAR 50DE
ENCODING 20702
SWIDTH 1008 0
DWIDTH 21 0
BBX 20 21 1 -3
BITMAP
180180
1107C0
11F900
311080
260840
250840
61FF00
610100
610100
A1FF80
220080
2200A0
2200A0
23FFF0
240020
240220
256920
296560
236440
2203C0
200080
ENDCHAR
STARTCHAR 50E3
ENCODING 20707
SWIDTH 1008 0
DWIDTH 21 0
BBX 20 21 1 -3
BITMAP
18E0C0
10C080
10C0A0
33F3F0
20C080
20C0A0
27F7F0
61C140
616120
621210
A41410
A4D450
20C040
20FFE0
20C040
20C040
20FFC0
20C040
20C040
20FFC0
20C040
ENDCHAR
STARTCHAR 50E5
ENCODING 20709
SWIDTH 1008 0
DWIDTH 21 0
BBX 20 21 1 -3
BITMAP
0C0600
080480
08FFC0
180400
11FFE0
100000
30E0C0
30C0A0
53F3F0
50C080
90F8A0
90C8B0
17C7F0
120000
100020
13FFF0
101100
101120
106120
10C130
1300E0
ENDCHAR
STARTCHAR 50E7
ENCODING 20711
SWIDTH 1008 0
DWIDTH 21 0
BBX 20 21 1 -3
BITMAP
0C6080
0810C0
081100
190220
11FFF0
110420
31FFE0
310420
510420
51FFE0
900000
90C040
10C040
10FFE0
10C040
10C040
10FFC0
10C040
10C040
10FFC0
10C040
ENDCHAR
STARTCHAR 50ED
ENCODING 20717
SWIDTH 1008 0
DWIDTH 21 0
BBX 20 21 1 -3
BITMAP
1870C0
106080
17F7E0
316280
226480
27F7F0
20E180
6169A0
62F2B0
646460
A00000
A10040
210040
21FFE0
210040
210040
21FFC0
210040
210040
21FFC0
210040
ENDCHAR
STARTCHAR 50EE
ENCODING 20718
SWIDTH 1008 0
DWIDTH 21 0
BBX 20 21 1 -3
BITMAP
0C0600
080440
09FFE0
186100
101180
101220
33FFF0
300000
50C040
90FFE0
10C440
10C440
10FFC0
10C440
10FFC0
10C440
100400
10FFC0
100400
13FFF0
100000
ENDCHAR
STARTCHAR 50F5
ENCODING 20725
SWIDTH 1008 0
DWIDTH 21 0
BBX 20 21 1 -3
BITMAP
0C0020
0BFFF0
080000
18FFC0
10C440
10FFC0
30C440
30FFC0
500000
900040
11FFE0
11FFE0
100000
10FFC0
10C440
10FFC0
10C440
10FFC0
100020
13FFF0
100000
ENDCHAR
STARTCHAR 50F9
ENCODING 20729
SWIDTH 1008 0
DWIDTH 21 0
BBX 20 21 1 -3
BITMAP
180020
17FFF0
101200
321220
23FFF0
221220
63FFE0
620020
610040
A1FFE0
210040
210040
21FFC0
210040
21FFC0
210040
21FFC0
206000
20F3C0
21C070
260010
ENDCHAR
STARTCHAR 50FB
ENCODING 20731
SWIDTH 1008 0
DWIDTH 21 0
BBX 20 21 1 -3
BITMAP
0D10C0
09F880
091080
1910A0
1117F0
311020
311230
31F120
511140
5107F0
910080
921080
121080
13F8A0
1317F0
151080
151080
191080
111080
11F080
111080
ENDCHAR
STARTCHAR 5100
ENCODING 20736
SWIDTH 1008 0
DWIDTH 21 0
BBX 20 21 1 -3
BITMAP
0CC200
086300
086440
1BFFE0
100800
11FFC0
300800
37FFF0
506040
50F320
97C220
97C220
10C200
17FFF0
10C240
10F260
17C280
12C120
10C2A0
13C470
111830
ENDCHAR
STARTCHAR 5101
ENCODING 20737
SWIDTH 1008 0
DWIDTH 21 0
BBX 20 21 1 -3
BITMAP
0CC200
08E300
08C440
19FFE0
110400
13FFC0
350400
31FFC0
510400
51FFE0
910000
931220
121220
13FBF0
121220
121220
121E20
121220
120020
1201E0
120040
ENDCHAR
STARTCHAR 5102
ENCODING 20738
SWIDTH 1008 0
DWIDTH 21 0
BBX 20 21 1 -3
BITMAP
0C1B00
091240
09FFE0
191240
11FFC0
111240
31FFC0
310040
520020
53FFF0
920000
927FE0
127FE0
120000
13FFF0
126420
126470
146280
147900
19E0F0
10C020
ENDCHAR
STARTCHAR 5104
ENCODING 20740
SWIDTH 1008 0
DWIDTH 21 0
BBX 20 21 1 -3
BITMAP
0C0600
080400
080440
19FFE0
106100
301180
301220
53FFF0
500000
90FFC0
10C040
10C040
10FFC0
10C040
10FFC0
10C040
100800
116460
116510
166190
141F00
ENDCHAR
STARTCHAR 5109
ENCODING 20745
SWIDTH 1008 0
DWIDTH 21 0
BBX 20 21 1 -3
BITMAP
0C0C00
080800
081400
186300
10C0C0
110170
36FFA0
300000
521220
53FBF0
921220
921220
121220
13F3E0
121220
10C080
10E0C0
10C080
116140
121220
141420
ENDCHAR
STARTCHAR 5112
ENCODING 20754
SWIDTH 1008 0
DWIDTH 21 0
BBX 20 21 1 -3
BITMAP
0C0080
09FFC0
080800
1A0820
13FFF0
160820
35EBA0
300800
51EB80
500020
93FFF0
93FC00
100C00
110820
11FFF0
111220
111220
111220
111220
1112E0
111240
ENDCHAR
STARTCHAR 5114
ENCODING 20756
SWIDTH 1008 0
DWIDTH 21 0
BBX 20 21 1 -3
BITMAP
180C00
100840
17FFE0
300800
23FFC0
200020
2FFFF0
600020
63FFA0
600800
A7FFE0
A7FFE0
200000
2FFFF0
200040
27EFF0
246040
246840
246440
27E1C0
246080
ENDCHAR
STARTCHAR 5115
ENCODING 20757
SWIDTH 1008 0
DWIDTH 21 0
BBX 20 21 1 -3
BITMAP
180C00
100820
17FFF0
306220
201270
2FD5C0
22C940
62C940
64C930
69C9A0
A00A00
A1CA60
21C060
210040
21FFC0
210040
210040
23FFC0
220040
240040
280040
ENDCHAR
STARTCHAR 5116
ENCODING 20758
SWIDTH 1008 0
DWIDTH 21 0
BBX 20 21 1 -3
BITMAP
1A1180
13F900
12C120
32D3F0
23F200
221200
221400
63F000
62C040
62C1E0
A3F800
A20000
220000
210040
21FFE0
211240
211240
211240
211240
27FFF0
200000
ENDCHAR
STARTCHAR 5118
ENCODING 20760
SWIDTH 1008 0
DWIDTH 21 0
BBX 20 21 1 -3
BITMAP
0C0C00
080840
09FFE0
180840
17FFF0
100840
31FFC0
300840
500800
97FFF0
126240
137360
131120
141120
110040
11FFE0
111240
111240
111240
17FFF0
100000
ENDCHAR
STARTCHAR 511A
ENCODING 20762
SWIDTH 1008 0
DWIDTH 21 0
BBX 20 21 1 -3
BITMAP
0C1980
081120
0BFFF0
181100
110040
11FFE0
311240
311240
51FFC0
520020
93FFF0
927020
167020
146120
10FF80
116100
161200
101400
100800
107000
13C000
ENDCHAR
STARTCHAR 511F
ENCODING 20767
SWIDTH 1008 0
DWIDTH 21 0
BBX 20 21 1 -3
BITMAP
0C6680
0814C0
091520
19FFF0
130020
327FA0
306080
307F80
500000
50FFC0
90C040
90C040
10FFC0
10C040
10FFC0
10C040
10FFC0
101000
101980
10E060
130020
ENDCHAR
STARTCHAR 5121
ENCODING 20769
SWIDTH 1008 0
DWIDTH 21 0
BBX 20 21 1 -3
BITMAP
190080
11FFC0
110880
310880
21FF80
210880
210880
61FF80
610080
600000
A46420
A47430
27F7F0
256520
256520
27E7E0
256520
256520
256520
27E7E0
246420
ENDCHAR
STARTCHAR 512A
ENCODING 20778
SWIDTH 1008 0
DWIDTH 21 0
BBX 20 21 1 -3
BITMAP
1BFFE0
101000
10FF80
30C080
20FF80
20C080
60FF80
64C0A0
67FFF0
A40820
2964A0
2965E0
216140
221F40
200000
206080
20FFC0
216100
261E00
2071E0
27C040
ENDCHAR
STARTCHAR 5132
ENCODING 20786
SWIDTH 1008 0
DWIDTH 21 0
BBX 20 21 1 -3
BITMAP
18C180
17E120
100130
3067E0
2FF140
200140
60C1A0
67EFF0
600100
A0C240
27E7E0
27E440
200C40
201440
27E440
2467C0
246440
246440
246440
27E7C0
246440
ENDCHAR
STARTCHAR 5137
ENCODING 20791
SWIDTH 1008 0
DWIDTH 21 0
BBX 20 21 1 -3
BITMAP
180020
17F7F0
100000
33F3E0
221220
22D2A0
22D2A0
600C00
600820
63FFF0
A21200
A213E0
23FFE0
221220
23FFE0
24C240
24FAE0
28C300
28FA20
37C230
2201E0
ENDCHAR
STARTCHAR 513A
ENCODING 20794
SWIDTH 1008 0
DWIDTH 21 0
BBX 20 21 1 -3
BITMAP
1B1920
1211B0
1FFD60
321340
23F2A0
20C3F0
23F640
62D640
62DA40
63F3F0
A2D240
A2D240
20C240
27FA40
20C3F0
27FA40
216240
216240
221240
2213F0
240200
ENDCHAR
STARTCHAR 513B
ENCODING 20795
SWIDTH 1008 0
DWIDTH 21 0
BBX 20 21 1 -3
BITMAP
0CC680
0864C0
0A6520
1BFFF0
120020
127FA0
306080
307F80
510020
51FFF0
9164A0
917520
111520
11FFE0
100400
11FFE0
100400
17FFF0
10D240
130920
120920
ENDCHAR
STARTCHAR 513C
ENCODING 20796
SWIDTH 1008 0
DWIDTH 21 0
BBX 20 21 1 -3
BITMAP
1A1220
13FBF0
121220
33F3E0
240000
27FFF0
240000
641180
65F900
646120
A7FBF0
A51220
251220
251520
2DF140
291140
29F080
291140
31F160
271230
221420
ENDCHAR
STARTCHAR 513F
ENCODING 20799
SWIDTH 1008 0
DWIDTH 21 0
BBX 20 21 1 -3
BITMAP
030600
020400
020400
020400
020400
020400
020400
020400
020400
020400
020400
060400
040400
040400
040400
080400
080400
100420
200420
400430
8003E0
ENDCHAR
STARTCHAR 5140
ENCODING 20800
SWIDTH 1008 0
DWIDTH 21 0
BBX 20 20 1 -3
BITMAP
000020
FFFFF0
020400
020400
020400
020400
020400
020400
020400
020400
040400
040400
040400
040400
080400
080400
100420
100420
200430
C003E0
ENDCHAR
STARTCHAR 5141
ENCODING 20801
SWIDTH 1008 0
DWIDTH 21 0
BBX 20 21 1 -3
BITMAP
020000
030000
060200
040100
080080
080040
10FFC0
FFC860
620840
020800
020800
020800
020800
040800
040800
080800
080800
100820
100820
200C30
4007E0
ENDCHAR
STARTCHAR 5143
ENCODING 20803
SWIDTH 1008 0
DWIDTH 21 0
BBX 20 21 1 -3
BITMAP
000100
1FFF80
000000
000000
000000
000000
000000
000020
FFFFF0
020800
020800
020800
020800
020800
060800
040800
0C0800
080820
100820
200830
C007E0
ENDCHAR
STARTCHAR 5144
ENCODING 20804
SWIDTH 1008 0
DWIDTH 21 0
BBX 20 21 1 -3
BITMAP
100100
1FFF80
100100
100100
100100
100100
100100
100100
100100
1FFF00
120900
120900
020800
020800
040800
040800
080800
080820
100820
200C30
C007E0
ENDCHAR
STARTCHAR 5145
ENCODING 20805
SWIDTH 1008 0
DWIDTH 21 0
BBX 20 21 1 -3
BITMAP
007000
006000
006020
FFFFF0
030000
020400
040200
047F00
3FC880
120880
020800
020800
020800
020800
040800
040800
080800
080820
100820
200C30
C007E0
ENDCHAR
STARTCHAR 5146
ENCODING 20806
SWIDTH 1008 0
DWIDTH 21 0
BBX 20 21 1 -3
BITMAP
01CC00
010800
010800
010800
410840
3108E0
190B00
090C00
010800
010800
070B00
1F0B80
190880
E108C0
430840
020800
060800
0C0820
180820
200830
C007E0
ENDCHAR
STARTCHAR 5147
ENCODING 20807
SWIDTH 1008 0
DWIDTH 21 0
BBX 19 21 2 -3
BITMAP
000800
600CC0
401880
4C1080
43A080
40E080
419080
420880
440880
580080
400080
400080
7FFF80
440880
040800
040800
080800
080840
100840
200C60
C007C0
ENDCHAR
STARTCHAR 5148
ENCODING 20808
SWIDTH 1008 0
DWIDTH 21 0
BBX 20 21 1 -3
BITMAP
007000
0C6000
086000
086080
1FFFC0
106000
206000
406000
006020
FFFFF0
020800
020800
020800
020800
040800
040800
080800
080820
100820
200830
C007E0
ENDCHAR
STARTCHAR 5149
ENCODING 20809
SWIDTH 1008 0
DWIDTH 21 0
BBX 20 21 1 -3
BITMAP
007000
006040
6060E0
106080
086100
0C6200
046400
006000
006020
FFFFF0
020800
020800
020800
020800
040800
040800
080800
080820
100820
200830
C007E0
ENDCHAR
STARTCHAR 514B
ENCODING 20811
SWIDTH 1008 0
DWIDTH 21 0
BBX 20 21 1 -3
BITMAP
007000
006000
006020
FFFFF0
006000
086100
0FFF80
080100
080100
080100
080100
080100
0FFF00
090900
010800
020800
020800
040820
080820
300830
C007E0
ENDCHAR
STARTCHAR 514C
ENCODING 20812
SWIDTH 1008 0
DWIDTH 21 0
BBX 20 21 1 -3
BITMAP
040400
06FE00
040400
0C0200
080200
180100
2FFFC0
480170
880120
080100
080100
080100
0FFF00
090900
010800
020800
020800
040820
080820
300830
C007E0
ENDCHAR
STARTCHAR 514D
ENCODING 20813
SWIDTH 1008 0
DWIDTH 21 0
BBX 20 21 1 -3
BITMAP
030000
020200
07FF00
040400
080800
101000
206080
DFFFC0
106080
106080
106080
106080
106080
1FFF80
110880
010800
020800
040820
080820
300830
C007E0
ENDCHAR
STARTCHAR 514E
ENCODING 20814
SWIDTH 1008 0
DWIDTH 21 0
BBX 20 21 1 -3
BITMAP
000200
000F00
00F800
1F6000
006000
206040
3FFFE0
206040
206040
206040
206040
206040
3FFFC0
220840
020A00
020900
040880
0408A0
080820
300830
C007E0
ENDCHAR
STARTCHAR 5150
ENCODING 20816
SWIDTH 1008 0
DWIDTH 21 0
BBX 20 21 1 -3
BITMAP
18C080
10FFC0
10C080
10C080
10C080
10FF80
10C080
10C080
10C080
10FF80
10C080
10C080
100000
030C00
020800
020800
040800
040820
080820
300830
C007E0
ENDCHAR
STARTCHAR 5152
ENCODING 20818
SWIDTH 1008 0
DWIDTH 21 0
BBX 20 21 1 -3
BITMAP
00C000
11E000
1E0080
100FC0
100080
100080
100080
1F0F80
100080
100080
100080
100080
1FFF80
120880
020800
040800
040800
080820
100820
200830
C007E0
ENDCHAR
STARTCHAR 5154
ENCODING 20820
SWIDTH 1008 0
DWIDTH 21 0
BBX 20 21 1 -3
BITMAP
030000
020200
07FF00
040600
080800
101000
206080
DFFFC0
106080
106080
10C080
10C080
1FFF80
110880
010A00
020900
020880
0408A0
080820
300830
C007E0
ENDCHAR
STARTCHAR 515A
ENCODING 20826
SWIDTH 1008 0
DWIDTH 21 0
BBX 20 21 1 -3
BITMAP
107100
086180
046200
446420
7FFFF0
C00020
880240
0FFF00
080200
080200
080200
080200
0FFE00
091200
011000
021000
021000
041020
081020
301030
C00FE0
ENDCHAR
STARTCHAR 515C
ENCODING 20828
SWIDTH 1008 0
DWIDTH 21 0
BBX 20 21 1 -3
BITMAP
081000
0C7820
50C1F0
63FC20
420420
420420
43FC20
420420
420420
43FC20
7A05E0
4205E0
400020
030C00
020800
060800
040800
0C0820
180820
200830
C007E0
ENDCHAR
STARTCHAR 5162
ENCODING 20834
SWIDTH 1008 0
DWIDTH 21 0
BBX 20 21 1 -3
BITMAP
0C0300
080200
090220
FFDFF0
080200
080200
491240
7FDFE0
411040
411040
411040
411040
7F1FC0
551540
140500
146500
24C500
250920
4E0920
441130
80E0E0
ENDCHAR
STARTCHAR 5165
ENCODING 20837
SWIDTH 1008 0
DWIDTH 21 0
BBX 20 21 1 -3
BITMAP
006000
1FF000
006000
006000
006000
006000
00E000
00D000
00D000
01D000
010800
010800
030800
020400
060400
040200
080100
100180
2000C0
400070
800020
ENDCHAR
STARTCHAR 5168
ENCODING 20840
SWIDTH 1008 0
DWIDTH 21 0
BBX 20 20 1 -2
BITMAP
00E000
00C000
01E000
031000
060800
080600
100180
2000F0
C00120
1FFF80
006000
006000
006000
006200
0FFF00
006000
006000
006000
006040
7FFFE0
ENDCHAR
STARTCHAR 5169
ENCODING 20841
SWIDTH 1008 0
DWIDTH 21 0
BBX 20 21 1 -3
BITMAP
000020
FFFFF0
006000
006000
406020
7FFFF0
406020
406020
446220
5E6F20
446220
446220
446220
4C6620
4A6520
526920
51E8E0
6170A0
406020
4061E0
406040
ENDCHAR
STARTCHAR 516A
ENCODING 20842
SWIDTH 1008 0
DWIDTH 21 0
BBX 20 21 1 -3
BITMAP
00C000
1FE000
011000
020800
040600
080180
3004F0
C7FE20
000000
410440
7FC660
410440
410CC0
590880
451100
416200
591100
450880
410440
4F0660
420220
ENDCHAR
STARTCHAR 516B
ENCODING 20843
SWIDTH 1008 0
DWIDTH 21 0
BBX 20 19 1 -2
BITMAP
000800
07FC00
000800
000800
060800
040400
040400
040400
0C0400
080200
080200
080200
080100
100180
100080
2000C0
200060
400030
800020
ENDCHAR
STARTCHAR 516C
ENCODING 20844
SWIDTH 1008 0
DWIDTH 21 0
BBX 20 21 1 -3
BITMAP
030800
020800
020800
060400
040400
080200
080200
100100
2100C0
41C070
810020
810020
030000
020800
020400
060200
040200
040100
087F80
7FC080
200080
ENDCHAR
STARTCHAR 516D
ENCODING 20845
SWIDTH 1008 0
DWIDTH 21 0
BBX 20 19 1 -2
BITMAP
007000
006000
006000
006020
FFFFF0
000000
000000
000000
040800
060400
040600
040200
0C0100
080080
1800C0
100040
200060
400020
800020
ENDCHAR
STARTCHAR 516E
ENCODING 20846
SWIDTH 1008 0
DWIDTH 21 0
BBX 20 21 1 -3
BITMAP
000400
09FE00
0C0400
080200
100100
100080
2002C0
5FFF70
820020
020000
040100
040180
07FF80
080100
080100
000100
000300
000200
000600
007C00
000800
ENDCHAR
STARTCHAR 5171
ENCODING 20849
SWIDTH 1008 0
DWIDTH 21 0
BBX 20 21 1 -3
BITMAP
060300
040200
040200
040200
040280
3FFFC0
040200
040200
040200
040200
040200
040220
040220
FFFFF0
000000
040400
060200
040100
080080
1000C0
600040
ENDCHAR
STARTCHAR 5175
ENCODING 20853
SWIDTH 1008 0
DWIDTH 21 0
BBX 20 21 1 -3
BITMAP
000400
000E00
047000
07C000
040000
040080
07FFC0
040400
040400
040400
040400
040400
040400
040420
FFFFF0
000000
020C00
070300
0C00C0
100060
600020
ENDCHAR
STARTCHAR 5176
ENCODING 20854
SWIDTH 1008 0
DWIDTH 21 0
BBX 20 21 1 -3
BITMAP
060300
040200
040240
7FFFE0
040200
040200
07FE00
040200
040200
07FE00
040200
040200
040200
040220
FFFFF0
000000
020000
070E00
0C0180
3000C0
C00040
ENDCHAR
STARTCHAR 5177
ENCODING 20855
SWIDTH 1008 0
DWIDTH 21 0
BBX 20 21 1 -3
BITMAP
080100
0FFF80
080100
080100
0FFF00
080100
080100
0FFF00
080100
080100
080100
080100
0FFF00
080100
000020
FFFFF0
040400
060300
0800C0
300060
C00020
ENDCHAR
STARTCHAR 5178
ENCODING 20856
SWIDTH 1008 0
DWIDTH 21 0
BBX 20 21 1 -3
BITMAP
01CC00
010800
010800
110880
1FFFC0
110880
110880
110880
110880
1FFF80
110880
110880
110880
110880
1108A0
FFFFF0
000000
020C00
070380
180060
E00020
ENDCHAR
STARTCHAR 517C
ENCODING 20860
SWIDTH 1008 0
DWIDTH 21 0
BBX 20 21 1 -3
BITMAP
080200
040300
020400
020840
7FFFE0
010800
1FFF80
010880
0108A0
FFFFF0
010880
010880
010880
1FFF80
030C80
050A00
090900
1108C0
210870
C10820
010800
ENDCHAR
STARTCHAR 5180
ENCODING 20864
SWIDTH 1008 0
DWIDTH 21 0
BBX 20 21 1 -3
BITMAP
030C40
0208E0
FE0F00
020820
0E0820
F20C30
4207E0
100080
1FFFC0
106080
1FFF80
106080
106080
1FFF80
040240
7FFFE0
040200
FFFFF0
080300
1C00C0
E00040
ENDCHAR
STARTCHAR 5182
ENCODING 20866
SWIDTH 1008 0
DWIDTH 21 0
BBX 19 21 2 -3
BITMAP
800040
FFFFE0
800040
800040
800040
800040
800040
800040
800040
800040
800040
800040
800040
800040
800040
800040
800040
800040
800040
8003C0
800080
ENDCHAR
STARTCHAR 5185
ENCODING 20869
SWIDTH 1008 0
DWIDTH 21 0
BBX 19 21 2 -3
BITMAP
00E000
00C000
00C000
80C040
FFFFE0
80C040
80C040
81C040
81B040
838840
820C40
840E40
840640
880240
900240
A00040
800040
800040
800040
8003C0
800080
ENDCHAR
STARTCHAR 5186
ENCODING 20870
SWIDTH 1008 0
DWIDTH 21 0
BBX 19 21 2 -3
BITMAP
800040
FFFFE0
80C040
80C040
80C040
80C040
80C040
80C040
80C040
80C040
FFFFC0
800040
800040
800040
800040
800040
800040
800040
800040
8003C0
800080
ENDCHAR
STARTCHAR 5189
ENCODING 20873
SWIDTH 1008 0
DWIDTH 21 0
BBX 20 21 1 -3
BITMAP
007000
006000
006000
106080
1FFFC0
106080
106080
106080
1FFF80
106080
106080
106080
106080
1060A0
FFFFF0
100080
100080
100080
100080
100780
100100
ENDCHAR
STARTCHAR 518A
ENCODING 20874
SWIDTH 1008 0
DWIDTH 21 0
BBX 20 21 1 -3
BITMAP
100080
1FFFC0
110880
110880
110880
110880
110880
110880
1108A0
FFFFF0
110880
110880
110880
110880
110880
110880
110880
110880
110880
110B80
110900
ENDCHAR
STARTCHAR 518C
ENCODING 20876
SWIDTH 1008 0
DWIDTH 21 0
BBX 20 21 1 -3
BITMAP
110880
1FCFC0
110880
110880
110880
110880
110880
110880
1108A0
FFFFF0
110880
110880
110880
110880
110880
111080
111080
211080
2F6080
226780
40C100
ENDCHAR
STARTCHAR 518D
ENCODING 20877
SWIDTH 1008 0
DWIDTH 21 0
BBX 20 21 1 -3
BITMAP
000020
FFFFF0
006000
006000
106080
1FFFC0
106080
106080
106080
1FFF80
106080
106080
106080
1060A0
FFFFF0
100080
100080
100080
100080
100780
100100
ENDCHAR
STARTCHAR 518F
ENCODING 20879
SWIDTH 1008 0
DWIDTH 21 0
BBX 19 21 2 -3
BITMAP
800040
FFFFE0
821040
821040
821040
821240
841240
841340
880E40
900040
A40840
A40C40
87FC40
840840
840840
840840
87F840
840840
800040
8003C0
800080
ENDCHAR
STARTCHAR 5190
ENCODING 20880
SWIDTH 1008 0
DWIDTH 21 0
BBX 17 21 3 -3
BITMAP
800100
FFFF80
800100
BFFD00
800100
BFFD00
800100
000000
200400
3FFE00
200400
200400
200400
3FFC00
200400
200400
3FFC00
200400
200400
203C00
200800
ENDCHAR
STARTCHAR 5191
ENCODING 20881
SWIDTH 1008 0
DWIDTH 21 0
BBX 17 21 3 -3
BITMAP
01C000
018000
818100
FFFF80
818100
FFFF00
818100
FFFF00
800100
200400
3FFE00
200400
200400
202400
2FF400
200400
2FF400
200400
200400
203C00
200800
ENDCHAR
STARTCHAR 5192
ENCODING 20882
SWIDTH 1008 0
DWIDTH 21 0
BBX 18 21 2 -3
BITMAP
800080
FFFFC0
800080
800080
FFFF80
800080
800080
FFFF80
800080
3FFE00
200200
200200
200200
3FFE00
200200
200200
3FFE00
200200
200200
3FFE00
200200
ENDCHAR
STARTCHAR 5193
ENCODING 20883
SWIDTH 1008 0
DWIDTH 21 0
BBX 20 21 1 -3
BITMAP
030600
020440
7FFFE0
020400
3FFFC0
020400
020420
FFFFF0
006000
106080
1FFFC0
106080
106080
1FFF80
106080
1060A0
FFFFF0
100080
100080
100780
100100
ENDCHAR
STARTCHAR 5195
ENCODING 20885
SWIDTH 1008 0
DWIDTH 21 0
BBX 20 21 1 -3
BITMAP
200040
3FFFE0
200040
27FE40
200040
27FE40
230040
020800
07FC00
080800
101080
1010C0
3FFFC0
D0C080
10C080
1FFF80
110880
020820
040820
180830
E007E0
ENDCHAR
STARTCHAR 5196
ENCODING 20886
SWIDTH 1008 0
DWIDTH 21 0
BBX 20 7 1 5
BITMAP
200020
3FFFF0
200020
400040
C00080
800180
800100
ENDCHAR
STARTCHAR 5197
ENCODING 20887
SWIDTH 1008 0
DWIDTH 21 0
BBX 20 20 1 -3
BITMAP
400020
7FFFF0
400020
C00040
800080
040400
07FE00
040400
040400
040400
040400
040400
040400
040400
080400
080400
100420
100420
200430
C003E0
ENDCHAR
STARTCHAR 5199
ENCODING 20889
SWIDTH 1008 0
DWIDTH 21 0
BBX 20 20 1 -3
BITMAP
400040
7FFFE0
400040
C60080
840900
07FC00
040000
040400
0FFE00
080400
080400
080400
000420
FFFFF0
000800
001800
001000
007000
03E000
00C000
ENDCHAR
STARTCHAR 51A0
ENCODING 20896
SWIDTH 1008 0
DWIDTH 21 0
BBX 20 21 1 -3
BITMAP
400020
7FFFF0
C00020
800040
000000
000180
3F0100
000140
007FE0
010100
7FC100
721100
121100
120900
120900
120900
120100
220120
220720
430230
81FFE0
ENDCHAR
STARTCHAR 51A2
ENCODING 20898
SWIDTH 1008 0
DWIDTH 21 0
BBX 20 21 1 -3
BITMAP
400020
7FFFF0
C00020
800240
1FFF00
011000
021020
0D1030
30C840
C0E840
096480
0F7500
061500
1A1200
E27100
01D180
0610C0
187070
E06020
03E000
00C000
ENDCHAR
STARTCHAR 51A4
ENCODING 20900
SWIDTH 1008 0
DWIDTH 21 0
BBX 20 21 1 -3
BITMAP
200020
3FFFF0
200020
630040
420480
07FE00
040800
081080
3FFFC0
D06080
106080
104080
10C080
1FFF80
10C800
010A00
010900
0208A0
0408A0
180830
E007E0
ENDCHAR
STARTCHAR 51A5
ENCODING 20901
SWIDTH 1008 0
DWIDTH 21 0
BBX 20 21 1 -3
BITMAP
400020
7FFFF0
C00020
880140
0FFF80
080100
080100
0FFF00
080100
080100
0FFF00
080100
080100
007000
006020
FFFFF0
000000
020E00
070180
180060
E00020
ENDCHAR
STARTCHAR 51A6
ENCODING 20902
SWIDTH 1008 0
DWIDTH 21 0
BBX 20 21 1 -3
BITMAP
400020
7FFFF0
C00020
800040
020600
7F0440
0007E0
000400
010480
FFDFC0
240080
241880
241880
240500
240200
240500
240900
4410A0
44E0A0
440030
83FFE0
ENDCHAR
STARTCHAR 51A8
ENCODING 20904
SWIDTH 1008 0
DWIDTH 21 0
BBX 20 21 1 -3
BITMAP
400020
7FFFF0
400020
C00240
9FFF40
000000
080200
0FFF00
080200
080200
0FFE00
2FFE80
200080
3FFFC0
206080
206080
3FFF80
206080
206080
3FFF80
200080
ENDCHAR
STARTCHAR 51A9
ENCODING 20905
SWIDTH 1008 0
DWIDTH 21 0
BBX 20 21 1 -3
BITMAP
400020
7FFFF0
C10020
81C040
160100
181F80
100100
1F1F00
100100
100100
1FFF00
120100
120100
040020
0FFFF0
300420
C06220
121220
111040
6103C0
400080
ENDCHAR
STARTCHAR 51AA
ENCODING 20906
SWIDTH 1008 0
DWIDTH 21 0
BBX 20 21 1 -3
BITMAP
400020
7FFFF0
C10820
9FFFA0
010800
0FFF00
080100
0FFF00
080100
0FFF00
08C100
09C120
010020
FFFFF0
046200
186180
2FFF70
C86120
086100
086F00
006200
ENDCHAR
STARTCHAR 51AB
ENCODING 20907
SWIDTH 1008 0
DWIDTH 21 0
BBX 10 21 5 -3
BITMAP
6000
1000
0C00
0600
0600
0040
0040
0080
0080
0100
0100
0200
0600
8600
4C00
3C00
1000
1000
1000
1000
1000
ENDCHAR
STARTCHAR 51AC
ENCODING 20908
SWIDTH 1008 0
DWIDTH 21 0
BBX 20 21 1 -3
BITMAP
01C000
010000
020200
07FF00
080600
140400
220800
C11000
00E000
011800
020E00
040F80
0C0380
31C0F0
C07020
000C00
000400
07C000
007800
000600
000200
ENDCHAR
STARTCHAR 51B0
ENCODING 20912
SWIDTH 1008 0
DWIDTH 21 0
BBX 20 21 1 -3
BITMAP
000C00
400800
200800
100800
106820
07F830
006860
086840
086C80
08CD00
10CA00
10CA00
10CA00
A10900
610880
6208C0
220870
240820
280800
20F800
201000
ENDCHAR
STARTCHAR 51B1
ENCODING 20913
SWIDTH 1008 0
DWIDTH 21 0
BBX 20 21 1 -3
BITMAP
000040
43FFE0
206000
106000
106000
006100
04FF80
04C100
08C100
08C100
110100
110100
110100
A1FF00
610200
600200
200200
200200
200220
27FFF0
200000
ENDCHAR
STARTCHAR 51B2
ENCODING 20914
SWIDTH 1008 0
DWIDTH 21 0
BBX 20 21 1 -3
BITMAP
000600
400400
200400
100400
110420
01FFF0
050420
050420
090420
090420
110420
110420
110420
A1FFE0
610420
600400
200400
200400
200400
200400
200400
ENDCHAR
STARTCHAR 51B3
ENCODING 20915
SWIDTH 1008 0
DWIDTH 21 0
BBX 20 21 1 -3
BITMAP
000C00
400800
200800
100880
11FFC0
000880
040880
040880
080880
0808A0
13FFF0
13F400
101400
A01400
607200
606200
20C100
20C080
2100C0
220070
240020
ENDCHAR
STARTCHAR 51B4
ENCODING 20916
SWIDTH 1008 0
DWIDTH 21 0
BBX 20 21 1 -3
BITMAP
400040
20FFE0
101080
101080
001080
041080
041080
041080
0810A0
09FFF0
080180
900180
900380
500280
700480
200880
201080
206080
21C080
260780
000100
ENDCHAR
STARTCHAR 51B5
ENCODING 20917
SWIDTH 1008 0
DWIDTH 21 0
BBX 20 21 1 -3
BITMAP
40C040
20FFE0
10C040
10C040
10C040
00C040
04C040
04C040
08C040
08FFC0
10D240
10D240
101200
A01200
601200
606200
206200
20C220
20C220
210230
2601E0
ENDCHAR
STARTCHAR 51B6
ENCODING 20918
SWIDTH 1008 0
DWIDTH 21 0
BBX 20 21 1 -3
BITMAP
000800
400C00
200800
121800
121080
046040
046020
08C7F0
0BF810
09C010
100000
10C040
10C040
90FFE0
70C040
20C040
20C040
20C040
20C040
20FFC0
20C040
ENDCHAR
STARTCHAR 51B7
ENCODING 20919
SWIDTH 1008 0
DWIDTH 21 0
BBX 20 21 1 -3
BITMAP
000C00
400800
200C00
101400
121200
126100
046080
04C140
097FB0
0A0020
080040
100060
11FFE0
900840
700840
200840
200840
200BC0
200880
200800
200800
ENDCHAR
STARTCHAR 51BD
ENCODING 20925
SWIDTH 1008 0
DWIDTH 21 0
BBX 20 21 1 -3
BITMAP
000030
400820
23FDA0
10C120
10C120
010120
090920
09FD20
090920
120920
121920
15D120
15D120
A8D120
606120
606120
20C020
20C020
210020
2201E0
240040
ENDCHAR
STARTCHAR 51C4
ENCODING 20932
SWIDTH 1008 0
DWIDTH 21 0
BBX 20 21 1 -3
BITMAP
000C00
400800
200840
13FFE0
100800
01FF80
0808A0
0FFFF0
080880
11FF80
101080
101880
101800
201020
A7FFF0
406080
40C100
41F200
410F00
4070C0
47C040
ENDCHAR
STARTCHAR 51C5
ENCODING 20933
SWIDTH 1008 0
DWIDTH 21 0
BBX 20 21 1 -3
BITMAP
410020
21FFF0
110020
110620
110420
0104A0
09FFE0
090420
090420
111520
111FA0
111120
111120
A11120
611120
611120
211F20
211120
210020
21FFE0
210020
ENDCHAR
STARTCHAR 51C6
ENCODING 20934
SWIDTH 1008 0
DWIDTH 21 0
BBX 20 21 1 -3
BITMAP
401080
2018C0
101180
107100
106220
04FFF0
04E200
056200
096240
0A7FE0
086200
106200
106200
906240
707FE0
206200
206200
206200
206220
207FF0
206000
ENDCHAR
STARTCHAR 51C9
ENCODING 20937
SWIDTH 1008 0
DWIDTH 21 0
BBX 20 21 1 -3
BITMAP
000600
400400
200420
13FFF0
100000
00C040
00FFE0
08C040
08C040
08C040
10FFC0
10C440
10C440
A00400
60C500
60E480
210440
220420
240420
207C00
200800
ENDCHAR
STARTCHAR 51CB
ENCODING 20939
SWIDTH 1008 0
DWIDTH 21 0
BBX 20 21 1 -3
BITMAP
010020
41FFF0
210020
110620
110420
057FA0
050420
090420
097FA0
090020
111120
1111A0
111FA0
911120
711120
611120
221F20
221120
220020
2401E0
280040
ENDCHAR
STARTCHAR 51CC
ENCODING 20940
SWIDTH 1008 0
DWIDTH 21 0
BBX 20 21 1 -3
BITMAP
000600
400400
200440
12FFE0
120400
140420
05FFF0
041100
081120
086130
08CCE0
13C880
130880
901FC0
706080
20D100
230A00
200400
201B80
20E0F0
270020
ENDCHAR
STARTCHAR 51CD
ENCODING 20941
SWIDTH 1008 0
DWIDTH 21 0
BBX 20 21 1 -3
BITMAP
000600
400420
23FFF0
100400
10C440
14FFE0
04C440
04C440
08FFC0
08C440
08C440
10C440
10FFC0
90CE40
700D00
201500
206480
20C440
210470
260420
200400
ENDCHAR
STARTCHAR 51D6
ENCODING 20950
SWIDTH 1008 0
DWIDTH 21 0
BBX 20 21 1 -3
BITMAP
606100
107180
146220
04FFF0
08C200
09FFE0
12C200
90FFE0
60C200
20FFF0
20C000
20F000
207000
006000
006020
FFFFF0
006000
006000
006000
006000
006000
ENDCHAR
STARTCHAR 51DB
ENCODING 20955
SWIDTH 1008 0
DWIDTH 21 0
BBX 20 21 1 -3
BITMAP
000600
400400
200420
13FFF0
100000
00FFC0
00C040
08DF40
08D140
08DF40
10C040
10C040
10FFC0
A00080
60FFC0
600020
23FFF0
200400
210480
21DC40
260820
ENDCHAR
STARTCHAR 51DC
ENCODING 20956
SWIDTH 1008 0
DWIDTH 21 0
BBX 20 21 1 -3
BITMAP
000600
400400
200420
13FFF0
100000
00FFC0
04C040
04DF40
04D140
08DF40
08C040
90C040
90FFC0
500100
60FF80
200420
23FFF0
200E00
201580
20E470
070420
ENDCHAR
STARTCHAR 51DD
ENCODING 20957
SWIDTH 1008 0
DWIDTH 21 0
BBX 20 21 1 -3
BITMAP
830020
4217F0
227820
23C140
2A1080
0A18A0
09F7F0
1000A0
1300A0
1210A0
13FA80
27C2A0
24C2A0
A0D2F0
67FA80
40C280
416280
411580
421480
440870
481020
ENDCHAR
STARTCHAR 51E0
ENCODING 20960
SWIDTH 1008 0
DWIDTH 21 0
BBX 20 21 1 -3
BITMAP
040200
07FF00
040200
040200
040200
040200
040200
040200
040200
040200
040200
040200
040200
040200
080200
080200
080200
100220
100220
200230
C001E0
ENDCHAR
STARTCHAR 51E1
ENCODING 20961
SWIDTH 1008 0
DWIDTH 21 0
BBX 20 21 1 -3
BITMAP
080400
0FFE00
080400
080400
080400
080400
090400
08C400
086400
086400
080400
080400
080400
100400
100400
100400
100400
200420
200420
400630
8003E0
ENDCHAR
STARTCHAR 51E6
ENCODING 20966
SWIDTH 1008 0
DWIDTH 21 0
BBX 20 21 1 -3
BITMAP
180000
100880
110FC0
1FC880
110880
310880
210880
210880
510880
530880
8A0880
8A0880
0A0880
0618A0
0410A0
0660B0
0AC060
090000
10E000
201C00
C007F0
ENDCHAR
STARTCHAR 51E7
ENCODING 20967
SWIDTH 1008 0
DWIDTH 21 0
BBX 20 21 1 -3
BITMAP
100080
1FFFC0
100080
107080
106080
106080
146280
17FF80
146280
146280
146280
146280
146280
146280
146280
2462A0
246EA0
246460
406060
406030
806010
ENDCHAR
STARTCHAR 51E9
ENCODING 20969
SWIDTH 1008 0
DWIDTH 21 0
BBX 20 21 1 -3
BITMAP
100080
1FFFC0
100080
100080
107080
106080
106080
106480
17FE80
106080
10E080
10F080
10F080
316880
2168A0
2264A0
2264A0
246060
486060
406030
800010
ENDCHAR
STARTCHAR 51EA
ENCODING 20970
SWIDTH 1008 0
DWIDTH 21 0
BBX 20 21 1 -3
BITMAP
100080
1FFFC0
100080
100080
107080
106080
106080
106080
136480
127E80
126080
126080
126080
326080
2260A0
2260A0
2260A0
226260
4FFF60
400030
800010
ENDCHAR
STARTCHAR 51ED
ENCODING 20973
SWIDTH 1008 0
DWIDTH 21 0
BBX 20 21 1 -3
BITMAP
080080
0C01C0
180700
10FC00
300400
500420
93FFF0
100400
100400
100440
11FFE0
11FFE0
000000
020400
03FE00
020400
040400
040420
080420
100630
6003E0
ENDCHAR
STARTCHAR 51F0
ENCODING 20976
SWIDTH 1008 0
DWIDTH 21 0
BBX 20 21 1 -3
BITMAP
100080
1FFFC0
106080
107080
12C480
13FE80
120480
13FC80
120480
13FC80
120480
120480
100080
300880
23FCA0
2060A0
23FCA0
206060
406460
47FE30
800010
ENDCHAR
STARTCHAR 51F1
ENCODING 20977
SWIDTH 1008 0
DWIDTH 21 0
BBX 20 21 1 -3
BITMAP
060440
6477E0
446440
446440
7FE440
406440
000440
FFF440
000440
7FE440
406440
406440
406440
7FE440
210440
11C440
110440
120850
07E850
FC1050
406030
ENDCHAR
STARTCHAR 51F5
ENCODING 20981
SWIDTH 1008 0
DWIDTH 21 0
BBX 19 21 2 -3
BITMAP
C00060
800040
800040
800040
800040
800040
800040
800040
800040
800040
800040
800040
800040
800040
800040
800040
800040
800040
800040
FFFFC0
800040
ENDCHAR
STARTCHAR 51F6
ENCODING 20982
SWIDTH 1008 0
DWIDTH 21 0
BBX 19 21 2 -3
BITMAP
000400
000600
C00460
800C40
800840
981040
861040
81A040
80C040
80E040
819040
821840
820840
840C40
880440
900040
A00040
800040
800040
FFFFC0
800040
ENDCHAR
STARTCHAR 51F8
ENCODING 20984
SWIDTH 1008 0
DWIDTH 21 0
BBX 19 19 2 -2
BITMAP
040800
07FC00
040800
040800
040800
040800
840840
FC0FE0
840840
800040
800040
800040
800040
800040
800040
800040
FFFFC0
800040
800000
ENDCHAR
STARTCHAR 51F9
ENCODING 20985
SWIDTH 1008 0
DWIDTH 21 0
BBX 19 19 2 -2
BITMAP
840840
FE0FE0
840840
840840
840840
840840
840840
840840
87F840
840840
840840
800040
800040
800040
800040
800040
FFFFC0
800040
800000
ENDCHAR
STARTCHAR 51FA
ENCODING 20986
SWIDTH 1008 0
DWIDTH 21 0
BBX 19 21 2 -3
BITMAP
00E000
00C000
00C000
60C0C0
40C080
40C080
40C080
40C080
7FFF80
40C080
00C000
00C000
00C000
00C000
C0C060
80C040
80C040
80C040
80C040
FFFFC0
800040
ENDCHAR
STARTCHAR 51FD
ENCODING 20989
SWIDTH 1008 0
DWIDTH 21 0
BBX 20 21 1 -3
BITMAP
000020
FFFFF0
00C000
00C000
00D000
61F830
491120
4411A0
421320
421220
401420
40DC20
40D820
431220
5C1120
4870A0
4060A0
43E020
40C020
7FFFE0
400020
ENDCHAR
STARTCHAR 51FE
ENCODING 20990
SWIDTH 1008 0
DWIDTH 21 0
BBX 19 21 2 -3
BITMAP
000400
1FFE00
000800
001000
00E000
C0C060
A4C240
BEDF40
A4C240
A4D240
A4CE40
A4CC40
A4C440
A4CA40
BCCA40
A4D140
80E140
87C040
818040
FFFFC0
800040
ENDCHAR
STARTCHAR 5200
ENCODING 20992
SWIDTH 1008 0
DWIDTH 21 0
BBX 19 20 2 -3
BITMAP
000040
FFFFE0
018040
018040
018040
018040
018040
038040
020040
020040
020040
020040
040040
0400C0
040080
080080
080080
100180
200F00
C00200
ENDCHAR
STARTCHAR 5203
ENCODING 20995
SWIDTH 1008 0
DWIDTH 21 0
BBX 20 20 1 -3
BITMAP
000020
7FFFF0
00C020
00C020
00C020
00C020
00C020
38C020
070020
01C020
027020
027020
021820
040860
040040
080040
080040
1000C0
200780
C00100
ENDCHAR
STARTCHAR 5204
ENCODING 20996
SWIDTH 1008 0
DWIDTH 21 0
BBX 20 21 1 -3
BITMAP
000100
FFFF80
010100
010100
210100
210100
210100
520100
8A0100
860100
020100
070100
050100
04E200
081A00
080700
1002F0
100620
200400
407C00
800800
ENDCHAR
STARTCHAR 5206
ENCODING 20998
SWIDTH 1008 0
DWIDTH 21 0
BBX 20 21 1 -3
BITMAP
030800
020800
060400
040400
080200
080100
1000C0
200070
C00120
1FFF80
00C100
00C100
00C100
01C100
010100
030100
020100
040300
080200
101E00
200400
ENDCHAR
STARTCHAR 5207
ENCODING 20999
SWIDTH 1008 0
DWIDTH 21 0
BBX 20 21 1 -3
BITMAP
180000
100020
10FFF0
100420
100420
110420
17C420
380420
D00420
100420
100C20
100820
100820
110820
110820
11D060
0F1040
006040
00C0C0
010780
020100
ENDCHAR
STARTCHAR 5208
ENCODING 21000
SWIDTH 1008 0
DWIDTH 21 0
BBX 20 21 1 -3
BITMAP
00E030
00C020
00C620
00C420
00C420
610420
110420
090420
050420
020420
020420
050420
050420
04C420
08E420
086420
106020
100020
200020
4001E0
800040
ENDCHAR
STARTCHAR 520A
ENCODING 21002
SWIDTH 1008 0
DWIDTH 21 0
BBX 20 21 1 -3
BITMAP
00C030
7FE020
040620
040420
040420
040420
040420
046420
FFF420
040420
040420
040420
040420
040420
040420
040020
040020
040020
040020
0401E0
040040
ENDCHAR
STARTCHAR 520B
ENCODING 21003
SWIDTH 1008 0
DWIDTH 21 0
BBX 20 21 1 -3
BITMAP
00C030
03E020
0E0620
F40420
040420
040420
040420
04C420
FFE420
040420
040420
0C0420
080420
080420
080420
100020
100020
200020
200020
4001E0
800040
ENDCHAR
STARTCHAR 520E
ENCODING 21006
SWIDTH 1008 0
DWIDTH 21 0
BBX 20 21 1 -3
BITMAP
300030
200020
206320
3FF220
2A6220
4A6220
4A6220
8A6220
126220
126220
146220
246220
246220
24E220
48C220
48C220
90C020
11C020
210020
4F01E0
020040
ENDCHAR
STARTCHAR 5211
ENCODING 21009
SWIDTH 1008 0
DWIDTH 21 0
BBX 19 21 1 -3
BITMAP
006060
FFF640
110440
110440
110440
110440
110440
110440
FFF440
110440
110440
110440
110440
110440
110440
110040
210040
210040
410040
4103C0
810080
ENDCHAR
STARTCHAR 5214
ENCODING 21012
SWIDTH 1008 0
DWIDTH 21 0
BBX 20 21 1 -3
BITMAP
060030
040020
040320
04C220
7FE220
04C220
04C220
04C220
04C220
04D220
FFFA20
FC0220
040220
0A0220
090220
10C020
10C020
206020
206020
4061E0
800040
ENDCHAR
STARTCHAR 5217
ENCODING 21015
SWIDTH 1008 0
DWIDTH 21 0
BBX 20 21 1 -3
BITMAP
00C030
7FE020
080620
080420
100420
10C420
1FE420
20C420
20C420
61C420
510420
D90420
890420
0B0420
020420
040420
040020
080020
100020
2001E0
C00040
ENDCHAR
STARTCHAR 521D
ENCODING 21021
SWIDTH 1008 0
DWIDTH 21 0
BBX 20 21 1 -3
BITMAP
180000
100020
107FF0
120420
FF0420
020420
040420
040420
090420
11C420
1A0C20
160820
340820
520820
930860
111040
101040
106040
1060C0
10C780
110100
ENDCHAR
STARTCHAR 5224
ENCODING 21028
SWIDTH 1008 0
DWIDTH 21 0
BBX 20 21 1 -3
BITMAP
060030
846020
447320
24C220
250220
040220
046220
FFF220
040220
040220
040220
046220
046220
FFF220
040220
040220
040020
040020
040020
0401E0
040040
ENDCHAR
STARTCHAR 5225
ENCODING 21029
SWIDTH 1008 0
DWIDTH 21 0
BBX 20 21 1 -3
BITMAP
40C030
7FE020
40C620
40C420
40C420
40C420
7FC420
50C420
100420
10C420
1FE420
10C420
10C420
10C420
30C420
20C020
20C020
41C020
410020
8F01E0
020040
ENDCHAR
STARTCHAR 5227
ENCODING 21031
SWIDTH 1008 0
DWIDTH 21 0
BBX 20 21 1 -3
BITMAP
0C0000
080020
087FF0
090220
7FC220
080220
080220
080220
08C220
FFE220
080220
080620
080420
100420
120440
210840
210840
27D040
F8D0C0
406780
00C100
ENDCHAR
STARTCHAR 5229
ENCODING 21033
SWIDTH 1008 0
DWIDTH 21 0
BBX 20 21 1 -3
BITMAP
010030
07C020
1C0620
E80420
080420
080420
08C420
FFE420
080420
180420
1E0420
190420
190420
29C420
28C420
280020
480020
880020
080020
0801E0
080040
ENDCHAR
STARTCHAR 522A
ENCODING 21034
SWIDTH 1008 0
DWIDTH 21 0
BBX 20 21 1 -3
BITMAP
201030
3FF820
2911A0
291120
291120
291120
291120
291120
291120
FFFD20
291120
291120
291120
291120
291120
291120
291020
291020
291020
20F1E0
206040
ENDCHAR
STARTCHAR 522E
ENCODING 21038
SWIDTH 1008 0
DWIDTH 21 0
BBX 20 21 1 -3
BITMAP
00C030
03E020
3E0320
040220
040220
040220
046220
FFF220
040220
040220
040220
24C220
24C220
3FE220
20C220
20C020
20C020
20C020
20C020
3FC1E0
20C040
ENDCHAR
STARTCHAR 5230
ENCODING 21040
SWIDTH 1008 0
DWIDTH 21 0
BBX 20 21 1 -3
BITMAP
00C030
FFE020
180620
100420
120420
210420
27C420
F8C420
40C420
0C0420
080420
090420
090420
FFC420
080420
080020
080020
0BC020
1C0020
F001E0
400040
ENDCHAR
STARTCHAR 5233
ENCODING 21043
SWIDTH 1008 0
DWIDTH 21 0
BBX 20 21 1 -3
BITMAP
0C0030
080020
086320
FFF220
120220
210220
40F220
816220
3FC220
000220
006220
007220
FFF220
200220
20C220
7FE020
40C020
00C020
01C020
0F01E0
020040
ENDCHAR
STARTCHAR 5236
ENCODING 21046
SWIDTH 1008 0
DWIDTH 21 0
BBX 20 21 1 -3
BITMAP
060030
340020
240320
24C220
7FE220
440220
840220
046220
FFF220
040220
446220
447220
7FF220
446220
446220
446020
446020
446020
45E020
44C1E0
040040
ENDCHAR
STARTCHAR 5237
ENCODING 21047
SWIDTH 1008 0
DWIDTH 21 0
BBX 20 21 1 -3
BITMAP
201030
3FF820
201320
201220
201220
3FF220
211220
210220
291220
2FFA20
291220
291220
291220
291220
291220
291020
491020
49F020
496020
8101E0
010040
ENDCHAR
STARTCHAR 5238
ENCODING 21048
SWIDTH 1008 0
DWIDTH 21 0
BBX 20 21 1 -3
BITMAP
107100
086180
046200
046480
3FFFC0
00D000
011000
010820
FFFFF0
020400
020200
060300
040100
0FFE80
30C270
C0C220
010200
020200
040600
187C00
600800
ENDCHAR
STARTCHAR 5239
ENCODING 21049
SWIDTH 1008 0
DWIDTH 21 0
BBX 20 21 1 -3
BITMAP
00C030
60E020
190620
060420
050420
09C420
30C420
C00420
060420
040420
04C420
04E420
7FE420
0C0420
0E0420
150020
14C020
246020
446020
8401E0
040040
ENDCHAR
STARTCHAR 523A
ENCODING 21050
SWIDTH 1008 0
DWIDTH 21 0
BBX 20 21 1 -3
BITMAP
060030
040020
046320
FFF220
040220
446220
7FF220
446220
446220
446220
446220
446220
45E220
4CC220
0E0220
15C020
14E020
247020
441020
8401E0
040040
ENDCHAR
STARTCHAR 523B
ENCODING 21051
SWIDTH 1008 0
DWIDTH 21 0
BBX 20 21 1 -3
BITMAP
060030
040020
046320
FFF220
060220
040220
080220
510220
21C220
130220
160220
14C220
0CC220
10E220
21C220
C20020
040020
0B0020
10E020
2071E0
C01040
ENDCHAR
STARTCHAR 5243
ENCODING 21059
SWIDTH 1008 0
DWIDTH 21 0
BBX 20 21 1 -3
BITMAP
20C030
10E020
1101A0
021120
FFF920
041120
441120
7FF120
441120
440120
841120
841920
FFF920
8C1120
0C1120
141020
141020
246020
45E020
84C1E0
040040
ENDCHAR
STARTCHAR 5244
ENCODING 21060
SWIDTH 1008 0
DWIDTH 21 0
BBX 20 21 1 -3
BITMAP
001030
FFF820
000320
221220
331A20
446220
88C220
446220
221220
221220
000220
006220
006220
7FF220
040220
040020
040020
04F020
0F0020
F001E0
400040
ENDCHAR
STARTCHAR 5247
ENCODING 21063
SWIDTH 1008 0
DWIDTH 21 0
BBX 19 21 2 -3
BITMAP
418060
7FC040
418C40
418840
418840
7F8840
418840
418840
418840
7F8840
418840
418840
418840
418840
7F8840
418840
240040
320040
218040
41C3C0
80C080
ENDCHAR
STARTCHAR 524A
ENCODING 21066
SWIDTH 1008 0
DWIDTH 21 0
BBX 20 21 1 -3
BITMAP
0C0030
88C020
48E620
290420
2A0420
080420
48C420
7FE420
40C420
40C420
7FC420
40C420
40C420
40C420
40C420
7FC420
40C020
40C020
40C020
47C1E0
410040
ENDCHAR
STARTCHAR 524B
ENCODING 21067
SWIDTH 1008 0
DWIDTH 21 0
BBX 20 21 1 -3
BITMAP
060060
040640
046440
FFF440
040440
040440
44C440
7FE440
40C440
40C440
40C440
40C440
7FC440
52C440
120040
120040
1203C0
2200A0
220020
430030
81FFE0
ENDCHAR
STARTCHAR 524C
ENCODING 21068
SWIDTH 1008 0
DWIDTH 21 0
BBX 20 21 1 -3
BITMAP
060030
040020
041320
FFFA20
040220
446220
7FF220
446220
446220
446220
7FE220
4C6220
4C6220
0E0220
150220
14C020
246020
246020
440020
8401E0
040040
ENDCHAR
STARTCHAR 524D
ENCODING 21069
SWIDTH 1008 0
DWIDTH 21 0
BBX 20 21 1 -3
BITMAP
080200
040380
060600
020420
FFFFF0
000000
2100C0
3FC080
210C80
210880
3F0880
210880
210880
210880
210880
3F0880
210880
210080
210080
2F0780
220100
ENDCHAR
STARTCHAR 524F
ENCODING 21071
SWIDTH 1008 0
DWIDTH 21 0
BBX 20 21 1 -3
BITMAP
420080
237FC0
240880
040880
FF0880
24C880
24C880
256880
251880
240880
FFCC80
E40A80
240A80
240980
2408F0
2410A0
241080
446080
446180
44CF00
850200
ENDCHAR
STARTCHAR 5254
ENCODING 21076
SWIDTH 1008 0
DWIDTH 21 0
BBX 20 21 1 -3
BITMAP
20C030
3FE020
20C320
20C220
3FC220
20C220
20C220
3FC220
28C220
080220
106220
107220
3FF220
CA6220
0A6220
126020
246020
C86020
10C020
67C1E0
010040
ENDCHAR
STARTCHAR 5256
ENCODING 21078
SWIDTH 1008 0
DWIDTH 21 0
BBX 20 21 1 -3
BITMAP
060030
040020
04C320
7FE220
210220
11C220
110220
120220
026220
FFF220
000220
20C220
20C220
3FE220
20C220
20C220
20C020
20C020
3FC020
20C1E0
200040
ENDCHAR
STARTCHAR 525B
ENCODING 21083
SWIDTH 1008 0
DWIDTH 21 0
BBX 20 21 1 -3
BITMAP
806030
FFF020
806320
A26220
936220
926220
846220
FFE220
886220
886220
AB6220
AA6220
AA6220
AA6220
AA6220
BE6020
A26020
806020
806020
81E1E0
80C040
ENDCHAR
ENDFONT
